<svg xmlns="http://www.w3.org/2000/svg" width="650" height="650" viewBox="0 0 650 650" fill="none">
<circle cx="325" cy="325" r="325" fill="#F4F4F4"/>
<circle cx="325" cy="325" r="324.5" stroke="#0E2517" stroke-opacity="0.2"/>
<circle cx="325" cy="325" r="195" fill="#F4F4F4"/>
<circle cx="325" cy="325" r="194.5" stroke="#0E2517" stroke-opacity="0.5"/>
<circle cx="325" cy="325" r="65" fill="#F4F4F4"/>
<circle cx="325" cy="325" r="64.5338" stroke="#0E2517" stroke-opacity="0.2" stroke-width="0.932432"/>
<circle cx="32.5" cy="32.5" r="32.5" transform="matrix(1 0 0 -1 293 358)" fill="#F4F4F4"/>
<circle cx="32.5" cy="32.5" r="32" transform="matrix(1 0 0 -1 293 358)" stroke="#0E2517" stroke-opacity="0.2"/>
<path d="M95 95L554.619 554.619" stroke="#0E2517" stroke-opacity="0.2"/>
<path d="M555 95L95.3806 554.619" stroke="#0E2517" stroke-opacity="0.2"/>
<path d="M54.3311 122.414L50.3429 119.456C49.608 118.911 48.9513 118.966 48.442 119.653L46.0565 122.87L44.707 121.869L47.3873 118.254C48.12 117.266 49.063 116.901 49.9669 117.067C50.3753 117.146 50.8293 117.315 51.5884 117.877L55.5284 120.799L54.3311 122.414ZM51.1773 126.667L47.8398 124.192L49.037 122.577L52.3745 125.052L51.1773 126.667Z" fill="#0E2517"/>
<path d="M57.3783 118.396L53.8627 112.543L51.3309 115.78L47.8924 113.091L49.1213 111.52L51.2364 113.174L53.8606 109.818L55.1013 110.788L58.6812 116.73L57.3783 118.396Z" fill="#0E2517"/>
<path d="M59.4375 111.227L56.6712 108.994L56.0965 109.706L54.7892 108.651L56.6264 106.375L60.7 109.663L59.4375 111.227Z" fill="#0E2517"/>
<path d="M67.5975 105.834L63.8063 102.628C63.1076 102.037 62.4488 102.05 61.8967 102.703L59.3107 105.761L58.0278 104.676L60.9335 101.24C61.7277 100.301 62.6921 99.9965 63.5836 100.22C63.9861 100.325 64.4284 100.522 65.15 101.132L68.8954 104.299L67.5975 105.834ZM64.1786 109.877L61.0058 107.194L62.3037 105.659L65.4764 108.342L64.1786 109.877Z" fill="#0E2517"/>
<path d="M72.3362 100.41L69.0701 94.4962L65.3832 98.6246L64.1302 97.5056L69.2358 91.7885L70.4553 92.8776L73.735 98.8433L72.3362 100.41ZM71.6213 104.115L67.079 100.059L68.4179 98.5594L72.9602 102.616L71.6213 104.115Z" fill="#0E2517"/>
<path d="M76.8249 95.4282L72.1436 91.1009L71.5225 91.7728L70.2888 90.6324L72.2946 88.4625L78.2096 93.9302L76.8249 95.4282Z" fill="#0E2517"/>
<path d="M85.64 86.2791L82.1029 82.7949C81.451 82.1528 80.7931 82.1153 80.1931 82.7244L77.3826 85.5776L76.1857 84.3987L79.3436 81.1928C80.2068 80.3165 81.1915 80.0864 82.0634 80.3768C82.4569 80.5117 82.8829 80.7419 83.5561 81.405L87.0505 84.8471L85.64 86.2791ZM81.9242 90.0513L78.9641 87.1355L80.3747 85.7036L83.3348 88.6194L81.9242 90.0513Z" fill="#0E2517"/>
<path d="M91.0612 80.9631L87.6234 77.3808C86.9898 76.7206 86.3441 76.6543 85.7163 77.2567L83.6709 79.2196L82.5076 78.0075L84.9211 75.6914C85.7977 74.8501 86.7673 74.6473 87.6519 74.9626C88.0415 75.1085 88.4608 75.3505 89.1152 76.0324L92.5114 79.5714L91.0612 80.9631Z" fill="#0E2517"/>
<path d="M93.7001 78.4523L92.563 77.2157L95.5775 74.444L93.354 72.0258C92.7347 71.3522 92.0905 71.2721 91.4501 71.861L89.4405 73.7088L88.3034 72.4721L90.6774 70.2893C91.6159 69.4263 92.6311 69.2672 93.5071 69.6436C93.8722 69.797 94.2549 70.036 94.8743 70.7095L97.0571 73.0835L98.0177 72.2002L99.1548 73.4369L93.7001 78.4523Z" fill="#0E2517"/>
<path d="M100.27 72.45L94.9736 66.3812L98.5562 63.2546C99.4829 62.4458 100.471 62.3003 101.33 62.6457C101.712 62.8099 102.119 63.0715 102.741 63.7834L105.966 67.479L104.452 68.8006L101.187 65.0599C100.585 64.3705 99.9321 64.2836 99.2879 64.8458L97.5927 66.3253L101.785 71.1283L100.27 72.45Z" fill="#0E2517"/>
<path d="M109.869 64.1906L108.962 63.0723L109.024 57.0536C109.036 56.1165 108.911 55.5809 108.571 55.1615C108.051 54.5208 107.273 54.5144 106.598 55.0625C106.213 55.3744 106.003 55.7577 105.994 56.1513C105.966 56.6177 106.161 57.0005 106.461 57.3944L105.005 58.5757C103.703 56.947 103.917 54.9965 105.618 53.6167C107.109 52.4071 108.803 52.4237 109.927 53.8099C110.589 54.6253 110.846 55.6333 110.825 57.6785L110.788 61.2045L113.736 58.8136L114.832 60.1649L109.869 64.1906Z" fill="#0E2517"/>
<path d="M117.579 58.2762C117.057 58.6803 116.308 58.5959 115.895 58.0622C115.5 57.5522 115.596 56.7947 116.118 56.3905C116.64 55.9864 117.398 56.0827 117.793 56.5927C118.206 57.1263 118.1 57.8721 117.579 58.2762Z" fill="#0E2517"/>
<path d="M123.62 53.4474L122.3 51.6818L118.36 54.6292L117.363 53.296L116.334 45.5608L118.075 44.2578L119.107 51.972L121.293 50.3366L120.233 48.9194L121.749 47.7662L122.818 49.1954L123.635 48.5844L124.642 49.9296L123.825 50.5406L125.146 52.3062L123.62 53.4474Z" fill="#0E2517"/>
<path d="M134.956 603.815L130.347 610.421L126.435 607.691C125.426 606.987 125.046 606.064 125.186 605.155C125.241 604.736 125.397 604.278 125.937 603.503L128.744 599.48L134.956 603.815ZM132.347 604.043L129.419 602L127.539 604.694C127.015 605.444 127.089 606.099 127.79 606.588L129.66 607.893L132.347 604.043Z" fill="#0E2517"/>
<path d="M125.104 600.346L123.02 603.226L123.761 603.762L122.776 605.123L120.407 603.408L123.476 599.167L125.104 600.346Z" fill="#0E2517"/>
<path d="M120.579 593.462L117.579 597.418C117.027 598.148 117.062 598.796 117.756 599.321L120.015 601.034L119 602.373L116.335 600.352C115.366 599.618 115.014 598.692 115.187 597.769C115.27 597.362 115.443 596.91 116.014 596.156L118.977 592.247L120.579 593.462Z" fill="#0E2517"/>
<path d="M113.973 588.061C114.243 588.276 114.447 588.477 114.624 588.713L113.577 590.027C113.427 589.831 113.178 589.614 113.037 589.502C111.922 588.614 110.855 588.895 109.855 590.151C108.883 591.372 108.788 592.503 109.68 593.213C110.407 593.793 111.187 593.608 111.984 593.112C112.74 592.716 113.577 591.906 114.729 590.772L115.83 589.654L117.391 590.897C116.391 591.96 114.668 593.618 113.459 594.631L112.916 597.746L111.144 596.335L111.342 594.978C110.298 595.278 109.335 595.067 108.431 594.348C106.8 593.049 106.556 591.091 108.21 589.014C109.845 586.96 111.978 586.473 113.973 588.061Z" fill="#0E2517"/>
<path d="M109.067 584.325L104.954 589.195L105.653 589.785L104.568 591.069L102.311 589.162L107.509 583.008L109.067 584.325Z" fill="#0E2517"/>
<path d="M105.969 581.686L100.68 587.761L97.0935 584.638C96.1659 583.831 95.887 582.872 96.1121 581.974C96.2226 581.573 96.4261 581.133 97.0467 580.421L100.268 576.722L101.784 578.042L98.5232 581.786C97.9223 582.476 97.9253 583.135 98.5701 583.697L100.267 585.174L104.453 580.366L105.969 581.686Z" fill="#0E2517"/>
<path d="M98.3375 574.995L94.054 579.717L94.7317 580.332L93.6028 581.576L91.4143 579.59L96.8267 573.625L98.3375 574.995Z" fill="#0E2517"/>
<path d="M92.8286 569.884L87.2323 575.677L83.8015 572.363C82.9169 571.509 82.6879 570.537 82.9697 569.662C83.09 569.257 83.316 568.829 83.9725 568.149L87.3804 564.621L92.8286 569.884ZM90.2157 569.696L87.648 567.216L85.3657 569.578C84.73 570.236 84.699 570.895 85.3139 571.489L86.9538 573.073L90.2157 569.696Z" fill="#0E2517"/>
<path d="M83.649 564.897L81.1334 567.409L81.7799 568.057L80.591 569.244L78.5243 567.174L82.2288 563.475L83.649 564.897Z" fill="#0E2517"/>
<path d="M83.0022 560.232L81.7854 561.391L78.9619 558.425L76.5826 560.69C75.9199 561.321 75.851 561.966 76.4508 562.596L78.3332 564.574L77.1164 565.732L74.8927 563.396C74.0136 562.473 73.8369 561.461 74.1982 560.578C74.3451 560.21 74.5775 559.824 75.2402 559.193L77.576 556.969L76.6762 556.024L77.893 554.866L83.0022 560.232Z" fill="#0E2517"/>
<path d="M77.1974 554.113C76.7482 554.399 76.2666 554.695 75.7417 555.009C74.506 555.745 73.4744 556.216 72.12 555.46L71.2932 559.593L69.7105 557.849L70.4846 553.926C69.5406 553.466 68.8914 553.934 68.1998 554.399C67.8596 554.627 67.5184 554.876 67.2003 555.084L65.8092 553.551C66.1383 553.333 66.5219 553.086 66.9045 552.86C68.2724 552.024 69.3332 551.608 70.7764 552.506L71.663 548.015L73.2457 549.759L72.4148 553.977C73.2813 554.284 73.9113 553.773 74.5352 553.389C75.0178 553.073 75.3792 552.846 75.7861 552.558L77.1974 554.113Z" fill="#0E2517"/>
<path d="M67.8653 543.271C69.6681 545.38 69.5714 547.969 67.3706 549.849L64.6223 552.198L63.3847 550.75L65.9277 548.576C66.1672 548.372 66.3741 548.175 66.5404 547.954C65.5004 547.107 64.6055 547.122 63.4994 548.067L62.1082 549.256L60.8998 547.842L62.3595 546.594C63.9218 545.259 65.3648 545.309 67.18 546.717C67.4156 545.884 67.2053 545.038 66.5817 544.308C65.4221 542.951 63.6259 542.927 62.0522 544.272L59.6233 546.348L58.3857 544.9L60.9515 542.707C63.1638 540.817 65.9553 541.035 67.8653 543.271Z" fill="#0E2517"/>
<path d="M60.5693 534.487C60.7844 534.757 60.9386 534.999 61.0577 535.268L59.7442 536.316C59.6415 536.091 59.4475 535.823 59.3352 535.683C58.4467 534.569 57.3433 534.604 56.0885 535.605C54.8689 536.578 54.5229 537.66 55.2337 538.551C55.8136 539.278 56.6147 539.272 57.503 538.967C58.328 538.75 59.3245 538.147 60.7009 537.299L62.0234 536.455L63.2673 538.015C62.0549 538.828 60.0056 540.06 58.6013 540.777L57.3764 543.691L55.9642 541.921L56.4604 540.642C55.3757 540.702 54.4838 540.281 53.7636 539.378C52.4636 537.748 52.6633 535.785 54.739 534.13C56.7913 532.493 58.9793 532.494 60.5693 534.487Z" fill="#0E2517"/>
<path d="M55.0672 527.723L53.9099 528.58L47.8998 528.252C46.9641 528.199 46.4235 528.3 45.9895 528.622C45.3265 529.113 45.2857 529.889 45.8035 530.589C46.0981 530.986 46.4717 531.214 46.8645 531.24C47.3292 531.288 47.7203 531.11 48.1271 530.828L49.2429 532.335C47.5584 533.563 45.6192 533.264 44.3159 531.504C43.1733 529.961 43.2646 528.269 44.6991 527.207C45.5429 526.582 46.5613 526.369 48.6036 526.481L52.1245 526.673L49.8661 523.623L51.2644 522.588L55.0672 527.723Z" fill="#0E2517"/>
<path d="M49.4905 519.765C49.8734 520.303 49.7591 521.047 49.2093 521.439C48.6839 521.813 47.9308 521.687 47.5479 521.149C47.165 520.612 47.2915 519.858 47.8169 519.484C48.3667 519.093 49.1076 519.228 49.4905 519.765Z" fill="#0E2517"/>
<path d="M46.5352 515.565C46.9162 516.123 47.1812 516.723 47.2963 517.316L45.7733 518.358C45.7038 517.751 45.4551 517.122 45.0741 516.564C44.1767 515.252 42.9499 514.946 41.9098 515.657C41.0802 516.224 40.8948 517.096 41.4536 517.913C41.6991 518.272 42.0476 518.543 42.432 518.68L41.2392 519.859L38.1737 519.574L39.977 522.212L38.5654 523.177L35.3906 518.533L36.5422 517.746L39.6539 518.072C38.8934 516.72 39.1499 515.182 40.673 514.14C42.617 512.811 45.0198 513.349 46.5352 515.565Z" fill="#0E2517"/>
<path d="M595.272 526.164L599.264 529.116C600 529.66 600.657 529.604 601.165 528.917L603.546 525.697L604.897 526.696L602.222 530.314C601.49 531.303 600.548 531.669 599.644 531.504C599.235 531.426 598.781 531.258 598.021 530.696L594.077 527.78L595.272 526.164ZM598.421 521.906L601.761 524.377L600.566 525.993L597.226 523.522L598.421 521.906Z" fill="#0E2517"/>
<path d="M594.794 531.507L597.617 533.668L598.173 532.942L599.507 533.963L597.729 536.285L593.572 533.102L594.794 531.507Z" fill="#0E2517"/>
<path d="M591.908 535.219L594.685 537.439L595.256 536.724L596.568 537.773L594.742 540.058L590.653 536.789L591.908 535.219Z" fill="#0E2517"/>
<path d="M587.119 536.663L593.323 541.8L590.291 545.462C589.506 546.41 588.555 546.712 587.651 546.51C587.248 546.409 586.804 546.217 586.076 545.614L582.298 542.486L583.58 540.937L587.404 544.104C588.109 544.688 588.767 544.668 589.313 544.01L590.748 542.277L585.837 538.211L587.119 536.663Z" fill="#0E2517"/>
<path d="M577.912 547.253C578.139 546.993 578.35 546.799 578.594 546.634L579.857 547.741C579.654 547.882 579.425 548.12 579.306 548.256C578.367 549.327 578.597 550.407 579.804 551.465C580.977 552.493 582.103 552.643 582.855 551.786C583.468 551.086 583.32 550.299 582.863 549.478C582.503 548.705 581.734 547.831 580.656 546.626L579.591 545.473L580.907 543.973C581.921 545.023 583.496 546.822 584.45 548.077L587.535 548.768L586.042 550.471L584.696 550.208C584.946 551.266 584.69 552.218 583.929 553.086C582.554 554.654 580.587 554.804 578.59 553.054C576.617 551.324 576.231 549.17 577.912 547.253Z" fill="#0E2517"/>
<path d="M574.759 551.095L575.992 552.236L573.179 555.274L581.047 556.16L579.487 557.844L575.713 557.416C575.5 558.22 576.031 558.773 576.523 559.412C576.767 559.7 576.991 559.989 577.235 560.276L575.798 561.828L575.036 560.775C574.185 559.619 573.626 558.611 574.199 557.241L571.332 556.916L570.275 555.937L574.759 551.095Z" fill="#0E2517"/>
<path d="M568.39 557.923L572.984 562.343L573.619 561.684L574.83 562.849L572.781 564.978L566.976 559.393L568.39 557.923Z" fill="#0E2517"/>
<path d="M563.308 563.108L564.483 564.308L562.802 565.956L569.074 568.735L567.51 570.268L561.502 567.523C561.349 567.946 561.441 568.361 561.817 568.959C562.223 569.716 563.282 570.925 564.101 571.761L565.025 572.703L563.546 574.152C563.242 573.842 562.927 573.52 562.507 573.07C561.909 572.439 561.185 571.636 560.693 570.963C559.135 568.794 559.258 567.076 561.529 564.851L563.308 563.108Z" fill="#0E2517"/>
<path d="M554.203 571.865L556.897 578.06L560.957 574.297L562.099 575.53L556.477 580.74L555.366 579.541L552.663 573.292L554.203 571.865ZM555.264 568.243L559.404 572.71L557.93 574.076L553.79 569.61L555.264 568.243Z" fill="#0E2517"/>
<path d="M546.931 578.445L550.217 582.167C550.823 582.853 551.465 582.946 552.117 582.37L554.242 580.494L555.354 581.753L552.847 583.967C551.936 584.771 550.959 584.934 550.088 584.582C549.705 584.42 549.296 584.161 548.67 583.452L545.424 579.776L546.931 578.445Z" fill="#0E2517"/>
<path d="M541.465 583.127L543.846 589.449L548.089 585.895L549.168 587.182L543.292 592.105L542.242 590.852L539.855 584.476L541.465 583.127ZM542.706 579.563L546.617 584.231L545.076 585.522L541.165 580.854L542.706 579.563Z" fill="#0E2517"/>
<path d="M534.38 588.935L535.265 590.07L535.088 596.087C535.057 597.023 535.172 597.561 535.505 597.987C536.012 598.638 536.789 598.659 537.475 598.124C537.866 597.82 538.084 597.44 538.1 597.047C538.136 596.581 537.949 596.195 537.657 595.795L539.135 594.642C540.405 596.295 540.154 598.242 538.427 599.588C536.913 600.769 535.22 600.72 534.122 599.312C533.477 598.485 533.238 597.472 533.299 595.427L533.403 591.903L530.411 594.237L529.341 592.865L534.38 588.935Z" fill="#0E2517"/>
<path d="M526.567 594.713C527.094 594.316 527.841 594.41 528.247 594.948C528.636 595.463 528.53 596.22 528.003 596.617C527.476 597.015 526.72 596.909 526.331 596.394C525.925 595.855 526.04 595.11 526.567 594.713Z" fill="#0E2517"/>
<path d="M523.998 596.89L524.839 598.059L524.432 604.064C524.366 604.999 524.46 605.541 524.776 605.979C525.258 606.648 526.034 606.699 526.74 606.191C527.142 605.902 527.374 605.531 527.406 605.139C527.46 604.675 527.287 604.281 527.01 603.871L528.532 602.775C529.738 604.476 529.412 606.411 527.635 607.691C526.077 608.813 524.387 608.699 523.344 607.25C522.73 606.398 522.531 605.377 522.67 603.337L522.909 599.819L519.829 602.036L518.812 600.624L523.998 596.89Z" fill="#0E2517"/>
<path d="M547.203 70.9456L552.59 64.957L556.136 68.1471C557.051 68.9697 557.314 69.9329 557.064 70.8172C556.958 71.2264 556.747 71.6624 556.115 72.3649L552.835 76.0116L547.203 70.9456ZM549.821 71.0408L552.475 73.4284L554.672 70.9861C555.284 70.3058 555.292 69.6469 554.656 69.0751L552.961 67.5503L549.821 71.0408Z" fill="#0E2517"/>
<path d="M556.551 75.5922L558.967 72.9844L558.296 72.3625L559.437 71.1301L561.583 73.118L558.025 76.9582L556.551 75.5922Z" fill="#0E2517"/>
<path d="M560.744 83.7811C560.498 83.5397 560.315 83.3188 560.164 83.0657L561.34 81.8658C561.469 82.0766 561.694 82.3183 561.823 82.4443C562.841 83.4416 563.932 83.2714 565.055 82.1251C566.147 81.0108 566.358 79.8949 565.544 79.097C564.88 78.4462 564.085 78.5497 563.241 78.9613C562.448 79.277 561.533 79.997 560.27 81.0069L559.061 82.0056L557.636 80.6093C558.74 79.6541 560.623 78.1818 561.93 77.2987L562.79 74.2563L564.408 75.8416L564.071 77.1709C565.14 76.9797 566.077 77.2884 566.902 78.0968C568.391 79.5561 568.432 81.5286 566.574 83.4249C564.737 85.2998 562.565 85.5658 560.744 83.7811Z" fill="#0E2517"/>
<path d="M567.037 89.8174L568.082 88.8263L574.087 88.422C575.023 88.3617 575.547 88.1951 575.939 87.8235C576.537 87.2557 576.483 86.4797 575.884 85.8486C575.544 85.4894 575.145 85.3092 574.752 85.3307C574.285 85.3396 573.918 85.5634 573.549 85.8932L572.259 84.5329C573.781 83.1088 575.743 83.171 577.25 84.7598C578.571 86.1527 578.686 87.8428 577.391 89.0713C576.629 89.794 575.644 90.1288 573.604 90.2661L570.085 90.5024L572.697 93.2555L571.435 94.4531L567.037 89.8174Z" fill="#0E2517"/>
<path d="M573.533 97.0442C573.089 96.5557 573.115 95.803 573.614 95.3491C574.092 94.9153 574.854 94.9519 575.298 95.4403C575.742 95.9288 575.706 96.6916 575.228 97.1254C574.729 97.5793 573.977 97.5327 573.533 97.0442Z" fill="#0E2517"/>
<path d="M576.26 99.7557L581.897 94.6952L580.664 93.3223L581.714 92.3803C582.545 93.3067 583.55 93.3927 584.508 92.9557L585.58 94.15L577.633 101.285L576.26 99.7557Z" fill="#0E2517"/>
<path d="M315.016 637.859C315.075 637.545 315.144 637.213 315.222 636.854C315.408 636.011 315.626 635.367 316.513 635.085L315.045 633.025L316.458 633.05L317.855 635C318.444 634.776 318.507 634.3 318.587 633.807C318.627 633.564 318.659 633.313 318.699 633.089L319.94 633.11C319.9 633.343 319.851 633.613 319.792 633.873C319.596 634.814 319.342 635.449 318.356 635.711L319.956 637.944L318.543 637.92L317.04 635.823C316.55 636.076 316.514 636.561 316.426 636.992C316.366 637.333 316.317 637.584 316.275 637.88L315.016 637.859Z" fill="#0E2517"/>
<path d="M321.867 637.966L321.869 636.967L323.129 636.97C324.425 636.972 324.984 636.586 324.986 635.407C324.988 634.453 324.557 634.002 323.747 634.001C323.081 634 322.666 634.323 322.665 634.809C322.664 635.214 322.952 635.403 323.312 635.467L323.31 636.448C322.707 636.447 321.52 636.112 321.522 634.852C321.524 633.736 322.452 632.99 323.838 632.993C325.359 632.996 326.168 633.816 326.165 635.337C326.162 637.047 325.179 637.972 323.325 637.969L321.867 637.966Z" fill="#0E2517"/>
<path d="M330.254 637.915L330.19 634.937C330.178 634.388 329.919 634.096 329.398 634.107L327.697 634.144L327.675 633.136L329.682 633.093C330.411 633.077 330.921 633.381 331.184 633.88C331.297 634.102 331.384 634.38 331.396 634.946L331.46 637.889L330.254 637.915Z" fill="#0E2517"/>
<path d="M336.375 637.833C336.168 637.841 335.996 637.829 335.824 637.791L335.785 636.784C335.93 636.814 336.128 636.816 336.236 636.811C337.09 636.778 337.465 636.232 337.428 635.27C337.392 634.335 336.992 633.783 336.309 633.809C335.751 633.831 335.469 634.22 335.301 634.758C335.112 635.234 335.049 635.93 334.969 636.897L334.907 637.836L333.71 637.882C333.749 637.007 333.882 635.579 334.035 634.645L333.063 633.017L334.421 632.964L334.862 633.658C335.219 633.113 335.739 632.832 336.432 632.805C337.682 632.756 338.559 633.551 338.621 635.143C338.682 636.717 337.903 637.774 336.375 637.833Z" fill="#0E2517"/>
<path d="M308.839 512.366L309.077 509.396C309.121 508.849 308.884 508.532 308.373 508.491L305.978 508.299L306.058 507.294L308.75 507.51C309.485 507.569 309.971 507.933 310.173 508.446C310.263 508.679 310.321 508.963 310.276 509.529L310.041 512.462L308.839 512.366ZM305.672 512.112L305.871 509.627L307.073 509.723L306.874 512.208L305.672 512.112Z" fill="#0E2517"/>
<path d="M314.944 512.853C314.737 512.843 314.567 512.817 314.398 512.764L314.446 511.757C314.588 511.8 314.786 511.819 314.894 511.824C315.748 511.864 316.168 511.353 316.214 510.391C316.258 509.456 315.908 508.871 315.224 508.839C314.667 508.813 314.352 509.176 314.139 509.697C313.91 510.155 313.787 510.843 313.624 511.799L313.481 512.73L312.285 512.673C312.399 511.804 312.655 510.393 312.888 509.476L312.059 507.77L313.416 507.834L313.796 508.564C314.199 508.051 314.741 507.816 315.434 507.849C316.683 507.908 317.489 508.775 317.413 510.366C317.339 511.94 316.472 512.926 314.944 512.853Z" fill="#0E2517"/>
<path d="M319.615 511.243L319.649 509.111L319.1 509.102L319.116 508.094L320.87 508.122L320.821 511.263L319.615 511.243Z" fill="#0E2517"/>
<path d="M323.375 511.288L323.376 509.155L322.827 509.155L322.828 508.147L324.583 508.148L324.581 511.289L323.375 511.288Z" fill="#0E2517"/>
<path d="M328.76 512.906L329.987 509.042L326.667 509.141L326.637 508.134L331.234 507.997L331.264 508.977L330.02 512.868L328.76 512.906ZM326.852 514.124L326.743 510.472L327.948 510.436L328.057 514.088L326.852 514.124Z" fill="#0E2517"/>
<path d="M338.548 512.424L338.319 509.453C338.277 508.906 338.003 508.629 337.483 508.669L335.787 508.799L335.71 507.794L337.711 507.641C338.438 507.585 338.964 507.86 339.254 508.344C339.379 508.56 339.481 508.832 339.525 509.397L339.75 512.331L338.548 512.424Z" fill="#0E2517"/>
<path d="M341.723 512.168L341.618 511.165L344.062 510.911L343.858 508.95C343.801 508.404 343.519 508.135 343 508.189L341.371 508.359L341.267 507.356L343.191 507.156C343.952 507.076 344.498 507.363 344.785 507.858C344.905 508.063 345.004 508.315 345.061 508.861L345.261 510.786L346.04 510.705L346.145 511.707L341.723 512.168Z" fill="#0E2517"/>
<path d="M304.019 379.519L304.983 376.802C305.161 376.301 305.027 375.949 304.551 375.78L303 375.229L303.326 374.31L305.157 374.96C305.822 375.196 306.179 375.646 306.246 376.187C306.272 376.427 306.255 376.708 306.071 377.225L305.119 379.909L304.019 379.519Z" fill="#0E2517"/>
<path d="M306.938 380.516L307.176 379.588L308.104 379.825C309.125 380.086 309.714 379.823 309.962 378.853C310.188 377.967 309.891 377.441 309.055 377.228L307.899 376.932L308.139 375.996L309.556 376.358C310.906 376.703 311.485 377.606 311.114 379.057C310.719 380.602 309.647 381.209 308.002 380.788L306.938 380.516Z" fill="#0E2517"/>
<path d="M312.968 380.297L313.32 378.263L312.797 378.173L312.963 377.212L314.637 377.502L314.118 380.497L312.968 380.297Z" fill="#0E2517"/>
<path d="M315.782 382.437L315.883 381.475L316.49 381.539C316.871 381.579 317.083 381.392 317.124 381.002L317.35 378.862L316.285 378.75L316.387 377.78L318.613 378.015L318.29 381.072C318.237 381.575 318.13 381.844 317.988 382.03C317.739 382.398 317.289 382.596 316.691 382.533L315.782 382.437Z" fill="#0E2517"/>
<path d="M325.321 382.912L325.265 380.03C325.254 379.499 325.005 379.216 324.5 379.226L322.854 379.258L322.835 378.283L324.777 378.245C325.482 378.231 325.976 378.526 326.229 379.009C326.338 379.225 326.422 379.493 326.432 380.042L326.488 382.89L325.321 382.912Z" fill="#0E2517"/>
<path d="M328.935 382.767L328.571 379.084L328.043 379.136L327.947 378.165L329.654 377.997L330.114 382.651L328.935 382.767Z" fill="#0E2517"/>
<path d="M332.387 382.368L332.214 381.417L333.414 381.199C334.648 380.976 335.113 380.511 334.909 379.388C334.745 378.48 334.256 378.126 333.484 378.266C332.85 378.38 332.512 378.76 332.596 379.223C332.666 379.609 332.972 379.739 333.326 379.737L333.495 380.671C332.921 380.775 331.732 380.663 331.515 379.463C331.323 378.4 332.076 377.529 333.396 377.29C334.845 377.028 335.757 377.668 336.02 379.116C336.315 380.745 335.54 381.797 333.775 382.116L332.387 382.368Z" fill="#0E2517"/>
<path d="M338.239 379.572L337.707 377.578L337.193 377.715L336.942 376.772L338.583 376.334L339.367 379.271L338.239 379.572Z" fill="#0E2517"/>
<path d="M344.42 379.455C342.904 380.002 341.518 379.42 340.946 377.839L340.233 375.865L341.274 375.489L341.933 377.316C341.996 377.488 342.06 377.64 342.146 377.776C342.82 377.384 342.995 376.895 342.708 376.101L342.347 375.101L343.362 374.734L343.741 375.783C344.147 376.905 343.824 377.679 342.687 378.377C343.091 378.675 343.594 378.734 344.119 378.545C345.093 378.193 345.474 377.222 345.066 376.091L344.435 374.347L345.476 373.971L346.142 375.814C346.716 377.403 346.025 378.875 344.42 379.455Z" fill="#0E2517"/>
<path d="M312.853 348.227L314.119 345.531C314.352 345.034 314.25 344.658 313.778 344.436L312.238 343.713L312.667 342.801L314.483 343.654C315.143 343.964 315.466 344.463 315.479 345.026C315.482 345.276 315.436 345.563 315.195 346.076L313.944 348.74L312.853 348.227Z" fill="#0E2517"/>
<path d="M316.19 349.618L316.406 348.642L317.636 348.915C318.901 349.195 319.53 348.937 319.785 347.786C319.991 346.855 319.666 346.322 318.875 346.147C318.225 346.003 317.751 346.23 317.646 346.704C317.558 347.1 317.799 347.347 318.136 347.486L317.925 348.444C317.336 348.313 316.248 347.732 316.52 346.501C316.761 345.412 317.828 344.883 319.181 345.182C320.666 345.511 321.28 346.485 320.951 347.97C320.582 349.64 319.424 350.333 317.614 349.933L316.19 349.618Z" fill="#0E2517"/>
<path d="M322.793 350.882L322.866 347.058L322.317 347.048L322.336 346.04L324.109 346.074L324.017 350.906L322.793 350.882Z" fill="#0E2517"/>
<path d="M329.108 350.42C327.474 350.739 326.151 349.923 325.819 348.219L325.404 346.09L326.526 345.871L326.91 347.841C326.946 348.027 326.987 348.193 327.054 348.345C327.803 348.052 328.06 347.58 327.893 346.723L327.683 345.646L328.779 345.432L328.999 346.563C329.235 347.773 328.783 348.512 327.511 349.044C327.876 349.413 328.38 349.553 328.946 349.443C329.997 349.239 330.54 348.308 330.302 347.089L329.936 345.207L331.058 344.988L331.445 346.976C331.779 348.69 330.84 350.083 329.108 350.42Z" fill="#0E2517"/>
<path d="M336.702 348.044C336.516 348.134 336.354 348.192 336.18 348.226L335.741 347.319C335.887 347.289 336.069 347.211 336.166 347.164C336.936 346.791 337.061 346.141 336.642 345.274C336.234 344.431 335.647 344.086 335.031 344.383C334.529 344.626 334.426 345.096 334.487 345.656C334.505 346.168 334.725 346.831 335.039 347.749L335.358 348.634L334.28 349.156C333.965 348.338 333.516 346.976 333.282 346.059L331.739 344.956L332.962 344.365L333.645 344.824C333.754 344.182 334.118 343.715 334.742 343.414C335.868 342.869 336.99 343.246 337.684 344.68C338.37 346.097 338.079 347.378 336.702 348.044Z" fill="#0E2517"/>
</svg>