<svg width="690" height="691" viewBox="0 0 690 691" fill="none" xmlns="http://www.w3.org/2000/svg">
<g clip-path="url(#clip0_1669_2728)">
<mask id="mask0_1669_2728" style="mask-type:luminance" maskUnits="userSpaceOnUse" x="0" y="0" width="690" height="691">
<path d="M690 0H0V691H690V0Z" fill="white"/>
</mask>
<g mask="url(#mask0_1669_2728)">
<path d="M345.5 671C524.716 671 670 525.716 670 346.5C670 167.284 524.716 22 345.5 22C166.284 22 21 167.284 21 346.5C21 525.716 166.284 671 345.5 671Z" fill="#F4F4F4" stroke="#D4D7D6"/>
<path d="M344.992 576.5C472.294 576.5 575.492 473.302 575.492 346C575.492 218.698 472.294 115.5 344.992 115.5C217.69 115.5 114.492 218.698 114.492 346C114.492 473.302 217.69 576.5 344.992 576.5Z" stroke="#CFD3D1"/>
<path d="M344.995 483.534C420.953 483.534 482.529 421.958 482.529 346C482.529 270.042 420.953 208.466 344.995 208.466C269.037 208.466 207.461 270.042 207.461 346C207.461 421.958 269.037 483.534 344.995 483.534Z" stroke="#0E2517" stroke-opacity="0.2" stroke-width="0.932432"/>
<path d="M344.992 289.5C376.196 289.5 401.492 314.796 401.492 346C401.492 377.204 376.196 402.5 344.992 402.5C313.788 402.5 288.492 377.204 288.492 346C288.492 314.796 313.788 289.5 344.992 289.5Z" stroke="#0E2517" stroke-opacity="0.2"/>
<path d="M21 345.859L670.563 346.296" stroke="#D4D7D6"/>
<path d="M346.829 22L346.188 670.89" stroke="#D4D7D6"/>
<path d="M12.9792 294.827L10.7967 294.513L10.0952 299.382L8.44713 299.145L2.25 294.403L2.56013 292.25L8.74456 296.975L9.13384 294.273L7.38192 294.021L7.63871 292.133L9.40547 292.388L9.55092 291.378L11.2138 291.618L11.0683 292.627L13.2508 292.942L12.9792 294.827Z" fill="#0E2517"/>
<path d="M12.1256 302.514C12.0423 303.169 11.4534 303.638 10.7838 303.553C10.144 303.472 9.67638 302.868 9.7596 302.213C9.84281 301.558 10.4466 301.091 11.0864 301.172C11.756 301.257 12.2088 301.859 12.1256 302.514Z" fill="#0E2517"/>
<path d="M10.8537 312.147L9.42144 311.998L5.20942 307.698C4.55549 307.027 4.08804 306.737 3.55095 306.681C2.73039 306.595 2.17587 307.141 2.08569 308.006C2.03439 308.499 2.15651 308.918 2.42846 309.203C2.73895 309.552 3.14736 309.685 3.63814 309.751L3.4438 311.616C1.37158 311.385 0.143613 309.855 0.370608 307.677C0.569618 305.767 1.77907 304.581 3.55446 304.766C4.5988 304.875 5.49362 305.405 6.92487 306.867L9.39204 309.386L9.78539 305.611L11.516 305.792L10.8537 312.147Z" fill="#0E2517"/>
<path d="M9.90366 324.775L1.86719 324.229L2.18955 319.485C2.27294 318.258 2.86864 317.456 3.72022 317.093C4.10656 316.939 4.57964 316.836 5.52247 316.9L10.4162 317.233L10.2799 319.238L5.32634 318.901C4.41344 318.839 3.89009 319.24 3.83213 320.093L3.67959 322.338L10.0399 322.77L9.90366 324.775Z" fill="#0E2517"/>
<path d="M9.50572 333.665L7.8272 333.595L7.99885 329.503L4.71674 329.366C3.80255 329.327 3.29038 329.726 3.25391 330.595L3.13947 333.323L1.46094 333.253L1.59613 330.03C1.64958 328.757 2.25492 327.926 3.1405 327.573C3.5071 327.423 3.94675 327.322 4.86095 327.36L8.08311 327.495L8.13782 326.191L9.81634 326.262L9.50572 333.665Z" fill="#0E2517"/>
<path d="M9.41164 337.307L4.44769 337.204C3.53288 337.186 3.02934 337.595 3.01144 338.465L2.95309 341.299L1.27344 341.265L1.34229 337.921C1.3673 336.706 1.90947 335.877 2.75794 335.474C3.13657 335.302 3.60425 335.177 4.54905 335.196L9.45301 335.297L9.41164 337.307Z" fill="#0E2517"/>
<path d="M9.33796 344.899L4.3731 344.936C3.45813 344.943 2.96642 345.382 2.97287 346.237L3.00306 350.242L1.32311 350.254L1.28918 345.755C1.27991 344.525 1.81345 343.666 2.63537 343.254C3.009 343.072 3.47297 342.933 4.41795 342.926L9.32281 342.889L9.33796 344.899ZM9.37788 350.194L5.223 350.225L5.20784 348.215L9.36273 348.184L9.37788 350.194Z" fill="#0E2517"/>
<path d="M9.5742 357.602L3.20412 357.852L3.24005 358.766L1.56134 358.832L1.44531 355.879L9.49409 355.563L9.5742 357.602Z" fill="#0E2517"/>
<path d="M9.92119 364.298L3.43028 362.426L3.74247 367.952L2.06514 368.047L1.63281 360.394L3.26521 360.302L9.80274 362.201L9.92119 364.298ZM12.0359 367.424L5.95555 367.767L5.84218 365.76L11.9225 365.417L12.0359 367.424Z" fill="#0E2517"/>
<path d="M10.4122 371.484L5.46451 371.898C4.55269 371.974 4.09568 372.449 4.16695 373.301L4.50081 377.292L2.82666 377.432L2.45153 372.948C2.349 371.722 2.81584 370.825 3.60421 370.353C3.9629 370.142 4.41503 369.969 5.35674 369.89L10.2447 369.481L10.4122 371.484ZM10.8536 376.761L6.71309 377.107L6.54553 375.104L10.6861 374.758L10.8536 376.761Z" fill="#0E2517"/>
<path d="M8.44995 381.068L4.91501 381.445L5.01208 382.355L3.34157 382.533L3.03125 379.624L8.2367 379.069L8.44995 381.068Z" fill="#0E2517"/>
<path d="M12.06 387.593L5.43525 385.94L5.93433 390.02L1.60162 390.55L1.35938 388.569L4.02451 388.243L3.50721 384.015L5.07055 383.824L11.8031 385.493L12.06 387.593Z" fill="#0E2517"/>
<path d="M12.7528 392.589L7.84159 393.318C6.93651 393.452 6.51074 393.955 6.63627 394.801L7.22429 398.762L5.56249 399.009L4.9018 394.558C4.72121 393.341 5.12983 392.416 5.88642 391.894C6.23093 391.661 6.67107 391.459 7.60583 391.32L12.4576 390.6L12.7528 392.589ZM13.5302 397.826L9.42023 398.436L9.12512 396.448L13.2351 395.838L13.5302 397.826Z" fill="#0E2517"/>
<path d="M284.235 674.1C284.899 674.225 285.51 674.462 286.011 674.8L285.671 676.613C285.193 676.234 284.572 675.964 283.908 675.84C282.346 675.546 281.262 676.197 281.029 677.436C280.844 678.423 281.329 679.171 282.302 679.354C282.73 679.434 283.167 679.379 283.536 679.204L283.526 680.881L281.157 682.847L284.297 683.437L283.982 685.118L278.453 684.079L278.711 682.708L281.141 680.738C279.648 680.32 278.742 679.051 279.082 677.238C279.517 674.923 281.596 673.604 284.235 674.1Z" fill="#0E2517"/>
<path d="M289.296 674.98C289.947 675.09 290.393 675.697 290.281 676.362C290.174 676.999 289.552 677.442 288.901 677.332C288.25 677.223 287.807 676.601 287.914 675.965C288.026 675.299 288.645 674.871 289.296 674.98Z" fill="#0E2517"/>
<path d="M298.868 676.664L298.655 678.088L294.174 682.106C293.474 682.73 293.164 683.184 293.084 683.718C292.963 684.534 293.483 685.112 294.344 685.241C294.833 685.314 295.258 685.21 295.555 684.951C295.917 684.656 296.068 684.254 296.156 683.767L298.01 684.043C297.688 686.103 296.105 687.262 293.939 686.939C292.04 686.656 290.908 685.396 291.171 683.63C291.326 682.592 291.896 681.721 293.419 680.356L296.045 678.002L292.291 677.443L292.548 675.722L298.868 676.664Z" fill="#0E2517"/>
<path d="M307.537 677.556C307.88 677.595 308.16 677.657 308.435 677.763L308.247 679.433C308.015 679.346 307.688 679.294 307.51 679.274C306.094 679.115 305.339 679.92 305.159 681.515C304.984 683.065 305.505 684.075 306.638 684.203C307.562 684.307 308.124 683.736 308.536 682.892C308.966 682.155 309.245 681.024 309.618 679.451L309.957 677.92L311.939 678.143C311.657 679.575 311.079 681.895 310.593 683.395L311.788 686.322L309.537 686.069L308.984 684.814C308.259 685.623 307.331 685.956 306.183 685.827C304.111 685.593 302.864 684.064 303.161 681.426C303.455 678.817 305.003 677.271 307.537 677.556Z" fill="#0E2517"/>
<path d="M318.91 678.608C321.677 678.825 323.439 680.724 323.212 683.61L322.93 687.214L321.031 687.065L321.292 683.73C321.317 683.416 321.324 683.131 321.285 682.857C319.951 682.993 319.328 683.636 319.215 685.087L319.072 686.911L317.217 686.766L317.367 684.851C317.528 682.803 318.583 681.817 320.863 681.53C320.441 680.774 319.694 680.324 318.736 680.249C316.957 680.11 315.67 681.363 315.508 683.427L315.258 686.612L313.359 686.463L313.623 683.098C313.851 680.197 315.979 678.378 318.91 678.608Z" fill="#0E2517"/>
<path d="M333.177 679.676C333.062 680.196 332.93 680.745 332.781 681.339C332.428 682.733 332.031 683.795 330.539 684.219L332.877 687.726L330.525 687.612L328.298 684.29C327.305 684.633 327.177 685.422 327.017 686.241C326.938 686.642 326.872 687.06 326.794 687.431L324.727 687.331C324.806 686.944 324.902 686.499 325.013 686.068C325.389 684.51 325.845 683.466 327.501 683.08L324.952 679.278L327.304 679.392L329.699 682.962C330.529 682.566 330.613 681.759 330.783 681.047C330.9 680.482 330.996 680.066 331.08 679.574L333.177 679.676Z" fill="#0E2517"/>
<path d="M341.605 679.898L341.563 681.578L337.47 681.477L337.389 684.761C337.366 685.676 337.774 686.181 338.644 686.202L341.373 686.27L341.332 687.949L338.108 687.87C336.833 687.838 335.992 687.248 335.624 686.368C335.468 686.004 335.358 685.566 335.381 684.652L335.46 681.428L334.156 681.396L334.197 679.716L341.605 679.898Z" fill="#0E2517"/>
<path d="M345.366 682.74L345.364 686.295H346.279L346.277 687.975L343.352 687.973L343.356 682.738L345.366 682.74Z" fill="#0E2517"/>
<path d="M355.379 679.775L355.519 687.829L350.749 687.911C349.52 687.932 348.67 687.407 348.251 686.589C348.05 686.218 347.907 685.755 347.89 684.81L347.805 679.906L355.379 679.775ZM353.399 681.489L349.829 681.551L349.886 684.836C349.902 685.751 350.345 686.238 351.2 686.223L353.48 686.184L353.399 681.489Z" fill="#0E2517"/>
<path d="M362.89 679.494L363.199 685.861L364.113 685.817L364.195 687.495L361.243 687.638L360.852 679.593L362.89 679.494Z" fill="#0E2517"/>
<path d="M373.019 678.829L373.574 686.864L368.83 687.192C367.603 687.277 366.728 686.796 366.252 686.002C366.047 685.64 365.88 685.186 365.815 684.243L365.477 679.35L367.482 679.211L367.824 684.164C367.887 685.077 368.356 685.541 369.208 685.482L371.453 685.327L371.014 678.967L373.019 678.829Z" fill="#0E2517"/>
<path d="M377.08 678.503L377.615 684.856L378.527 684.779L378.668 686.453L375.723 686.701L375.047 678.675L377.08 678.503Z" fill="#0E2517"/>
<path d="M383.188 677.677C383.531 677.638 383.818 677.635 384.109 677.678L384.299 679.347C384.053 679.314 383.724 679.337 383.545 679.357C382.129 679.518 381.573 680.471 381.754 682.066C381.93 683.616 382.663 684.484 383.795 684.356C384.719 684.251 385.14 683.569 385.353 682.654C385.608 681.84 385.627 680.676 385.64 679.059L385.628 677.49L387.61 677.265C387.655 678.724 387.609 681.115 387.47 682.685L389.289 685.272L387.038 685.527L386.219 684.428C385.693 685.378 384.862 685.91 383.715 686.04C381.643 686.276 380.087 685.063 379.787 682.425C379.491 679.817 380.654 677.964 383.188 677.677Z" fill="#0E2517"/>
<path d="M391.672 676.824L392.349 681.743C392.474 682.65 392.957 683.083 393.819 682.964L396.628 682.577L396.857 684.242L393.543 684.698C392.339 684.864 391.436 684.458 390.905 683.683C390.675 683.336 390.478 682.894 390.349 681.958L389.68 677.099L391.672 676.824Z" fill="#0E2517"/>
<path d="M399.742 678.492L400.305 682.003L401.208 681.858L401.474 683.517L398.586 683.979L397.758 678.81L399.742 678.492Z" fill="#0E2517"/>
<path d="M409.161 673.979L410.572 681.909L405.876 682.745C404.665 682.961 403.744 682.576 403.2 681.835C402.943 681.5 402.728 681.066 402.563 680.135L401.703 675.306L409.161 673.979ZM407.477 675.985L403.962 676.611L404.537 679.845C404.698 680.746 405.213 681.157 406.054 681.007L408.299 680.608L407.477 675.985Z" fill="#0E2517"/>
<path d="M676.354 395.988L677.776 396.219L681.734 400.754C682.348 401.462 682.798 401.778 683.331 401.865C684.145 401.997 684.73 401.485 684.87 400.626C684.95 400.137 684.852 399.711 684.597 399.411C684.307 399.045 683.907 398.889 683.42 398.794L683.721 396.944C685.777 397.293 686.915 398.892 686.563 401.054C686.255 402.949 684.979 404.063 683.218 403.777C682.181 403.608 681.318 403.027 679.973 401.486L677.655 398.829L677.046 402.575L675.328 402.295L676.354 395.988Z" fill="#0E2517"/>
<path d="M677.637 392.632C677.728 391.979 678.323 391.517 678.992 391.61C679.63 391.7 680.09 392.31 679.999 392.963C679.907 393.617 679.297 394.077 678.659 393.987C677.99 393.894 677.545 393.286 677.637 392.632Z" fill="#0E2517"/>
<path d="M678.074 383.022L679.503 383.199L683.631 387.579C684.272 388.262 684.734 388.561 685.27 388.628C686.089 388.729 686.654 388.194 686.76 387.331C686.821 386.839 686.707 386.417 686.441 386.127C686.137 385.772 685.731 385.632 685.242 385.556L685.472 383.695C687.539 383.966 688.738 385.52 688.469 387.693C688.233 389.599 687.001 390.761 685.23 390.542C684.188 390.413 683.303 389.866 681.9 388.377L679.482 385.811L679.016 389.577L677.289 389.364L678.074 383.022Z" fill="#0E2517"/>
<path d="M678.975 373.905L685.129 376.692L685.616 371.178L687.289 371.326L686.615 378.961L684.987 378.818L678.791 375.997L678.975 373.905ZM677.333 370.508L683.399 371.043L683.222 373.045L677.156 372.51L677.333 370.508Z" fill="#0E2517"/>
<path d="M679.53 366.73L684.486 367.038C685.399 367.094 685.919 366.706 685.973 365.838L686.149 363.008L687.826 363.112L687.618 366.451C687.543 367.664 686.967 368.469 686.102 368.836C685.717 368.993 685.244 369.099 684.301 369.04L679.406 368.736L679.53 366.73Z" fill="#0E2517"/>
<path d="M680.02 356.934L686.306 359.41L686.516 353.879L688.195 353.942L687.904 361.602L686.27 361.54L679.941 359.033L680.02 356.934ZM678.21 353.623L684.295 353.854L684.219 355.863L678.133 355.632L678.21 353.623Z" fill="#0E2517"/>
<path d="M680.269 344.304L681.949 344.321L681.937 345.506L681.925 346.676L688.325 344.206L688.303 346.396L682.114 348.703C682.305 349.11 682.663 349.339 683.351 349.496C684.174 349.744 685.778 349.85 686.948 349.862L688.268 349.875L688.247 351.945C687.812 351.941 687.362 351.936 686.747 351.915C685.877 351.891 684.798 351.835 683.974 351.707C681.338 351.276 680.211 349.974 680.243 346.794L680.269 344.304Z" fill="#0E2517"/>
<path d="M680.195 337.044L686.569 336.921L686.552 336.006L688.231 335.974L688.288 338.928L680.235 339.084L680.195 337.044Z" fill="#0E2517"/>
<path d="M679.867 327.712L681.546 327.648L681.705 331.785L687.895 326.848L687.983 329.141L685.012 331.507C685.43 332.227 686.196 332.242 686.995 332.347C687.372 332.377 687.734 332.423 688.11 332.454L688.192 334.567L686.908 334.362C685.488 334.146 684.38 333.828 683.817 332.454L681.56 334.252L680.121 334.308L679.867 327.712Z" fill="#0E2517"/>
<path d="M679.381 322.766C679.358 322.422 679.37 322.136 679.426 321.846L681.102 321.736C681.058 321.98 681.065 322.31 681.076 322.49C681.17 323.912 682.096 324.512 683.698 324.407C685.254 324.305 686.156 323.614 686.081 322.477C686.02 321.549 685.359 321.096 684.456 320.84C683.655 320.546 682.492 320.473 680.878 320.383L679.311 320.321L679.18 318.33C680.64 318.354 683.025 318.513 684.587 318.726L687.257 317.033L687.406 319.293L686.268 320.059C687.193 320.63 687.685 321.484 687.761 322.637C687.897 324.717 686.613 326.215 683.963 326.389C681.344 326.561 679.548 325.311 679.381 322.766Z" fill="#0E2517"/>
<path d="M678.406 308.767L686.425 308.013L686.871 312.747C686.986 313.972 686.527 314.859 685.745 315.354C685.388 315.568 684.938 315.746 683.997 315.835L679.114 316.294L678.925 314.293L683.869 313.828C684.78 313.742 685.232 313.263 685.152 312.412L684.941 310.172L678.594 310.769L678.406 308.767Z" fill="#0E2517"/>
<path d="M680.773 304.36L684.306 303.967L684.205 303.057L685.875 302.871L686.199 305.778L680.996 306.358L680.773 304.36Z" fill="#0E2517"/>
<path d="M680.188 299.694L683.711 299.227L683.591 298.32L685.258 298.099L685.641 300.999L680.453 301.687L680.188 299.694Z" fill="#0E2517"/>
<path d="M676.746 295.578L681.656 294.843C682.561 294.708 682.986 294.204 682.859 293.358L682.266 289.398L683.927 289.149L684.594 293.599C684.776 294.816 684.369 295.741 683.613 296.264C683.269 296.497 682.829 296.7 681.894 296.84L677.043 297.566L676.746 295.578ZM675.961 290.342L680.07 289.726L680.368 291.714L676.259 292.33L675.961 290.342Z" fill="#0E2517"/>
<path d="M364.787 11.5078L365.194 3.94374L363.352 3.84454L363.428 2.43658C364.671 2.50352 365.442 1.85404 365.811 0.867432L367.413 0.953732L366.839 11.6183L364.787 11.5078Z" fill="#0E2517"/>
<path d="M360.948 11.5189C360.288 11.4873 359.774 10.9371 359.806 10.2629C359.837 9.61863 360.402 9.10507 361.062 9.13663C361.721 9.16819 362.234 9.73339 362.204 10.3777C362.171 11.0519 361.607 11.5505 360.948 11.5189Z" fill="#0E2517"/>
<path d="M351.24 11.0022L351.278 9.56263L355.238 5.03026C355.857 4.3263 356.11 3.83778 356.124 3.29797C356.146 2.47326 355.559 1.96264 354.689 1.93975C354.195 1.92673 353.785 2.08102 353.522 2.3742C353.199 2.7108 353.098 3.12828 353.069 3.62272L351.195 3.57338C351.265 1.4895 352.696 0.146678 354.885 0.204298C356.804 0.254814 358.081 1.36878 358.034 3.15316C358.006 4.2028 357.546 5.13603 356.2 6.67615L353.88 9.33101L357.673 9.43085L357.627 11.1703L351.24 11.0022Z" fill="#0E2517"/>
<path d="M342.522 11.1839C342.177 11.1874 341.892 11.1603 341.606 11.0882L341.589 9.40828C341.829 9.46584 342.16 9.47749 342.34 9.47566C343.765 9.46119 344.415 8.56953 344.399 6.96461C344.383 5.40469 343.744 4.46614 342.604 4.47772C341.674 4.48717 341.185 5.12216 340.879 6.01032C340.542 6.79378 340.404 7.95024 340.225 9.55714L340.076 11.1187L338.081 11.139C338.186 9.68286 338.477 7.30978 338.777 5.76166L337.234 3.00219L339.498 2.97919L340.2 4.15712C340.821 3.26576 341.702 2.8218 342.857 2.81006C344.942 2.78889 346.366 4.15449 346.393 6.80935C346.419 9.43422 345.072 11.158 342.522 11.1839Z" fill="#0E2517"/>
<path d="M333.762 8.3584L333.627 4.80599L332.712 4.84089L332.648 3.16212L335.571 3.05054L335.771 8.28173L333.762 8.3584Z" fill="#0E2517"/>
<path d="M323.87 11.6826L323.445 3.63883L328.208 3.38693C329.436 3.32198 330.304 3.81687 330.752 4.61933C330.966 4.98351 331.126 5.44073 331.175 6.38441L331.434 11.2826L323.87 11.6826ZM325.788 9.89879L329.354 9.71026L329.18 6.42985C329.132 5.51612 328.671 5.04479 327.817 5.08994L325.541 5.21034L325.788 9.89879Z" fill="#0E2517"/>
</g>
<path d="M333.483 626.801C333.559 626.418 333.648 626.013 333.748 625.576C333.986 624.548 334.262 623.764 335.35 623.431L333.584 620.894L335.31 620.943L336.992 623.346C337.715 623.08 337.797 622.499 337.902 621.897C337.955 621.601 337.996 621.294 338.048 621.021L339.565 621.064C339.513 621.348 339.449 621.677 339.374 621.994C339.121 623.142 338.802 623.914 337.594 624.221L339.519 626.972L337.793 626.923L335.984 624.341C335.381 624.643 335.332 625.235 335.218 625.76C335.14 626.176 335.076 626.483 335.022 626.844L333.483 626.801ZM341.633 627.012L341.638 625.791L343.178 625.798C344.762 625.804 345.446 625.334 345.452 623.893C345.457 622.727 344.931 622.175 343.941 622.171C343.127 622.167 342.62 622.561 342.617 623.155C342.615 623.65 342.966 623.883 343.406 623.962L343.401 625.161C342.664 625.157 341.213 624.744 341.22 623.204C341.226 621.84 342.363 620.932 344.057 620.939C345.916 620.947 346.901 621.952 346.893 623.811C346.884 625.901 345.681 627.029 343.415 627.02L341.633 627.012ZM351.661 626.965L351.582 623.324C351.568 622.654 351.252 622.297 350.614 622.311L348.535 622.356L348.509 621.124L350.961 621.071C351.852 621.052 352.476 621.424 352.797 622.033C352.935 622.305 353.042 622.644 353.057 623.337L353.134 626.933L351.661 626.965ZM358.919 626.831C358.666 626.843 358.456 626.831 358.245 626.786L358.186 625.555C358.364 625.591 358.606 625.59 358.738 625.584C359.782 625.534 360.234 624.862 360.178 623.687C360.123 622.544 359.628 621.874 358.793 621.914C358.112 621.947 357.771 622.426 357.572 623.085C357.346 623.668 357.277 624.52 357.191 625.702L357.125 626.851L355.663 626.921C355.7 625.851 355.848 624.104 356.024 622.961L354.817 620.982L356.476 620.902L357.023 621.746C357.453 621.075 358.086 620.726 358.932 620.685C360.46 620.612 361.541 621.573 361.634 623.518C361.726 625.441 360.787 626.741 358.919 626.831Z" fill="#0E2517"/>
<path d="M319.32 530.779C319.423 530.402 319.54 530.005 319.67 529.575C319.98 528.567 320.309 527.803 321.417 527.548L319.832 524.894L321.551 525.063L323.061 527.577C323.801 527.362 323.924 526.788 324.07 526.195C324.143 525.904 324.206 525.6 324.277 525.331L325.788 525.48C325.716 525.76 325.629 526.083 325.532 526.394C325.2 527.522 324.828 528.27 323.601 528.492L325.33 531.37L323.611 531.201L321.987 528.499C321.364 528.758 321.273 529.346 321.123 529.862C321.017 530.271 320.932 530.573 320.852 530.93L319.32 530.779ZM330.745 531.85C330.492 531.836 330.284 531.803 330.079 531.737L330.144 530.507C330.317 530.56 330.559 530.584 330.69 530.591C331.734 530.647 332.252 530.024 332.314 528.849C332.375 527.706 331.951 526.99 331.116 526.945C330.435 526.909 330.048 527.351 329.783 527.987C329.499 528.545 329.345 529.385 329.139 530.552L328.958 531.688L327.497 531.611C327.641 530.55 327.964 528.827 328.255 527.707L327.254 525.616L328.913 525.705L329.372 526.599C329.868 525.976 330.533 525.692 331.378 525.737C332.905 525.818 333.884 526.884 333.78 528.828C333.678 530.75 332.612 531.949 330.745 531.85ZM336.243 529.903L336.3 527.297L335.629 527.282L335.656 526.051L337.801 526.097L337.717 529.935L336.243 529.903ZM340.607 529.975L340.612 527.368L339.941 527.367L339.944 526.135L342.089 526.139L342.081 529.978L340.607 529.975ZM346.964 531.948L348.451 527.223L344.394 527.354L344.355 526.123L349.973 525.941L350.011 527.14L348.503 531.899L346.964 531.948ZM344.635 533.443L344.491 528.98L345.964 528.932L346.108 533.396L344.635 533.443ZM358.477 531.299L358.167 527.671C358.109 527.003 357.772 526.667 357.136 526.722L355.065 526.899L354.96 525.671L357.404 525.462C358.292 525.386 358.938 525.717 359.297 526.305C359.452 526.568 359.58 526.899 359.639 527.59L359.945 531.173L358.477 531.299ZM362.133 530.97L361.989 529.746L364.972 529.397L364.692 527.004C364.614 526.337 364.265 526.013 363.632 526.087L361.643 526.32L361.5 525.096L363.849 524.821C364.778 524.712 365.449 525.055 365.807 525.655C365.958 525.903 366.083 526.21 366.161 526.876L366.436 529.225L367.386 529.114L367.53 530.337L362.133 530.97Z" fill="#0E2517"/>
<path d="M317.022 442.287L317.844 438.74C317.996 438.087 317.777 437.663 317.156 437.519L315.131 437.05L315.409 435.85L317.798 436.404C318.666 436.605 319.18 437.119 319.341 437.788C319.407 438.086 319.427 438.441 319.27 439.116L318.458 442.62L317.022 442.287ZM320.572 443.076L320.768 441.882L321.962 442.078C323.275 442.294 323.987 441.899 324.192 440.65C324.379 439.511 323.948 438.882 322.873 438.706L321.386 438.461L321.584 437.256L323.408 437.556C325.144 437.842 325.971 438.914 325.664 440.781C325.338 442.767 324.056 443.649 321.939 443.301L320.572 443.076ZM327.94 442.142L328.247 439.553L327.581 439.474L327.726 438.251L329.856 438.504L329.403 442.316L327.94 442.142ZM331.371 444.629L331.458 443.411L332.226 443.466C332.709 443.501 332.969 443.255 333.005 442.761L333.199 440.051L331.849 439.955L331.937 438.726L334.757 438.928L334.48 442.801C334.434 443.437 334.31 443.781 334.139 444.022C333.84 444.497 333.28 444.766 332.523 444.712L331.371 444.629ZM342.913 444.975L342.858 441.335C342.848 440.664 342.534 440.306 341.896 440.315L339.817 440.347L339.799 439.115L342.251 439.078C343.142 439.064 343.764 439.44 344.081 440.051C344.218 440.324 344.322 440.663 344.332 441.356L344.387 444.953L342.913 444.975ZM347.219 444.847L346.906 440.183L346.237 440.228L346.154 438.998L348.316 438.853L348.712 444.747L347.219 444.847ZM351.333 444.525L351.189 443.312L352.718 443.131C354.291 442.944 354.913 442.394 354.743 440.963C354.605 439.805 354.016 439.321 353.033 439.438C352.225 439.534 351.769 439.987 351.839 440.576C351.897 441.068 352.274 441.256 352.72 441.28L352.861 442.471C352.129 442.558 350.64 442.325 350.458 440.796C350.297 439.441 351.315 438.401 352.997 438.201C354.843 437.982 355.944 438.859 356.163 440.706C356.41 442.781 355.353 444.047 353.102 444.315L351.333 444.525ZM358.71 441.496L358.241 438.931L357.581 439.052L357.359 437.84L359.469 437.454L360.16 441.23L358.71 441.496ZM366.27 442.132C364.293 442.613 362.631 441.692 362.13 439.629L361.504 437.053L362.861 436.723L363.441 439.107C363.495 439.331 363.555 439.532 363.645 439.714C364.544 439.314 364.83 438.724 364.579 437.687L364.262 436.383L365.587 436.061L365.92 437.429C366.275 438.894 365.765 439.821 364.242 440.542C364.709 440.972 365.332 441.115 366.016 440.949C367.288 440.64 367.899 439.473 367.541 437.997L366.987 435.721L368.345 435.391L368.929 437.796C369.433 439.87 368.365 441.623 366.27 442.132Z" fill="#0E2517"/>
<path d="M332.431 379.486L333.833 376.126C334.091 375.507 333.947 375.053 333.358 374.807L331.439 374.007L331.914 372.87L334.177 373.814C335 374.157 335.42 374.75 335.467 375.437C335.483 375.742 335.443 376.094 335.176 376.734L333.791 380.054L332.431 379.486ZM335.772 380.691L336.013 379.494L337.523 379.798C339.076 380.11 339.837 379.78 340.121 378.367C340.351 377.224 339.942 376.581 338.971 376.386C338.173 376.226 337.599 376.514 337.482 377.097C337.384 377.582 337.684 377.878 338.1 378.04L337.864 379.215C337.141 379.07 335.798 378.385 336.101 376.875C336.37 375.538 337.661 374.866 339.321 375.2C341.144 375.566 341.917 376.742 341.551 378.565C341.14 380.614 339.741 381.489 337.519 381.042L335.772 380.691ZM343.017 381.952L343.191 377.28L342.521 377.255L342.567 376.024L344.732 376.105L344.511 382.008L343.017 381.952ZM349.879 381.585C347.867 381.894 346.291 380.833 345.969 378.735L345.568 376.114L346.949 375.903L347.32 378.327C347.355 378.556 347.398 378.761 347.471 378.95C348.401 378.629 348.738 378.065 348.576 377.011L348.373 375.684L349.721 375.478L349.935 376.869C350.163 378.359 349.575 379.239 347.995 379.826C348.423 380.295 349.032 380.491 349.728 380.384C351.022 380.186 351.731 379.076 351.501 377.575L351.146 375.259L352.526 375.048L352.901 377.494C353.225 379.603 352.01 381.259 349.879 381.585ZM358.442 379.259C358.208 379.356 358.006 379.415 357.792 379.444L357.322 378.305C357.501 378.279 357.729 378.197 357.851 378.146C358.817 377.747 359.017 376.963 358.567 375.875C358.131 374.817 357.439 374.353 356.666 374.672C356.036 374.933 355.877 375.498 355.911 376.186C355.896 376.812 356.117 377.637 356.434 378.779L356.759 379.883L355.407 380.441C355.081 379.421 354.631 377.727 354.412 376.591L352.608 375.135L354.144 374.5L354.943 375.111C355.122 374.334 355.6 373.792 356.383 373.468C357.796 372.885 359.138 373.425 359.882 375.225C360.617 377.004 360.17 378.545 358.442 379.259Z" fill="#0E2517"/>
</g>
<defs>
<clipPath id="clip0_1669_2728">
<rect width="690" height="691" fill="white"/>
</clipPath>
</defs>
</svg>
