<svg width="690" height="691" viewBox="0 0 690 691" fill="none" xmlns="http://www.w3.org/2000/svg">
<path d="M344.996 670.5C524.212 670.5 669.496 525.216 669.496 346C669.496 166.784 524.212 21.5 344.996 21.5C165.78 21.5 20.4961 166.784 20.4961 346C20.4961 525.216 165.78 670.5 344.996 670.5Z" fill="#F4F4F4" stroke="#D4D7D6"/>
<path d="M344.996 576.5C472.298 576.5 575.496 473.302 575.496 346C575.496 218.698 472.298 115.5 344.996 115.5C217.694 115.5 114.496 218.698 114.496 346C114.496 473.302 217.694 576.5 344.996 576.5Z" stroke="#CFD3D1"/>
<path d="M344.997 483.534C420.955 483.534 482.531 421.958 482.531 346C482.531 270.042 420.955 208.466 344.997 208.466C269.039 208.466 207.463 270.042 207.463 346C207.463 421.958 269.039 483.534 344.997 483.534Z" stroke="#0E2517" stroke-opacity="0.2" stroke-width="0.932432"/>
<path d="M344.996 289.5C376.2 289.5 401.496 314.796 401.496 346C401.496 377.204 376.2 402.5 344.996 402.5C313.792 402.5 288.496 377.204 288.496 346C288.496 314.796 313.792 289.5 344.996 289.5Z" stroke="#0E2517" stroke-opacity="0.2"/>
<path d="M331.863 626.144C331.94 625.761 332.028 625.357 332.129 624.919C332.367 623.892 332.642 623.107 333.73 622.775L331.964 620.238L333.69 620.287L335.372 622.689C336.095 622.424 336.177 621.843 336.283 621.24C336.335 620.945 336.377 620.638 336.428 620.364L337.946 620.407C337.894 620.692 337.829 621.02 337.754 621.337C337.502 622.485 337.183 623.258 335.975 623.565L337.9 626.315L336.173 626.266L334.365 623.684C333.762 623.986 333.712 624.579 333.598 625.104C333.52 625.52 333.457 625.826 333.402 626.188L331.863 626.144ZM340.013 626.355L340.018 625.134L341.558 625.141C343.142 625.148 343.826 624.678 343.833 623.237C343.837 622.071 343.312 621.518 342.322 621.514C341.508 621.511 341 621.905 340.998 622.499C340.996 622.994 341.347 623.226 341.786 623.305L341.781 624.504C341.044 624.501 339.594 624.088 339.6 622.548C339.606 621.184 340.743 620.275 342.437 620.283C344.296 620.291 345.282 621.296 345.274 623.155C345.265 625.245 344.061 626.373 341.795 626.363L340.013 626.355ZM350.041 626.308L349.963 622.668C349.948 621.997 349.632 621.641 348.995 621.654L346.916 621.699L346.89 620.467L349.342 620.415C350.233 620.395 350.857 620.767 351.178 621.376C351.316 621.648 351.422 621.987 351.437 622.68L351.515 626.276L350.041 626.308ZM357.3 626.175C357.047 626.187 356.837 626.175 356.626 626.13L356.567 624.899C356.745 624.935 356.987 624.934 357.119 624.928C358.162 624.878 358.615 624.206 358.558 623.031C358.504 621.888 358.009 621.218 357.174 621.258C356.493 621.291 356.152 621.769 355.953 622.429C355.727 623.012 355.658 623.863 355.572 625.046L355.505 626.194L354.044 626.264C354.081 625.194 354.228 623.447 354.405 622.305L353.198 620.325L354.857 620.246L355.404 621.089C355.834 620.419 356.467 620.069 357.313 620.029C358.841 619.956 359.922 620.917 360.015 622.862C360.107 624.785 359.167 626.085 357.3 626.175Z" fill="#0E2517"/>
<path d="M325.276 539.124L325.632 535.5C325.697 534.832 325.415 534.44 324.791 534.379L321.868 534.092L321.989 532.866L325.273 533.188C326.171 533.276 326.756 533.732 326.993 534.363C327.097 534.649 327.162 534.998 327.095 535.688L326.743 539.268L325.276 539.124ZM321.412 538.744L321.709 535.712L323.176 535.856L322.879 538.888L321.412 538.744ZM332.51 539.781C332.257 539.768 332.049 539.735 331.844 539.669L331.909 538.438C332.083 538.492 332.324 538.515 332.455 538.522C333.499 538.578 334.017 537.956 334.079 536.78C334.14 535.638 333.716 534.921 332.881 534.877C332.2 534.841 331.813 535.283 331.547 535.919C331.264 536.476 331.11 537.316 330.904 538.484L330.723 539.62L329.262 539.542C329.406 538.481 329.729 536.758 330.02 535.639L329.019 533.548L330.678 533.636L331.137 534.531C331.632 533.907 332.298 533.623 333.143 533.668C334.67 533.749 335.649 534.815 335.545 536.759C335.443 538.681 334.377 539.88 332.51 539.781ZM338.009 537.835L338.066 535.229L337.395 535.214L337.422 533.982L339.566 534.029L339.482 537.868L338.009 537.835ZM342.372 537.907L342.378 535.3L341.707 535.299L341.71 534.067L343.855 534.072L343.846 537.911L342.372 537.907ZM348.729 539.882L350.217 535.157L346.16 535.287L346.121 534.056L351.739 533.876L351.777 535.074L350.268 539.833L348.729 539.882ZM346.399 541.377L346.256 536.913L347.73 536.866L347.873 541.329L346.399 541.377ZM360.242 539.236L359.933 535.608C359.876 534.939 359.538 534.604 358.903 534.658L356.831 534.834L356.727 533.607L359.171 533.399C360.059 533.323 360.705 533.654 361.064 534.242C361.219 534.505 361.347 534.836 361.406 535.527L361.711 539.111L360.242 539.236ZM363.898 538.908L363.755 537.684L366.738 537.336L366.459 534.943C366.381 534.277 366.033 533.952 365.399 534.026L363.411 534.258L363.268 533.034L365.617 532.76C366.546 532.652 367.217 532.994 367.575 533.595C367.726 533.843 367.85 534.149 367.928 534.816L368.202 537.165L369.153 537.054L369.295 538.278L363.898 538.908Z" fill="#0E2517"/>
<path d="M319.815 451.219L320.637 447.672C320.788 447.019 320.57 446.596 319.949 446.452L317.924 445.982L318.202 444.782L320.591 445.336C321.459 445.537 321.972 446.051 322.133 446.721C322.2 447.018 322.219 447.373 322.063 448.048L321.251 451.552L319.815 451.219ZM323.365 452.008L323.561 450.814L324.755 451.011C326.068 451.227 326.78 450.831 326.985 449.583C327.172 448.443 326.741 447.815 325.666 447.638L324.179 447.393L324.377 446.188L326.201 446.488C327.937 446.774 328.764 447.846 328.457 449.713C328.131 451.7 326.849 452.581 324.732 452.233L323.365 452.008ZM330.733 451.074L331.04 448.486L330.374 448.406L330.519 447.183L332.649 447.436L332.196 451.248L330.733 451.074ZM334.164 453.562L334.251 452.344L335.019 452.399C335.502 452.433 335.762 452.187 335.798 451.693L335.992 448.983L334.642 448.887L334.73 447.658L337.55 447.86L337.273 451.733C337.227 452.369 337.103 452.713 336.932 452.955C336.633 453.43 336.073 453.698 335.316 453.644L334.164 453.562ZM345.706 453.908L345.651 450.267C345.641 449.596 345.327 449.238 344.689 449.248L342.61 449.279L342.592 448.047L345.044 448.01C345.935 447.997 346.557 448.372 346.874 448.983C347.011 449.256 347.115 449.596 347.125 450.289L347.18 453.885L345.706 453.908ZM350.012 453.779L349.699 449.115L349.03 449.16L348.947 447.931L351.109 447.786L351.504 453.679L350.012 453.779ZM354.126 453.457L353.982 452.244L355.511 452.063C357.084 451.876 357.706 451.326 357.536 449.895C357.398 448.737 356.809 448.253 355.826 448.37C355.018 448.466 354.562 448.919 354.632 449.509C354.69 450 355.067 450.188 355.513 450.213L355.654 451.403C354.922 451.49 353.433 451.257 353.251 449.728C353.09 448.373 354.108 447.333 355.79 447.134C357.636 446.914 358.737 447.792 358.956 449.638C359.203 451.713 358.146 452.98 355.895 453.247L354.126 453.457ZM361.503 450.428L361.034 447.863L360.374 447.984L360.152 446.772L362.262 446.386L362.953 450.162L361.503 450.428ZM369.063 451.065C367.086 451.545 365.424 450.624 364.923 448.562L364.297 445.985L365.654 445.656L366.234 448.039C366.288 448.264 366.348 448.464 366.438 448.646C367.337 448.247 367.623 447.656 367.371 446.619L367.055 445.315L368.38 444.993L368.712 446.361C369.068 447.826 368.558 448.754 367.035 449.475C367.502 449.904 368.125 450.047 368.809 449.881C370.081 449.572 370.692 448.405 370.334 446.93L369.78 444.653L371.138 444.323L371.722 446.728C372.226 448.802 371.158 450.556 369.063 451.065Z" fill="#0E2517"/>
<path d="M331.224 378.419L332.626 375.059C332.884 374.439 332.74 373.986 332.151 373.74L330.232 372.94L330.707 371.803L332.97 372.747C333.793 373.09 334.213 373.683 334.26 374.37C334.276 374.674 334.236 375.027 333.969 375.667L332.584 378.986L331.224 378.419ZM334.565 379.624L334.806 378.427L336.316 378.73C337.868 379.042 338.63 378.713 338.914 377.3C339.144 376.157 338.734 375.514 337.764 375.319C336.966 375.158 336.392 375.447 336.275 376.029C336.177 376.515 336.477 376.81 336.893 376.973L336.657 378.148C335.934 378.003 334.591 377.318 334.894 375.808C335.163 374.471 336.454 373.799 338.114 374.133C339.937 374.499 340.71 375.675 340.344 377.498C339.933 379.547 338.534 380.421 336.312 379.975L334.565 379.624ZM341.809 380.885L341.984 376.213L341.314 376.188L341.36 374.957L343.525 375.038L343.304 380.941L341.809 380.885ZM348.672 380.518C346.66 380.826 345.084 379.766 344.762 377.667L344.361 375.047L345.742 374.835L346.113 377.26C346.148 377.488 346.191 377.693 346.264 377.882C347.194 377.562 347.531 376.998 347.369 375.944L347.166 374.617L348.514 374.41L348.728 375.802C348.956 377.292 348.367 378.172 346.788 378.759C347.216 379.228 347.825 379.424 348.521 379.317C349.815 379.119 350.524 378.008 350.294 376.508L349.939 374.192L351.319 373.98L351.694 376.427C352.018 378.536 350.803 380.191 348.672 380.518ZM357.235 378.192C357.001 378.288 356.799 378.348 356.585 378.377L356.115 377.238C356.294 377.212 356.522 377.129 356.644 377.079C357.61 376.68 357.81 375.895 357.36 374.808C356.924 373.75 356.232 373.286 355.459 373.605C354.829 373.866 354.67 374.431 354.704 375.119C354.689 375.744 354.91 376.569 355.227 377.712L355.552 378.815L354.2 379.374C353.874 378.354 353.424 376.659 353.205 375.524L351.401 374.067L352.937 373.433L353.736 374.043C353.915 373.267 354.393 372.724 355.176 372.401C356.589 371.817 357.931 372.358 358.675 374.158C359.41 375.937 358.963 377.478 357.235 378.192Z" fill="#0E2517"/>
<path d="M36.2203 211.876C35.9011 212.605 35.4926 213.163 34.9984 213.617L33.3843 212.779C33.9077 212.369 34.3359 211.804 34.613 211.172C35.2334 209.757 34.8436 208.554 33.6896 208.048C32.7967 207.657 31.9419 207.888 31.5444 208.794C31.3336 209.275 31.3331 209.799 31.5243 210.26L30.4782 211.226L25.7031 208.706L27.7751 203.981L29.3275 204.661L27.9361 207.835L29.8815 208.851C29.8981 208.515 29.9877 208.161 30.1503 207.79C30.8912 206.1 32.5082 205.401 34.3216 206.196C36.4784 207.142 37.2744 209.472 36.2203 211.876Z" fill="#0E2517"/>
<path d="M34.1761 216.595C33.9193 217.203 33.2256 217.496 32.6038 217.234C32.0096 216.983 31.7223 216.275 31.9791 215.667C32.2359 215.059 32.9434 214.772 33.5376 215.023C34.1594 215.286 34.4329 215.987 34.1761 216.595Z" fill="#0E2517"/>
<path d="M30.3858 226.127C30.2634 226.449 30.1342 226.705 29.963 226.945L28.3923 226.349C28.5335 226.146 28.6646 225.843 28.7285 225.675C29.2341 224.342 28.6408 223.411 27.1402 222.842C25.6817 222.288 24.5747 222.542 24.1702 223.608C23.8402 224.477 24.2536 225.164 24.9693 225.772C25.5762 226.371 26.6028 226.921 28.0342 227.673L29.4342 228.381L28.7264 230.246C27.4086 229.618 25.3046 228.482 23.9718 227.64L20.8398 228.072L21.6434 225.954L22.9961 225.729C22.3922 224.826 22.2995 223.845 22.7093 222.765C23.449 220.815 25.2395 219.987 27.7218 220.929C30.176 221.86 31.2905 223.743 30.3858 226.127Z" fill="#0E2517"/>
<path d="M25.6452 238.642L24.0606 238.084L25.4359 234.179L17.8633 236.49L18.6257 234.325L22.2593 233.219C22.1356 232.397 21.429 232.1 20.724 231.709C20.3852 231.542 20.0656 231.365 19.7269 231.198L20.4294 229.203L21.5473 229.868C22.7876 230.591 23.7008 231.294 23.7184 232.779L26.4794 231.939L27.8377 232.417L25.6452 238.642Z" fill="#0E2517"/>
<path d="M24.4664 242.24L18.3969 240.29L18.1171 241.161L16.5176 240.648L17.4215 237.834L25.0904 240.298L24.4664 242.24Z" fill="#0E2517"/>
<path d="M20.3508 245.87L16.9619 244.796L16.6855 245.668L15.084 245.161L15.9677 242.373L20.9581 243.954L20.3508 245.87Z" fill="#0E2517"/>
<path d="M18.9938 250.374L15.5825 249.374L15.325 250.252L13.7129 249.779L14.5359 246.972L19.5594 248.445L18.9938 250.374Z" fill="#0E2517"/>
<path d="M19.9164 257.537L18.3139 257.085L18.5987 256.075C18.7777 255.439 18.5208 255.024 17.8711 254.841L14.305 253.836L13.8045 255.612L12.1875 255.156L13.2333 251.445L18.3297 252.882C19.1671 253.118 19.5925 253.378 19.8676 253.674C20.4196 254.203 20.6245 255.025 20.3437 256.021L19.9164 257.537Z" fill="#0E2517"/>
<path d="M18.9256 261.113L12.765 259.473L12.5297 260.357L10.9062 259.925L11.6664 257.069L19.4503 259.141L18.9256 261.113Z" fill="#0E2517"/>
<path d="M16.5376 271.277C16.4672 271.568 16.343 271.955 16.1133 272.332L14.5676 271.959C14.6571 271.78 14.732 271.597 14.7954 271.335C14.9502 270.693 14.8552 270.192 13.7033 269.914L10.3933 269.115L9.971 270.865L8.33789 270.47L9.79128 264.448C10.0869 263.223 10.8381 262.541 11.7059 262.333C12.0981 262.243 12.5928 262.239 13.4969 262.457L18.2795 263.611L17.808 265.565L12.9815 264.4C12.0921 264.186 11.5124 264.478 11.3118 265.309L10.8649 267.161L14.4373 268.023C16.6536 268.558 16.8649 269.921 16.5376 271.277Z" fill="#0E2517"/>
<path d="M103.165 581.418L101.588 582.959L105.026 586.478L103.835 587.642L96.3012 589.675L94.7812 588.119L102.294 586.086L100.386 584.133L99.1199 585.37L97.778 584.017L99.0549 582.77L98.342 582.04L99.5439 580.866L100.256 581.596L101.834 580.055L103.165 581.418Z" fill="#0E2517"/>
<path d="M108.966 586.965C109.439 587.425 109.46 588.178 108.989 588.661C108.539 589.124 107.775 589.134 107.302 588.673C106.829 588.213 106.819 587.449 107.269 586.987C107.74 586.504 108.493 586.504 108.966 586.965Z" fill="#0E2517"/>
<path d="M119.46 596.96C119.681 597.163 119.96 597.459 120.178 597.842L119.103 599.014C118.989 598.849 118.866 598.695 118.667 598.512C118.181 598.066 117.696 597.906 116.895 598.779L114.593 601.288L115.919 602.505L114.783 603.743L110.219 599.554C109.29 598.702 109.057 597.714 109.296 596.854C109.407 596.467 109.643 596.032 110.272 595.347L113.599 591.723L115.08 593.082L111.722 596.74C111.104 597.414 111.078 598.062 111.708 598.64L113.112 599.929L115.597 597.221C117.138 595.541 118.433 596.017 119.46 596.96Z" fill="#0E2517"/>
<path d="M126.427 603.209L125.336 604.466L123.75 603.09C122.118 601.675 120.993 601.552 119.705 603.037C118.663 604.238 118.716 605.276 119.736 606.161C120.574 606.888 121.449 606.932 121.98 606.32C122.422 605.811 122.266 605.258 121.882 604.786L122.953 603.551C123.712 604.209 124.844 605.926 123.468 607.512C122.249 608.917 120.266 608.845 118.521 607.331C116.606 605.67 116.481 603.754 118.143 601.839C120.01 599.687 122.258 599.591 124.592 601.616L126.427 603.209Z" fill="#0E2517"/>
<path d="M133.847 609.348L132.781 610.646L131.865 609.894L130.961 609.151L128.873 615.686L127.181 614.296L129.263 608.028C128.827 607.921 128.424 608.057 127.87 608.495C127.161 608.98 126.073 610.163 125.33 611.067L124.492 612.087L122.893 610.773C123.169 610.436 123.454 610.089 123.856 609.623C124.42 608.96 125.141 608.155 125.757 607.593C127.746 605.811 129.466 605.749 131.924 607.767L133.847 609.348Z" fill="#0E2517"/>
<path d="M136.906 611.779L132.961 616.787L133.679 617.353L132.639 618.672L130.318 616.843L135.304 610.517L136.906 611.779Z" fill="#0E2517"/>
<path d="M142.395 616.009L136.581 619.59L139.847 622.086L137.197 625.554L135.612 624.343L137.242 622.209L133.857 619.623L134.813 618.371L140.714 614.725L142.395 616.009Z" fill="#0E2517"/>
<path d="M149.274 621.066L145.529 626.224L146.27 626.762L145.283 628.122L142.891 626.386L147.623 619.867L149.274 621.066Z" fill="#0E2517"/>
<path d="M157.929 626.906C158.177 627.075 158.494 627.328 158.765 627.676L157.869 628.989C157.733 628.842 157.589 628.707 157.366 628.555C156.821 628.183 156.318 628.094 155.65 629.073L153.73 631.885L155.217 632.9L154.269 634.287L149.153 630.794C148.113 630.084 147.74 629.139 147.854 628.254C147.908 627.856 148.08 627.392 148.604 626.623L151.379 622.56L153.039 623.694L150.239 627.794C149.723 628.55 149.791 629.195 150.497 629.677L152.07 630.752L154.142 627.717C155.428 625.834 156.777 626.119 157.929 626.906Z" fill="#0E2517"/>
<path d="M166.508 632.597L162.159 639.377L158.157 636.811C157.121 636.147 156.706 635.239 156.798 634.318C156.848 633.905 156.986 633.44 157.496 632.645L160.144 628.516L161.836 629.601L159.156 633.78C158.662 634.551 158.761 635.202 159.48 635.664L161.374 636.878L164.816 631.512L166.508 632.597Z" fill="#0E2517"/>
<path d="M170.289 634.949C169.924 636.486 169.552 638.089 168.883 639.175C168.403 639.954 167.832 640.395 167.251 640.565L168.528 641.352L167.647 642.783L163.611 640.296L164.493 638.866L165.348 639.393C166.064 639.834 166.669 639.537 167.063 638.899C167.621 637.992 167.937 636.107 168.374 633.769L170.289 634.949Z" fill="#0E2517"/>
<path d="M175.067 637.803L171.857 643.311L172.647 643.771L171.801 645.223L169.248 643.735L173.304 636.776L175.067 637.803Z" fill="#0E2517"/>
<path d="M180.901 641.112L175.83 645.575L180.655 648.286L179.832 649.75L173.15 645.996L173.951 644.57L179.07 640.083L180.901 641.112ZM184.674 641.012L181.69 646.321L179.938 645.336L182.921 640.027L184.674 641.012Z" fill="#0E2517"/>
<path d="M187.218 644.57L184.905 648.963C184.478 649.773 184.633 650.414 185.389 650.812L188.933 652.678L188.15 654.165L184.168 652.068C183.08 651.495 182.575 650.619 182.601 649.7C182.617 649.284 182.714 648.81 183.154 647.974L185.44 643.634L187.218 644.57ZM191.903 647.037L189.967 650.714L188.189 649.777L190.125 646.101L191.903 647.037Z" fill="#0E2517"/>
<path d="M525.818 631.438C526.39 631.079 527 630.838 527.597 630.746L528.579 632.308C527.97 632.354 527.331 632.578 526.76 632.937C525.413 633.783 525.06 634.997 525.73 636.064C526.265 636.915 527.129 637.134 527.967 636.607C528.336 636.376 528.619 636.038 528.771 635.659L529.903 636.897L529.5 639.949L532.205 638.249L533.115 639.697L528.352 642.69L527.61 641.508L528.056 638.412C526.676 639.119 525.148 638.803 524.167 637.241C522.914 635.247 523.545 632.867 525.818 631.438Z" fill="#0E2517"/>
<path d="M529.896 628.82C530.451 628.462 531.189 628.609 531.556 629.176C531.906 629.718 531.746 630.464 531.192 630.823C530.638 631.181 529.891 631.021 529.541 630.48C529.174 629.913 529.342 629.179 529.896 628.82Z" fill="#0E2517"/>
<path d="M541.197 621.367L542.154 622.748L538.788 625.081L540.66 627.781C541.181 628.533 541.808 628.7 542.523 628.205L544.767 626.65L545.724 628.031L543.073 629.867C542.025 630.594 540.998 630.612 540.182 630.119C539.841 629.917 539.495 629.628 538.973 628.876L537.136 626.225L536.064 626.969L535.107 625.588L541.197 621.367Z" fill="#0E2517"/>
<path d="M545.906 621.44L548.004 624.31L548.743 623.771L549.734 625.127L547.373 626.853L544.283 622.627L545.906 621.44Z" fill="#0E2517"/>
<path d="M551.781 613.505L552.794 614.846L549.49 617.341L557.078 619.599L555.247 620.982L551.607 619.896C551.256 620.65 551.681 621.288 552.052 622.004C552.242 622.33 552.411 622.653 552.601 622.98L550.913 624.254L550.348 623.083C549.714 621.795 549.342 620.704 550.148 619.457L547.382 618.632L546.514 617.483L551.781 613.505Z" fill="#0E2517"/>
<path d="M554.77 611.186L558.692 616.212L559.413 615.649L560.446 616.974L558.116 618.792L553.162 612.44L554.77 611.186Z" fill="#0E2517"/>
<path d="M562.612 604.821L563.676 606.121L562.759 606.871L561.854 607.612L567.853 610.94L566.159 612.327L560.42 609.058C560.23 609.465 560.284 609.886 560.605 610.515C560.942 611.305 561.889 612.604 562.63 613.51L563.466 614.531L561.864 615.842C561.588 615.506 561.303 615.158 560.926 614.672C560.386 613.989 559.737 613.125 559.307 612.411C557.948 610.111 558.224 608.412 560.685 606.398L562.612 604.821Z" fill="#0E2517"/>
<path d="M676.836 282.505L678.252 282.245L683.505 285.183C684.322 285.643 684.852 285.789 685.383 285.692C686.195 285.542 686.573 284.863 686.416 284.007C686.326 283.52 686.09 283.152 685.749 282.955C685.353 282.708 684.924 282.695 684.434 282.77L684.095 280.926C686.148 280.564 687.758 281.686 688.154 283.84C688.501 285.728 687.675 287.207 685.92 287.53C684.887 287.72 683.879 287.463 682.094 286.464L679.017 284.743L679.703 288.475L677.992 288.79L676.836 282.505Z" fill="#0E2517"/>
<path d="M675.969 279.251C675.836 278.605 676.241 277.97 676.902 277.834C677.533 277.704 678.172 278.123 678.305 278.77C678.439 279.416 678.019 280.054 677.387 280.184C676.726 280.321 676.103 279.898 675.969 279.251Z" fill="#0E2517"/>
<path d="M673.051 265.403L674.686 265.015L674.959 266.168L675.23 267.306L680.847 263.368L681.353 265.499L675.901 269.228C676.185 269.577 676.587 269.713 677.293 269.699C678.151 269.742 679.733 269.459 680.872 269.189L682.156 268.885L682.634 270.899C682.211 270.999 681.773 271.103 681.171 271.23C680.321 271.417 679.26 271.622 678.43 271.696C675.767 271.911 674.36 270.919 673.626 267.825L673.051 265.403Z" fill="#0E2517"/>
<path d="M674.875 261.135L678.316 260.242L678.086 259.357L679.713 258.935L680.447 261.766L675.38 263.08L674.875 261.135Z" fill="#0E2517"/>
<path d="M669.646 252.756L671.265 252.305L672.375 256.293L677.258 250.06L677.872 252.271L675.529 255.26C676.102 255.863 676.851 255.701 677.653 255.618C678.026 255.561 678.389 255.522 678.762 255.465L679.33 257.502L678.033 257.599C676.602 257.717 675.451 257.664 674.585 256.457L672.804 258.727L671.417 259.114L669.646 252.756Z" fill="#0E2517"/>
<path d="M668.586 249.121L674.698 247.31L674.438 246.432L676.049 245.955L676.888 248.788L669.165 251.077L668.586 249.121Z" fill="#0E2517"/>
<path d="M665.842 240.471L667.442 239.958L668.694 243.856L671.821 242.852C672.693 242.572 673.035 242.021 672.769 241.192L671.935 238.593L673.534 238.079L674.52 241.15C674.91 242.364 674.629 243.352 673.92 243.99C673.628 244.257 673.25 244.504 672.379 244.784L669.309 245.77L669.708 247.013L668.108 247.526L665.842 240.471Z" fill="#0E2517"/>
<path d="M663.543 233.712L669.546 231.567L669.238 230.705L670.82 230.14L671.815 232.922L664.229 235.633L663.543 233.712Z" fill="#0E2517"/>
<path d="M659.797 223.967C659.691 223.686 659.577 223.297 659.555 222.856L661.043 222.296C661.07 222.495 661.11 222.688 661.205 222.94C661.438 223.558 661.798 223.919 662.907 223.502L666.094 222.304L665.461 220.619L667.033 220.027L669.214 225.826C669.657 227.005 669.42 227.992 668.818 228.651C668.545 228.946 668.137 229.228 667.267 229.555L662.662 231.287L661.954 229.406L666.602 227.658C667.458 227.336 667.773 226.768 667.472 225.968L666.802 224.185L663.362 225.479C661.228 226.281 660.288 225.273 659.797 223.967Z" fill="#0E2517"/>
<path d="M656.703 215.981L658.231 215.358L658.854 216.886C659.539 218.566 660.507 219.112 662.104 218.46C663.563 217.866 663.985 216.916 663.425 215.541L662.649 213.638L664.191 213.009L665.142 215.343C666.048 217.565 665.391 219.291 663.002 220.265C660.46 221.301 658.521 220.439 657.417 217.731L656.703 215.981Z" fill="#0E2517"/>
<path d="M654.441 210.766L655.971 210.108L656.386 211.073C656.646 211.679 657.107 211.84 657.728 211.573L661.131 210.11L660.403 208.415L661.946 207.752L663.469 211.293L658.604 213.384C657.805 213.728 657.311 213.794 656.911 213.737C656.148 213.673 655.472 213.164 655.063 212.213L654.441 210.766Z" fill="#0E2517"/>
<path d="M652.971 207.36L658.795 204.768L658.423 203.932L659.958 203.249L661.159 205.948L653.8 209.223L652.971 207.36Z" fill="#0E2517"/>
<path d="M649.236 203.883L656.759 200.353L656.345 199.471L657.866 198.757L659.147 201.486L650.103 205.73L649.236 203.883Z" fill="#0E2517"/>
<path d="M403.407 13.9425L404.735 6.48466L402.918 6.16143L403.165 4.77323C404.391 4.99135 405.235 4.4408 405.722 3.50653L407.302 3.78772L405.431 14.3025L403.407 13.9425Z" fill="#0E2517"/>
<path d="M398.402 13.3266C397.749 13.2266 397.295 12.6259 397.397 11.9586C397.495 11.3211 398.11 10.8691 398.763 10.9691C399.415 11.069 399.867 11.6846 399.77 12.3222C399.667 12.9894 399.054 13.4265 398.402 13.3266Z" fill="#0E2517"/>
<path d="M393.189 12.363L393.862 7.44377C393.986 6.53721 393.622 5.98783 392.775 5.87196L388.807 5.32923L389.034 3.66473L393.493 4.27454C394.711 4.44122 395.485 5.09211 395.775 5.96438C395.902 6.36031 395.973 6.83932 395.845 7.7756L395.18 12.6353L393.189 12.363ZM387.943 11.6454L388.506 7.52875L390.497 7.80113L389.934 11.9178L387.943 11.6454Z" fill="#0E2517"/>
<path d="M380.064 10.7463L380.245 9.10639L381.885 9.28809C383.689 9.48797 384.63 8.89798 384.82 7.18347C384.993 5.61805 384.36 4.79332 382.884 4.62978L380.842 4.40348L381.025 2.7486L383.53 3.02612C385.915 3.29042 387.118 4.69142 386.834 7.25573C386.532 9.98404 384.849 11.2766 381.942 10.9545L380.064 10.7463Z" fill="#0E2517"/>
<path d="M374.398 10.2394L374.552 8.58156L375.597 8.67844C376.254 8.73934 376.616 8.41132 376.679 7.7392L377.02 4.05L375.183 3.87977L375.338 2.20694L379.177 2.56263L378.688 7.83504C378.608 8.70133 378.429 9.16683 378.188 9.49098C377.768 10.1299 376.997 10.4803 375.966 10.3848L374.398 10.2394Z" fill="#0E2517"/>
<path d="M370.705 9.91604L371.191 3.55959L370.279 3.48984L370.407 1.81473L373.353 2.04L372.739 10.0716L370.705 9.91604Z" fill="#0E2517"/>
<path d="M360.276 9.41005C359.976 9.39352 359.574 9.34124 359.162 9.1833L359.249 7.59572C359.441 7.65139 359.634 7.69209 359.904 7.70697C360.563 7.74335 361.039 7.55929 361.104 6.37609L361.292 2.97627L359.495 2.87707L359.587 1.19962L365.773 1.54104C367.031 1.61048 367.838 2.2259 368.199 3.04202C368.359 3.41139 368.452 3.89727 368.401 4.82586L368.13 9.73838L366.123 9.62761L366.396 4.67015C366.447 3.75654 366.055 3.23915 365.201 3.19203L363.299 3.08704L363.096 6.75646C362.971 9.03299 361.669 9.48693 360.276 9.41005Z" fill="#0E2517"/>
<path d="M352.05 9.03986L352.214 2.66696L351.299 2.64347L351.343 0.96402L354.297 1.03989L354.09 9.09223L352.05 9.03986Z" fill="#0E2517"/>
<path d="M345.768 9.21339C343.458 9.21575 341.911 7.67233 341.908 5.19734L341.904 0.952337L343.914 0.950281L343.918 5.07528C343.92 6.56028 344.656 7.50453 345.841 7.50331C347.026 7.5021 347.79 6.52632 347.788 5.02632C347.787 3.46632 347.636 2.55147 346.451 2.55269C346.076 2.55307 345.671 2.62848 345.326 2.76384L345.324 1.17384C345.894 0.963255 346.539 0.857595 347.184 0.856935C348.054 0.856045 348.684 1.1704 349.09 1.73999C349.736 2.48933 349.797 3.71926 349.798 4.97926C349.801 7.49926 348.168 9.21093 345.768 9.21339Z" fill="#0E2517"/>
<path d="M338.103 9.0762L337.987 4.11256C337.966 3.19781 337.535 2.71276 336.665 2.7331L333.831 2.79936L333.791 1.11982L337.135 1.04163C338.35 1.01323 339.202 1.51846 339.642 2.34841C339.83 2.7191 339.976 3.18082 339.998 4.12556L340.113 9.02922L338.103 9.0762Z" fill="#0E2517"/>
<path d="M330.378 9.30416L330.13 2.93397L329.216 2.96952L329.15 1.29079L332.103 1.17599L332.416 9.22491L330.378 9.30416Z" fill="#0E2517"/>
<path d="M320.242 9.89317L319.744 1.85359L324.505 1.55863C325.733 1.48257 326.604 1.96959 327.06 2.76797C327.278 3.1302 327.441 3.58596 327.499 4.52915L327.803 9.42476L320.242 9.89317ZM322.145 8.0921L325.708 7.87134L325.505 4.59263C325.448 3.67938 324.983 3.21222 324.13 3.26509L321.854 3.40608L322.145 8.0921Z" fill="#0E2517"/>
<path d="M307.092 11.2578C306.793 11.2885 306.387 11.3 305.956 11.2087L305.793 9.62703C305.992 9.65184 306.189 9.66174 306.457 9.63413C307.114 9.56662 307.555 9.31017 307.434 8.13138L307.086 4.74424L305.295 4.92834L305.123 3.25715L311.286 2.62353C312.539 2.49466 313.433 2.97576 313.917 3.72517C314.133 4.06487 314.302 4.53008 314.397 5.4552L314.9 10.3494L312.9 10.555L312.393 5.61602C312.299 4.70582 311.831 4.25637 310.98 4.34382L309.085 4.53866L309.461 8.19439C309.694 10.4624 308.479 11.1151 307.092 11.2578Z" fill="#0E2517"/>
<path d="M298.581 12.2101L298.368 10.5739L300.005 10.3615C301.805 10.128 302.579 9.33173 302.357 7.62107C302.154 6.05917 301.343 5.40806 299.871 5.59916L297.833 5.86361L297.619 4.21246L300.118 3.88817C302.498 3.57932 303.999 4.65511 304.331 7.21366C304.684 9.93583 303.356 11.5905 300.455 11.9669L298.581 12.2101Z" fill="#0E2517"/>
<path d="M292.961 13.0605L292.717 11.4135L293.755 11.2596C294.408 11.1629 294.682 10.7584 294.583 10.0907L294.04 6.42569L292.215 6.6961L291.969 5.03424L295.782 4.46924L296.558 9.70706C296.686 10.5677 296.622 11.0623 296.465 11.4343C296.208 12.1548 295.542 12.678 294.519 12.8297L292.961 13.0605Z" fill="#0E2517"/>
<path d="M289.291 13.6254L288.251 7.33577L287.348 7.48504L287.074 5.82754L289.99 5.34549L291.304 13.2926L289.291 13.6254Z" fill="#0E2517"/>
<path d="M284.978 16.3477L283.496 8.17076L282.537 8.34456L282.238 6.69146L285.204 6.15402L286.985 15.984L284.978 16.3477Z" fill="#0E2517"/>
</svg>
