<svg xmlns="http://www.w3.org/2000/svg" width="690" height="691" viewBox="0 0 690 691" fill="none">
<g clip-path="url(#clip0_1217_2294)">
<path d="M345.5 671C524.716 671 670 525.716 670 346.5C670 167.284 524.716 22 345.5 22C166.284 22 21 167.284 21 346.5C21 525.716 166.284 671 345.5 671Z" fill="#F4F4F4" stroke="#D4D7D6"/>
<path d="M344.996 576.5C472.298 576.5 575.496 473.302 575.496 346C575.496 218.698 472.298 115.5 344.996 115.5C217.694 115.5 114.496 218.698 114.496 346C114.496 473.302 217.694 576.5 344.996 576.5Z" stroke="#CFD3D1"/>
<path d="M344.999 483.534C420.957 483.534 482.533 421.958 482.533 346C482.533 270.042 420.957 208.466 344.999 208.466C269.041 208.466 207.465 270.042 207.465 346C207.465 421.958 269.041 483.534 344.999 483.534Z" stroke="#0E2517" stroke-opacity="0.2" stroke-width="0.932432"/>
<path d="M344.996 289.5C376.2 289.5 401.496 314.796 401.496 346C401.496 377.204 376.2 402.5 344.996 402.5C313.792 402.5 288.496 377.204 288.496 346C288.496 314.796 313.792 289.5 344.996 289.5Z" stroke="#0E2517" stroke-opacity="0.2"/>
<path d="M21 345.859L670.563 346.296" stroke="#D4D7D6"/>
<path d="M346.832 22L346.19 670.89" stroke="#D4D7D6"/>
<path d="M12.9821 294.827L10.7996 294.513L10.0981 299.382L8.45006 299.145L2.25293 294.403L2.56306 292.25L8.74749 296.975L9.13677 294.273L7.38485 294.021L7.64164 292.133L9.4084 292.388L9.55385 291.378L11.2167 291.618L11.0712 292.627L13.2537 292.942L12.9821 294.827Z" fill="#0E2517"/>
<path d="M12.125 302.514C12.0417 303.169 11.4528 303.638 10.7832 303.553C10.1434 303.472 9.67577 302.868 9.75899 302.213C9.8422 301.558 10.446 301.091 11.0858 301.172C11.7554 301.257 12.2082 301.859 12.125 302.514Z" fill="#0E2517"/>
<path d="M10.8555 312.147L9.42324 311.998L5.21122 307.698C4.55729 307.027 4.08983 306.737 3.55274 306.681C2.73218 306.595 2.17766 307.141 2.08748 308.006C2.03618 308.499 2.15831 308.918 2.43026 309.203C2.74075 309.552 3.14916 309.685 3.63994 309.751L3.4456 311.616C1.37338 311.385 0.145408 309.855 0.372403 307.677C0.571413 305.767 1.78086 304.581 3.55625 304.766C4.60059 304.875 5.49541 305.405 6.92666 306.867L9.39383 309.386L9.78718 305.611L11.5178 305.792L10.8555 312.147Z" fill="#0E2517"/>
<path d="M9.90536 324.775L1.86889 324.229L2.19125 319.485C2.27464 318.258 2.87034 317.456 3.72192 317.093C4.10826 316.939 4.58134 316.836 5.52417 316.9L10.4179 317.233L10.2816 319.238L5.32804 318.901C4.41514 318.839 3.89179 319.24 3.83383 320.093L3.68129 322.338L10.0416 322.77L9.90536 324.775Z" fill="#0E2517"/>
<path d="M9.50573 333.665L7.82721 333.595L7.99886 329.503L4.71675 329.366C3.80256 329.327 3.29039 329.726 3.25392 330.595L3.13948 333.323L1.46095 333.253L1.59614 330.03C1.64959 328.757 2.25493 327.926 3.14051 327.573C3.50711 327.423 3.94676 327.322 4.86096 327.36L8.08312 327.495L8.13783 326.191L9.81635 326.262L9.50573 333.665Z" fill="#0E2517"/>
<path d="M9.41571 337.307L4.45176 337.204C3.53695 337.186 3.03341 337.595 3.01551 338.465L2.95716 341.299L1.27751 341.265L1.34636 337.921C1.37137 336.706 1.91354 335.877 2.76201 335.474C3.14064 335.302 3.60832 335.177 4.55312 335.196L9.45708 335.297L9.41571 337.307Z" fill="#0E2517"/>
<path d="M9.34071 344.899L4.37585 344.936C3.46088 344.943 2.96917 345.382 2.97562 346.237L3.00581 350.242L1.32586 350.254L1.29193 345.755C1.28266 344.525 1.8162 343.666 2.63812 343.254C3.01175 343.072 3.47572 342.933 4.4207 342.926L9.32556 342.889L9.34071 344.899ZM9.38063 350.194L5.22575 350.225L5.21059 348.215L9.36548 348.184L9.38063 350.194Z" fill="#0E2517"/>
<path d="M9.57625 357.602L3.20617 357.852L3.2421 358.766L1.56339 358.832L1.44736 355.879L9.49614 355.563L9.57625 357.602Z" fill="#0E2517"/>
<path d="M9.92383 364.298L3.43292 362.426L3.74511 367.952L2.06778 368.047L1.63545 360.394L3.26785 360.302L9.80538 362.201L9.92383 364.298ZM12.0385 367.424L5.95819 367.767L5.84482 365.76L11.9251 365.417L12.0385 367.424Z" fill="#0E2517"/>
<path d="M10.4106 371.484L5.46292 371.898C4.5511 371.974 4.09409 372.449 4.16536 373.301L4.49922 377.292L2.82507 377.432L2.44994 372.948C2.34741 371.722 2.81425 370.825 3.60262 370.353C3.96131 370.142 4.41344 369.969 5.35515 369.89L10.2431 369.481L10.4106 371.484ZM10.852 376.761L6.7115 377.107L6.54394 375.104L10.6845 374.758L10.852 376.761Z" fill="#0E2517"/>
<path d="M8.45141 381.068L4.91647 381.445L5.01354 382.355L3.34303 382.533L3.03271 379.624L8.23816 379.069L8.45141 381.068Z" fill="#0E2517"/>
<path d="M12.0654 387.593L5.44064 385.94L5.93972 390.02L1.60702 390.55L1.36477 388.569L4.0299 388.243L3.5126 384.015L5.07594 383.824L11.8085 385.493L12.0654 387.593Z" fill="#0E2517"/>
<path d="M12.7536 392.589L7.84236 393.318C6.93728 393.452 6.51151 393.955 6.63704 394.801L7.22506 398.762L5.56326 399.009L4.90257 394.558C4.72198 393.341 5.1306 392.416 5.88719 391.894C6.2317 391.661 6.67184 391.459 7.6066 391.32L12.4584 390.6L12.7536 392.589ZM13.531 397.826L9.421 398.436L9.12589 396.448L13.2359 395.838L13.531 397.826Z" fill="#0E2517"/>
<path d="M284.238 674.1C284.902 674.225 285.513 674.462 286.014 674.8L285.674 676.613C285.196 676.234 284.575 675.964 283.911 675.84C282.349 675.546 281.265 676.197 281.032 677.436C280.847 678.423 281.332 679.171 282.305 679.354C282.733 679.434 283.17 679.379 283.539 679.204L283.529 680.881L281.16 682.847L284.3 683.437L283.985 685.118L278.456 684.079L278.714 682.708L281.144 680.738C279.651 680.32 278.745 679.051 279.085 677.238C279.52 674.923 281.599 673.604 284.238 674.1Z" fill="#0E2517"/>
<path d="M289.301 674.98C289.952 675.09 290.398 675.697 290.286 676.362C290.179 676.999 289.557 677.442 288.906 677.332C288.255 677.223 287.812 676.601 287.919 675.965C288.031 675.299 288.65 674.871 289.301 674.98Z" fill="#0E2517"/>
<path d="M298.871 676.664L298.658 678.088L294.177 682.106C293.477 682.73 293.167 683.184 293.087 683.718C292.966 684.534 293.486 685.112 294.347 685.241C294.836 685.314 295.261 685.21 295.558 684.951C295.92 684.656 296.071 684.254 296.159 683.767L298.013 684.043C297.691 686.103 296.108 687.262 293.942 686.939C292.043 686.656 290.911 685.396 291.174 683.63C291.329 682.592 291.899 681.721 293.422 680.356L296.048 678.002L292.294 677.443L292.551 675.722L298.871 676.664Z" fill="#0E2517"/>
<path d="M307.542 677.556C307.885 677.595 308.165 677.657 308.44 677.763L308.252 679.433C308.02 679.346 307.693 679.294 307.515 679.274C306.099 679.115 305.344 679.92 305.164 681.515C304.989 683.065 305.51 684.075 306.643 684.203C307.567 684.307 308.129 683.736 308.541 682.892C308.971 682.155 309.25 681.024 309.623 679.451L309.962 677.92L311.944 678.143C311.662 679.575 311.084 681.895 310.598 683.395L311.793 686.322L309.542 686.069L308.989 684.814C308.264 685.623 307.336 685.956 306.188 685.827C304.116 685.593 302.869 684.064 303.166 681.426C303.46 678.817 305.008 677.271 307.542 677.556Z" fill="#0E2517"/>
<path d="M318.911 678.608C321.678 678.825 323.44 680.724 323.213 683.61L322.931 687.214L321.032 687.065L321.293 683.73C321.318 683.416 321.325 683.131 321.286 682.857C319.952 682.993 319.329 683.636 319.216 685.087L319.073 686.911L317.218 686.766L317.368 684.851C317.529 682.803 318.584 681.817 320.864 681.53C320.442 680.774 319.695 680.324 318.737 680.249C316.958 680.11 315.671 681.363 315.509 683.427L315.259 686.612L313.36 686.463L313.624 683.098C313.852 680.197 315.98 678.378 318.911 678.608Z" fill="#0E2517"/>
<path d="M333.18 679.676C333.065 680.196 332.933 680.745 332.784 681.339C332.431 682.733 332.034 683.795 330.542 684.219L332.88 687.726L330.528 687.612L328.301 684.29C327.308 684.633 327.18 685.422 327.02 686.241C326.941 686.642 326.875 687.06 326.797 687.431L324.73 687.331C324.809 686.944 324.905 686.499 325.016 686.068C325.392 684.51 325.848 683.466 327.504 683.08L324.955 679.278L327.307 679.392L329.702 682.962C330.532 682.566 330.616 681.759 330.786 681.047C330.903 680.482 330.999 680.066 331.083 679.574L333.18 679.676Z" fill="#0E2517"/>
<path d="M341.61 679.898L341.568 681.578L337.475 681.477L337.394 684.761C337.371 685.676 337.779 686.181 338.649 686.202L341.378 686.27L341.337 687.949L338.113 687.87C336.838 687.838 335.997 687.248 335.629 686.368C335.473 686.004 335.363 685.566 335.386 684.652L335.465 681.428L334.161 681.396L334.202 679.716L341.61 679.898Z" fill="#0E2517"/>
<path d="M345.367 682.74L345.365 686.295L346.28 686.295L346.278 687.975L343.353 687.973L343.357 682.738L345.367 682.74Z" fill="#0E2517"/>
<path d="M355.383 679.775L355.523 687.829L350.753 687.911C349.524 687.932 348.674 687.407 348.255 686.589C348.054 686.218 347.911 685.755 347.894 684.81L347.809 679.906L355.383 679.775ZM353.403 681.489L349.833 681.551L349.89 684.836C349.906 685.751 350.349 686.238 351.204 686.223L353.484 686.184L353.403 681.489Z" fill="#0E2517"/>
<path d="M362.894 679.494L363.203 685.861L364.117 685.817L364.199 687.495L361.247 687.638L360.856 679.593L362.894 679.494Z" fill="#0E2517"/>
<path d="M373.019 678.829L373.574 686.864L368.83 687.192C367.603 687.277 366.728 686.796 366.252 686.002C366.047 685.64 365.88 685.186 365.815 684.243L365.477 679.35L367.482 679.211L367.824 684.164C367.887 685.077 368.356 685.541 369.208 685.482L371.453 685.327L371.014 678.967L373.019 678.829Z" fill="#0E2517"/>
<path d="M377.078 678.503L377.613 684.856L378.525 684.779L378.666 686.453L375.721 686.701L375.045 678.675L377.078 678.503Z" fill="#0E2517"/>
<path d="M383.189 677.677C383.532 677.638 383.819 677.635 384.11 677.678L384.3 679.347C384.054 679.314 383.725 679.337 383.546 679.357C382.13 679.518 381.574 680.471 381.755 682.066C381.931 683.616 382.664 684.484 383.796 684.356C384.72 684.251 385.141 683.569 385.354 682.654C385.609 681.84 385.628 680.676 385.641 679.059L385.629 677.49L387.611 677.265C387.656 678.724 387.61 681.115 387.471 682.685L389.29 685.272L387.039 685.527L386.22 684.428C385.694 685.378 384.863 685.91 383.716 686.04C381.644 686.276 380.088 685.063 379.788 682.425C379.492 679.817 380.655 677.964 383.189 677.677Z" fill="#0E2517"/>
<path d="M391.677 676.824L392.354 681.743C392.479 682.65 392.962 683.083 393.824 682.964L396.633 682.577L396.862 684.242L393.548 684.698C392.344 684.864 391.441 684.458 390.91 683.683C390.68 683.336 390.483 682.894 390.354 681.958L389.685 677.099L391.677 676.824Z" fill="#0E2517"/>
<path d="M399.746 678.492L400.309 682.003L401.212 681.858L401.478 683.517L398.59 683.979L397.762 678.81L399.746 678.492Z" fill="#0E2517"/>
<path d="M409.165 673.979L410.576 681.909L405.88 682.745C404.669 682.961 403.748 682.576 403.204 681.835C402.947 681.5 402.732 681.066 402.567 680.135L401.707 675.306L409.165 673.979ZM407.481 675.985L403.966 676.611L404.541 679.845C404.702 680.746 405.217 681.157 406.058 681.007L408.303 680.608L407.481 675.985Z" fill="#0E2517"/>
<path d="M676.359 395.988L677.781 396.219L681.739 400.754C682.353 401.462 682.803 401.778 683.336 401.865C684.15 401.997 684.735 401.485 684.875 400.626C684.955 400.137 684.857 399.711 684.602 399.411C684.312 399.045 683.912 398.889 683.425 398.794L683.726 396.944C685.782 397.293 686.92 398.892 686.568 401.054C686.26 402.949 684.984 404.063 683.223 403.777C682.186 403.608 681.323 403.027 679.978 401.486L677.66 398.829L677.051 402.575L675.333 402.295L676.359 395.988Z" fill="#0E2517"/>
<path d="M677.638 392.632C677.729 391.979 678.324 391.517 678.993 391.61C679.631 391.7 680.091 392.31 680 392.963C679.908 393.617 679.298 394.077 678.66 393.987C677.991 393.894 677.546 393.286 677.638 392.632Z" fill="#0E2517"/>
<path d="M678.075 383.022L679.504 383.199L683.632 387.579C684.273 388.262 684.735 388.561 685.271 388.628C686.09 388.729 686.655 388.194 686.761 387.331C686.822 386.839 686.708 386.417 686.442 386.127C686.138 385.772 685.732 385.632 685.243 385.556L685.473 383.695C687.54 383.966 688.739 385.52 688.47 387.693C688.234 389.599 687.002 390.761 685.231 390.542C684.189 390.413 683.304 389.866 681.901 388.377L679.483 385.811L679.017 389.577L677.29 389.364L678.075 383.022Z" fill="#0E2517"/>
<path d="M678.978 373.905L685.132 376.692L685.619 371.178L687.292 371.326L686.618 378.961L684.99 378.818L678.794 375.997L678.978 373.905ZM677.336 370.508L683.402 371.043L683.225 373.045L677.159 372.51L677.336 370.508Z" fill="#0E2517"/>
<path d="M679.535 366.73L684.491 367.038C685.404 367.094 685.924 366.706 685.978 365.838L686.154 363.008L687.831 363.112L687.623 366.451C687.548 367.664 686.972 368.469 686.107 368.836C685.722 368.993 685.249 369.099 684.306 369.04L679.411 368.736L679.535 366.73Z" fill="#0E2517"/>
<path d="M680.022 356.934L686.308 359.41L686.518 353.879L688.197 353.942L687.906 361.602L686.272 361.54L679.943 359.033L680.022 356.934ZM678.212 353.623L684.297 353.854L684.221 355.863L678.135 355.632L678.212 353.623Z" fill="#0E2517"/>
<path d="M680.269 344.304L681.949 344.321L681.937 345.506L681.925 346.676L688.325 344.206L688.303 346.396L682.114 348.703C682.305 349.11 682.663 349.339 683.351 349.496C684.174 349.744 685.778 349.85 686.948 349.862L688.268 349.875L688.247 351.945C687.812 351.941 687.362 351.936 686.747 351.915C685.877 351.891 684.798 351.835 683.974 351.707C681.338 351.276 680.211 349.974 680.243 346.794L680.269 344.304Z" fill="#0E2517"/>
<path d="M680.195 337.044L686.569 336.921L686.552 336.006L688.231 335.974L688.288 338.928L680.235 339.084L680.195 337.044Z" fill="#0E2517"/>
<path d="M679.872 327.712L681.551 327.648L681.71 331.785L687.9 326.848L687.988 329.141L685.017 331.507C685.435 332.227 686.201 332.242 687 332.347C687.377 332.377 687.739 332.423 688.115 332.454L688.197 334.567L686.913 334.362C685.493 334.146 684.385 333.828 683.822 332.454L681.565 334.252L680.126 334.308L679.872 327.712Z" fill="#0E2517"/>
<path d="M679.386 322.766C679.363 322.422 679.375 322.136 679.431 321.846L681.107 321.736C681.063 321.98 681.07 322.31 681.081 322.49C681.175 323.912 682.101 324.512 683.703 324.407C685.259 324.305 686.161 323.614 686.086 322.477C686.025 321.549 685.364 321.096 684.461 320.84C683.66 320.546 682.497 320.473 680.883 320.383L679.316 320.321L679.185 318.33C680.645 318.354 683.03 318.513 684.592 318.726L687.262 317.033L687.411 319.293L686.273 320.059C687.198 320.63 687.69 321.484 687.766 322.637C687.902 324.717 686.618 326.215 683.968 326.389C681.349 326.561 679.553 325.311 679.386 322.766Z" fill="#0E2517"/>
<path d="M678.407 308.767L686.426 308.013L686.872 312.747C686.987 313.972 686.528 314.859 685.746 315.354C685.389 315.568 684.939 315.746 683.998 315.835L679.115 316.294L678.926 314.293L683.87 313.828C684.781 313.742 685.233 313.263 685.153 312.412L684.942 310.172L678.595 310.769L678.407 308.767Z" fill="#0E2517"/>
<path d="M680.774 304.36L684.307 303.967L684.206 303.057L685.876 302.871L686.2 305.778L680.997 306.358L680.774 304.36Z" fill="#0E2517"/>
<path d="M680.187 299.694L683.711 299.227L683.591 298.32L685.257 298.099L685.641 300.999L680.452 301.687L680.187 299.694Z" fill="#0E2517"/>
<path d="M676.75 295.578L681.66 294.843C682.565 294.708 682.99 294.204 682.863 293.358L682.27 289.398L683.931 289.149L684.598 293.599C684.78 294.816 684.373 295.741 683.617 296.264C683.273 296.497 682.833 296.7 681.898 296.84L677.047 297.566L676.75 295.578ZM675.965 290.342L680.074 289.726L680.372 291.714L676.263 292.33L675.965 290.342Z" fill="#0E2517"/>
<path d="M364.792 11.5078L365.199 3.94373L363.357 3.84453L363.433 2.43657C364.676 2.50351 365.447 1.85403 365.816 0.867422L367.418 0.953722L366.844 11.6183L364.792 11.5078Z" fill="#0E2517"/>
<path d="M360.947 11.5189C360.287 11.4873 359.773 10.9371 359.805 10.2629C359.836 9.61863 360.401 9.10507 361.061 9.13663C361.72 9.16819 362.233 9.73339 362.203 10.3777C362.17 11.0519 361.606 11.5505 360.947 11.5189Z" fill="#0E2517"/>
<path d="M351.244 11.0021L351.282 9.56257L355.242 5.0302C355.861 4.32624 356.114 3.83772 356.128 3.29791C356.15 2.4732 355.563 1.96258 354.693 1.93969C354.199 1.92667 353.789 2.08096 353.526 2.37414C353.203 2.71074 353.102 3.12822 353.073 3.62266L351.199 3.57332C351.269 1.48944 352.7 0.146622 354.889 0.204242C356.808 0.254758 358.085 1.36872 358.038 3.1531C358.01 4.20274 357.55 5.13597 356.204 6.67609L353.884 9.33095L357.677 9.43079L357.631 11.1702L351.244 11.0021Z" fill="#0E2517"/>
<path d="M342.523 11.1838C342.178 11.1873 341.893 11.1602 341.607 11.0881L341.59 9.40816C341.83 9.46572 342.161 9.47737 342.341 9.47554C343.766 9.46107 344.416 8.56941 344.4 6.96449C344.384 5.40457 343.745 4.46602 342.605 4.4776C341.675 4.48705 341.186 5.12204 340.88 6.0102C340.543 6.79366 340.405 7.95012 340.226 9.55702L340.077 11.1186L338.082 11.1389C338.187 9.68274 338.478 7.30966 338.778 5.76154L337.235 3.00207L339.499 2.97907L340.201 4.157C340.822 3.26564 341.703 2.82168 342.858 2.80994C344.943 2.78877 346.367 4.15437 346.394 6.80923C346.42 9.4341 345.073 11.1579 342.523 11.1838Z" fill="#0E2517"/>
<path d="M333.768 8.35834L333.633 4.80593L332.718 4.84083L332.654 3.16206L335.577 3.05048L335.777 8.28167L333.768 8.35834Z" fill="#0E2517"/>
<path d="M323.874 11.6825L323.449 3.63873L328.212 3.38683C329.44 3.32188 330.308 3.81677 330.756 4.61923C330.97 4.98341 331.13 5.44063 331.179 6.38431L331.438 11.2825L323.874 11.6825ZM325.792 9.89869L329.358 9.71016L329.184 6.42975C329.136 5.51602 328.675 5.04469 327.821 5.08984L325.545 5.21024L325.792 9.89869Z" fill="#0E2517"/>
</g>
<defs>
<clipPath id="clip0_1217_2294">
<rect width="690" height="691" fill="white"/>
</clipPath>
</defs>
</svg>