<svg xmlns="http://www.w3.org/2000/svg" width="699" height="699" viewBox="0 0 699 699" fill="none">
<circle cx="348.656" cy="349.145" r="325" fill="#F4F4F4"/>
<circle cx="348.656" cy="349.145" r="324.5" stroke="#0E2517" stroke-opacity="0.2"/>
<circle cx="348.656" cy="349.145" r="195" fill="#F4F4F4"/>
<circle cx="348.656" cy="349.145" r="194.5" stroke="#0E2517" stroke-opacity="0.5"/>
<circle cx="348.656" cy="349.145" r="65" fill="#F4F4F4"/>
<circle cx="348.656" cy="349.145" r="64.5338" stroke="#0E2517" stroke-opacity="0.2" stroke-width="0.932432"/>
<circle cx="32.5" cy="32.5" r="32.5" transform="matrix(1 0 0 -1 316.656 382.145)" fill="#F4F4F4"/>
<circle cx="32.5" cy="32.5" r="32" transform="matrix(1 0 0 -1 316.656 382.145)" stroke="#0E2517" stroke-opacity="0.2"/>
<path d="M336.234 663.872C336.318 663.454 336.414 663.013 336.523 662.535C336.781 661.414 337.08 660.558 338.266 660.194L336.336 657.429L338.219 657.479L340.058 660.098C340.846 659.807 340.935 659.173 341.049 658.516C341.105 658.193 341.15 657.858 341.206 657.56L342.862 657.605C342.805 657.915 342.736 658.273 342.654 658.619C342.38 659.872 342.034 660.715 340.716 661.052L342.82 664.05L340.937 663.999L338.96 661.185C338.303 661.515 338.249 662.162 338.126 662.735C338.041 663.189 337.972 663.523 337.914 663.917L336.234 663.872Z" fill="#0E2517"/>
<path d="M345.035 664.089L345.04 662.757L346.72 662.764C348.448 662.771 349.194 662.258 349.201 660.686C349.206 659.414 348.633 658.812 347.553 658.808C346.665 658.804 346.111 659.234 346.108 659.882C346.106 660.422 346.489 660.675 346.969 660.761L346.963 662.069C346.159 662.066 344.577 661.615 344.584 659.935C344.59 658.447 345.83 657.456 347.678 657.464C349.706 657.473 350.782 658.569 350.773 660.597C350.764 662.877 349.451 664.108 346.979 664.097L345.035 664.089Z" fill="#0E2517"/>
<path d="M355.883 664.036L355.798 660.065C355.782 659.333 355.438 658.945 354.742 658.96L352.474 659.009L352.445 657.665L355.121 657.607C356.092 657.586 356.773 657.992 357.124 658.656C357.274 658.953 357.39 659.323 357.406 660.078L357.491 664.002L355.883 664.036Z" fill="#0E2517"/>
<path d="M363.711 663.904C363.435 663.916 363.206 663.902 362.976 663.853L362.915 662.51C363.109 662.55 363.373 662.549 363.517 662.543C364.656 662.491 365.151 661.76 365.092 660.477C365.036 659.23 364.498 658.498 363.587 658.54C362.843 658.573 362.471 659.095 362.251 659.814C362.004 660.45 361.926 661.378 361.829 662.668L361.754 663.921L360.159 663.993C360.202 662.826 360.368 660.921 360.563 659.674L359.251 657.512L361.061 657.429L361.656 658.351C362.127 657.621 362.819 657.241 363.742 657.199C365.408 657.123 366.585 658.175 366.682 660.297C366.777 662.394 365.749 663.811 363.711 663.904Z" fill="#0E2517"/>
<path d="M329.052 538.089L329.471 534.139C329.548 533.412 329.244 532.981 328.564 532.909L325.377 532.571L325.519 531.235L329.099 531.614C330.078 531.718 330.712 532.22 330.965 532.91C331.076 533.224 331.145 533.605 331.065 534.357L330.651 538.259L329.052 538.089ZM324.84 537.643L325.19 534.337L326.789 534.507L326.439 537.812L324.84 537.643Z" fill="#0E2517"/>
<path d="M336.847 538.857C336.571 538.841 336.345 538.803 336.121 538.729L336.203 537.388C336.392 537.447 336.654 537.475 336.798 537.484C337.936 537.553 338.506 536.879 338.584 535.597C338.66 534.351 338.203 533.566 337.292 533.511C336.55 533.465 336.124 533.944 335.829 534.636C335.516 535.242 335.34 536.157 335.106 537.429L334.899 538.667L333.306 538.57C333.472 537.414 333.839 535.537 334.166 534.318L333.091 532.029L334.899 532.139L335.393 533.119C335.939 532.442 336.667 532.138 337.589 532.194C339.254 532.296 340.313 533.466 340.184 535.586C340.056 537.682 338.883 538.981 336.847 538.857Z" fill="#0E2517"/>
<path d="M342.761 536.77L342.833 533.927L342.102 533.908L342.136 532.564L344.475 532.624L344.369 536.811L342.761 536.77Z" fill="#0E2517"/>
<path d="M347.424 536.859L347.433 534.015L346.701 534.013L346.706 532.669L349.046 532.676L349.032 536.864L347.424 536.859Z" fill="#0E2517"/>
<path d="M354.266 539.011L355.882 533.854L351.457 534.002L351.412 532.659L357.54 532.454L357.584 533.761L355.945 538.955L354.266 539.011ZM351.727 540.645L351.564 535.776L353.171 535.722L353.334 540.591L351.727 540.645Z" fill="#0E2517"/>
<path d="M366.641 538.262L366.28 534.306C366.213 533.577 365.843 533.214 365.15 533.277L362.891 533.483L362.769 532.144L365.434 531.901C366.402 531.813 367.109 532.17 367.505 532.809C367.676 533.095 367.817 533.455 367.886 534.208L368.242 538.116L366.641 538.262Z" fill="#0E2517"/>
<path d="M370.535 537.883L370.36 536.551L373.608 536.124L373.266 533.518C373.17 532.793 372.786 532.444 372.096 532.534L369.93 532.819L369.755 531.487L372.313 531.15C373.324 531.017 374.062 531.38 374.462 532.03C374.63 532.298 374.771 532.631 374.866 533.356L375.203 535.914L376.238 535.778L376.413 537.111L370.535 537.883Z" fill="#0E2517"/>
<path d="M322.975 403.256L324.692 399.674C325.008 399.014 324.876 398.512 324.248 398.211L322.203 397.231L322.784 396.019L325.197 397.176C326.074 397.596 326.498 398.265 326.511 399.016C326.511 399.349 326.448 399.731 326.121 400.413L324.425 403.951L322.975 403.256Z" fill="#0E2517"/>
<path d="M326.493 404.87L326.918 403.62L328.168 404.045C329.542 404.513 330.379 404.215 330.823 402.908C331.229 401.716 330.877 400.962 329.753 400.579L328.197 400.05L328.626 398.789L330.534 399.438C332.352 400.057 333.049 401.359 332.384 403.313C331.677 405.392 330.139 406.111 327.924 405.357L326.493 404.87Z" fill="#0E2517"/>
<path d="M334.404 405.062L335.058 402.294L334.345 402.126L334.654 400.818L336.932 401.356L335.969 405.432L334.404 405.062Z" fill="#0E2517"/>
<path d="M337.73 408.141L337.925 406.823L338.756 406.945C339.278 407.022 339.581 406.776 339.66 406.242L340.092 403.309L338.632 403.094L338.828 401.764L341.879 402.214L341.261 406.405C341.16 407.093 340.997 407.458 340.791 407.706C340.427 408.198 339.796 408.445 338.977 408.324L337.73 408.141Z" fill="#0E2517"/>
<path d="M350.092 409.008L350.01 405.036C349.995 404.305 349.651 403.916 348.955 403.93L346.688 403.977L346.66 402.633L349.336 402.578C350.307 402.558 350.988 402.964 351.338 403.629C351.488 403.926 351.603 404.296 351.619 405.051L351.7 408.975L350.092 409.008Z" fill="#0E2517"/>
<path d="M354.69 408.791L354.11 403.724L353.382 403.808L353.229 402.472L355.578 402.204L356.311 408.606L354.69 408.791Z" fill="#0E2517"/>
<path d="M359.054 408.181L358.755 406.883L360.392 406.505C362.076 406.117 362.685 405.447 362.332 403.916C362.046 402.676 361.35 402.221 360.298 402.463C359.432 402.663 358.991 403.208 359.137 403.839C359.258 404.365 359.689 404.525 360.176 404.499L360.469 405.773C359.686 405.954 358.043 405.877 357.665 404.24C357.331 402.79 358.312 401.542 360.113 401.127C362.089 400.671 363.387 401.493 363.842 403.469C364.354 405.691 363.357 407.189 360.948 407.744L359.054 408.181Z" fill="#0E2517"/>
<path d="M366.496 404.024L365.569 401.336L364.877 401.574L364.439 400.304L366.651 399.541L368.016 403.5L366.496 404.024Z" fill="#0E2517"/>
<path d="M374.566 403.251C372.567 404.215 370.584 403.612 369.578 401.526L368.323 398.921L369.695 398.259L370.857 400.67C370.967 400.897 371.077 401.097 371.214 401.271C372.082 400.639 372.253 399.944 371.747 398.895L371.111 397.577L372.452 396.93L373.119 398.314C373.833 399.795 373.5 400.901 372.04 402.018C372.636 402.37 373.334 402.38 374.026 402.046C375.312 401.426 375.697 400.042 374.978 398.55L373.868 396.248L375.241 395.586L376.413 398.018C377.424 400.115 376.685 402.23 374.566 403.251Z" fill="#0E2517"/>
<path d="M332.699 371.269L335.044 368.063C335.476 367.472 335.439 366.954 334.877 366.543L333.046 365.204L333.839 364.119L335.999 365.699C336.784 366.273 337.079 367.008 336.953 367.749C336.892 368.076 336.76 368.44 336.314 369.05L333.997 372.218L332.699 371.269Z" fill="#0E2517"/>
<path d="M337.414 374.33L337.813 373.059L339.416 373.562C341.065 374.079 341.929 373.81 342.4 372.31C342.781 371.097 342.411 370.352 341.381 370.028C340.533 369.762 339.877 370.009 339.683 370.627C339.522 371.143 339.812 371.498 340.245 371.722L339.854 372.97C339.086 372.729 337.708 371.831 338.211 370.228C338.657 368.808 340.134 368.228 341.898 368.782C343.833 369.389 344.536 370.754 343.929 372.689C343.246 374.865 341.628 375.652 339.269 374.912L337.414 374.33Z" fill="#0E2517"/>
<path d="M346.822 376.902L346.941 371.803L346.209 371.786L346.241 370.442L348.604 370.497L348.453 376.94L346.822 376.902Z" fill="#0E2517"/>
<path d="M355.972 375.853C353.851 376.509 351.981 375.618 351.296 373.405L350.442 370.643L351.898 370.192L352.688 372.749C352.763 372.99 352.842 373.204 352.951 373.396C353.903 372.901 354.176 372.238 353.832 371.126L353.399 369.728L354.821 369.288L355.275 370.756C355.761 372.326 355.267 373.371 353.658 374.258C354.195 374.695 354.883 374.808 355.617 374.581C356.981 374.159 357.567 372.848 357.078 371.266L356.323 368.824L357.779 368.373L358.577 370.953C359.264 373.177 358.219 375.158 355.972 375.853Z" fill="#0E2517"/>
<path d="M366.214 371.001C365.996 371.17 365.801 371.291 365.584 371.383L364.761 370.321C364.942 370.241 365.158 370.089 365.272 370.001C366.173 369.302 366.157 368.419 365.371 367.404C364.606 366.418 363.745 366.129 363.024 366.687C362.436 367.143 362.432 367.784 362.666 368.498C362.83 369.16 363.301 369.964 363.964 371.075L364.624 372.142L363.362 373.12C362.725 372.141 361.763 370.487 361.206 369.356L358.888 368.343L360.32 367.233L361.337 367.645C361.302 366.777 361.649 366.068 362.379 365.502C363.698 364.48 365.266 364.662 366.566 366.341C367.852 368.002 367.827 369.752 366.214 371.001Z" fill="#0E2517"/>
<path d="M348.648 24.6426L349.148 349.643" stroke="#0E2517" stroke-opacity="0.2"/>
<path d="M657.15 248.642L349.152 349.642" stroke="#0E2517" stroke-opacity="0.2"/>
<path d="M539.145 611.643L349.144 349.641" stroke="#0E2517" stroke-opacity="0.2"/>
<path d="M158.148 611.643L349.148 349.643" stroke="#0E2517" stroke-opacity="0.2"/>
<path d="M40.1523 248.643L349.149 349.642" stroke="#0E2517" stroke-opacity="0.2"/>
<path d="M20.1997 274.419C20.1293 274.711 20.0051 275.097 19.7754 275.474L18.2298 275.101C18.3192 274.922 18.3942 274.739 18.4575 274.477C18.6123 273.835 18.5173 273.334 17.3654 273.056L14.0554 272.257L13.6331 274.007L12 273.613L13.4534 267.591C13.749 266.366 14.5002 265.683 15.368 265.476C15.7602 265.385 16.2549 265.381 17.159 265.599L21.9417 266.754L21.4701 268.708L16.6437 267.543C15.7542 267.328 15.1745 267.62 14.9739 268.451L14.527 270.303L18.0994 271.165C20.3158 271.7 20.527 273.063 20.1997 274.419Z" fill="white"/>
<path d="M22.585 264.255L16.4246 262.615L16.1892 263.499L14.5657 263.067L15.3259 260.212L23.1098 262.284L22.585 264.255Z" fill="white"/>
<path d="M23.5779 260.679L21.9753 260.228L22.2602 259.217C22.4392 258.582 22.1822 258.166 21.5325 257.983L17.9665 256.978L17.466 258.754L15.849 258.298L16.8947 254.588L21.9912 256.024C22.8286 256.26 23.2539 256.52 23.529 256.816C24.0811 257.346 24.2859 258.167 24.0052 259.163L23.5779 260.679Z" fill="white"/>
<path d="M22.6535 253.517L19.2421 252.516L18.9847 253.394L17.3725 252.922L18.1956 250.115L23.2191 251.588L22.6535 253.517Z" fill="white"/>
<path d="M24.0115 249.013L20.6226 247.939L20.3462 248.811L18.7447 248.303L19.6283 245.515L24.6187 247.096L24.0115 249.013Z" fill="white"/>
<path d="M28.1271 245.383L22.0576 243.433L21.7778 244.304L20.1783 243.79L21.0822 240.977L28.7511 243.441L28.1271 245.383Z" fill="white"/>
<path d="M29.3046 241.784L27.72 241.226L29.0953 237.321L21.5227 239.632L22.285 237.468L25.9187 236.362C25.795 235.539 25.0884 235.242 24.3834 234.851C24.0446 234.684 23.725 234.508 23.3862 234.341L24.0888 232.346L25.2067 233.01C26.4469 233.733 27.3602 234.436 27.3778 235.921L30.1388 235.081L31.497 235.559L29.3046 241.784Z" fill="white"/>
<path d="M34.0469 229.269C33.9245 229.592 33.7953 229.848 33.6241 230.088L32.0534 229.492C32.1946 229.288 32.3257 228.985 32.3896 228.817C32.8952 227.485 32.3019 226.554 30.8013 225.984C29.3428 225.431 28.2358 225.684 27.8313 226.75C27.5013 227.62 27.9147 228.306 28.6304 228.915C29.2373 229.514 30.2639 230.064 31.6953 230.816L33.0953 231.523L32.3875 233.389C31.0697 232.76 28.9657 231.625 27.6329 230.782L24.5009 231.214L25.3045 229.096L26.6573 228.872C26.0533 227.969 25.9606 226.987 26.3704 225.907C27.1101 223.958 28.9006 223.129 31.3829 224.071C33.8371 225.002 34.9516 226.885 34.0469 229.269Z" fill="white"/>
<path d="M37.8343 219.738C37.5775 220.346 36.8837 220.639 36.2619 220.376C35.6678 220.125 35.3804 219.418 35.6372 218.81C35.894 218.202 36.6016 217.914 37.1957 218.165C37.8176 218.428 38.0911 219.13 37.8343 219.738Z" fill="white"/>
<path d="M39.8823 215.019C39.5631 215.747 39.1546 216.305 38.6604 216.76L37.0463 215.921C37.5697 215.512 37.9979 214.946 38.275 214.314C38.8954 212.899 38.5056 211.696 37.3517 211.19C36.4587 210.799 35.6039 211.03 35.2064 211.937C34.9956 212.418 34.9951 212.942 35.1863 213.402L34.1402 214.368L29.3651 211.849L31.4372 207.123L32.9895 207.804L31.5981 210.977L33.5435 211.994C33.5601 211.657 33.6497 211.303 33.8123 210.932C34.5532 209.243 36.1702 208.543 37.9836 209.338C40.1404 210.284 40.9364 212.615 39.8823 215.019Z" fill="white"/>
<path d="M190.884 647.714L188.57 652.107C188.144 652.917 188.298 653.558 189.055 653.956L192.599 655.822L191.816 657.309L187.834 655.212C186.746 654.639 186.241 653.763 186.267 652.844C186.282 652.428 186.38 651.954 186.82 651.118L189.105 646.778L190.884 647.714ZM195.569 650.181L193.633 653.858L191.855 652.921L193.791 649.245L195.569 650.181Z" fill="white"/>
<path d="M184.566 644.256L179.495 648.719L184.321 651.43L183.498 652.895L176.815 649.14L177.616 647.715L182.735 643.227L184.566 644.256ZM188.339 644.156L185.356 649.465L183.603 648.48L186.586 643.171L188.339 644.156Z" fill="white"/>
<path d="M178.734 640.947L175.524 646.455L176.314 646.915L175.468 648.367L172.915 646.879L176.971 639.92L178.734 640.947Z" fill="white"/>
<path d="M173.953 638.093C173.588 639.63 173.216 641.234 172.547 642.319C172.067 643.098 171.496 643.539 170.915 643.709L172.192 644.496L171.311 645.927L167.276 643.44L168.157 642.01L169.013 642.537C169.728 642.978 170.333 642.681 170.727 642.043C171.285 641.136 171.601 639.251 172.038 636.913L173.953 638.093Z" fill="white"/>
<path d="M170.173 635.741L165.825 642.521L161.822 639.955C160.787 639.291 160.371 638.383 160.463 637.462C160.514 637.049 160.651 636.584 161.161 635.789L163.809 631.66L165.501 632.745L162.821 636.924C162.327 637.695 162.426 638.346 163.146 638.808L165.04 640.022L168.481 634.656L170.173 635.741Z" fill="white"/>
<path d="M161.592 630.05C161.839 630.219 162.157 630.472 162.428 630.82L161.531 632.133C161.395 631.986 161.251 631.851 161.028 631.699C160.483 631.327 159.981 631.238 159.313 632.217L157.393 635.029L158.879 636.044L157.932 637.431L152.816 633.938C151.775 633.228 151.403 632.283 151.517 631.398C151.571 631 151.742 630.536 152.267 629.768L155.041 625.704L156.701 626.838L153.901 630.938C153.385 631.694 153.453 632.339 154.159 632.821L155.733 633.896L157.805 630.861C159.09 628.978 160.439 629.263 161.592 630.05Z" fill="white"/>
<path d="M152.938 624.21L149.193 629.369L149.933 629.906L148.946 631.266L146.555 629.53L151.287 623.011L152.938 624.21Z" fill="white"/>
<path d="M146.062 619.153L140.248 622.734L143.514 625.23L140.864 628.698L139.279 627.487L140.909 625.353L137.524 622.767L138.48 621.516L144.381 617.869L146.062 619.153Z" fill="white"/>
<path d="M140.569 614.923L136.624 619.931L137.342 620.497L136.302 621.817L133.981 619.988L138.967 613.661L140.569 614.923Z" fill="white"/>
<path d="M137.512 612.492L136.445 613.79L134.626 612.295L132.538 618.83L130.845 617.44L132.928 611.172C132.491 611.065 132.089 611.201 131.535 611.639C130.826 612.124 129.737 613.307 128.995 614.211L128.157 615.231L126.557 613.917C126.833 613.581 127.119 613.233 127.521 612.767C128.085 612.104 128.805 611.299 129.422 610.737C131.41 608.955 133.131 608.893 135.588 610.911L137.512 612.492Z" fill="white"/>
<path d="M130.091 606.353L129 607.61L127.413 606.234C125.782 604.819 124.657 604.696 123.369 606.181C122.327 607.382 122.379 608.42 123.399 609.305C124.237 610.032 125.113 610.076 125.643 609.464C126.086 608.955 125.93 608.402 125.545 607.93L126.617 606.695C127.376 607.353 128.508 609.07 127.131 610.656C125.913 612.061 123.93 611.989 122.185 610.475C120.27 608.814 120.145 606.898 121.806 604.983C123.674 602.831 125.921 602.735 128.255 604.76L130.091 606.353Z" fill="white"/>
<path d="M123.126 600.104C123.347 600.307 123.625 600.603 123.843 600.986L122.768 602.158C122.654 601.993 122.531 601.839 122.332 601.656C121.846 601.21 121.361 601.05 120.56 601.923L118.258 604.432L119.584 605.649L118.448 606.887L113.884 602.698C112.955 601.846 112.722 600.858 112.961 599.998C113.072 599.611 113.308 599.176 113.937 598.491L117.264 594.867L118.745 596.226L115.387 599.884C114.769 600.558 114.743 601.206 115.373 601.785L116.777 603.073L119.262 600.365C120.803 598.685 122.098 599.161 123.126 600.104Z" fill="white"/>
<path d="M112.63 590.109C113.102 590.569 113.123 591.322 112.652 591.805C112.202 592.268 111.439 592.278 110.966 591.817C110.493 591.357 110.483 590.593 110.933 590.131C111.404 589.648 112.157 589.648 112.63 590.109Z" fill="white"/>
<path d="M106.829 584.562L105.252 586.103L108.69 589.622L107.499 590.786L99.9652 592.819L98.4453 591.263L105.958 589.23L104.05 587.277L102.784 588.514L101.442 587.161L102.719 585.914L102.006 585.184L103.208 584.01L103.921 584.74L105.498 583.199L106.829 584.562Z" fill="white"/>
<path d="M566.272 607.965L567.336 609.265L565.514 610.757L571.514 614.084L569.819 615.471L564.08 612.202C563.89 612.609 563.944 613.03 564.265 613.659C564.602 614.45 565.549 615.749 566.29 616.654L567.126 617.675L565.524 618.987C565.249 618.65 564.964 618.302 564.586 617.816C564.046 617.134 563.397 616.269 562.967 615.555C561.608 613.256 561.885 611.556 564.345 609.542L566.272 607.965Z" fill="white"/>
<path d="M558.434 614.33L562.355 619.356L563.077 618.793L564.11 620.118L561.78 621.936L556.826 615.584L558.434 614.33Z" fill="white"/>
<path d="M555.442 616.649L556.454 617.99L553.15 620.485L560.738 622.743L558.907 624.126L555.267 623.04C554.916 623.794 555.341 624.432 555.712 625.148C555.902 625.474 556.071 625.797 556.261 626.124L554.574 627.398L554.009 626.227C553.375 624.939 553.002 623.848 553.808 622.601L551.042 621.776L550.175 620.627L555.442 616.649Z" fill="white"/>
<path d="M549.569 624.585L551.667 627.455L552.406 626.915L553.397 628.271L551.035 629.997L547.946 625.771L549.569 624.585Z" fill="white"/>
<path d="M544.861 624.511L545.818 625.892L542.452 628.225L544.323 630.925C544.844 631.677 545.471 631.844 546.186 631.349L548.43 629.794L549.387 631.175L546.737 633.012C545.689 633.738 544.661 633.756 543.845 633.263C543.504 633.061 543.158 632.772 542.637 632.02L540.8 629.37L539.727 630.113L538.77 628.732L544.861 624.511Z" fill="white"/>
<path d="M533.557 631.964C534.111 631.606 534.849 631.753 535.216 632.32C535.566 632.862 535.406 633.608 534.852 633.967C534.298 634.325 533.551 634.165 533.201 633.624C532.834 633.057 533.003 632.323 533.557 631.964Z" fill="white"/>
<path d="M529.481 634.582C530.052 634.223 530.662 633.982 531.26 633.89L532.241 635.452C531.633 635.498 530.994 635.722 530.422 636.081C529.076 636.927 528.723 638.141 529.393 639.208C529.928 640.059 530.791 640.278 531.63 639.751C531.998 639.52 532.282 639.182 532.434 638.803L533.565 640.041L533.162 643.093L535.868 641.393L536.777 642.841L532.014 645.834L531.272 644.652L531.718 641.556C530.338 642.263 528.811 641.947 527.829 640.385C526.577 638.391 527.207 636.011 529.481 634.582Z" fill="white"/>
<path d="M652.898 207.027L660.421 203.497L660.007 202.614L661.528 201.9L662.809 204.63L653.765 208.874L652.898 207.027Z" fill="white"/>
<path d="M656.63 210.503L662.454 207.911L662.082 207.075L663.617 206.392L664.819 209.092L657.459 212.367L656.63 210.503Z" fill="white"/>
<path d="M658.104 213.909L659.633 213.252L660.048 214.216C660.309 214.823 660.77 214.984 661.39 214.717L664.794 213.254L664.065 211.559L665.608 210.895L667.131 214.437L662.267 216.528C661.467 216.872 660.973 216.937 660.573 216.881C659.811 216.816 659.135 216.307 658.726 215.356L658.104 213.909Z" fill="white"/>
<path d="M660.364 219.124L661.892 218.501L662.515 220.029C663.2 221.71 664.168 222.255 665.765 221.604C667.224 221.009 667.646 220.06 667.086 218.684L666.31 216.781L667.852 216.153L668.803 218.486C669.709 220.709 669.052 222.435 666.663 223.409C664.121 224.445 662.182 223.583 661.078 220.874L660.364 219.124Z" fill="white"/>
<path d="M663.457 227.111C663.351 226.83 663.236 226.44 663.215 226L664.703 225.44C664.73 225.638 664.77 225.831 664.865 226.084C665.098 226.702 665.458 227.063 666.567 226.646L669.754 225.447L669.12 223.762L670.693 223.171L672.874 228.969C673.317 230.149 673.08 231.136 672.478 231.795C672.204 232.09 671.797 232.371 670.927 232.699L666.322 234.431L665.614 232.549L670.261 230.801C671.118 230.479 671.433 229.912 671.132 229.112L670.462 227.329L667.022 228.622C664.888 229.425 663.948 228.416 663.457 227.111Z" fill="white"/>
<path d="M667.201 236.856L673.204 234.71L672.896 233.849L674.478 233.283L675.473 236.066L667.888 238.777L667.201 236.856Z" fill="white"/>
<path d="M669.504 243.615L671.103 243.101L672.355 247L675.483 245.995C676.354 245.716 676.697 245.164 676.431 244.336L675.596 241.737L677.196 241.223L678.182 244.294C678.572 245.507 678.291 246.496 677.581 247.133C677.289 247.4 676.912 247.648 676.041 247.927L672.97 248.914L673.369 250.156L671.77 250.67L669.504 243.615Z" fill="white"/>
<path d="M672.247 252.264L678.359 250.453L678.099 249.576L679.71 249.099L680.549 251.932L672.826 254.22L672.247 252.264Z" fill="white"/>
<path d="M673.307 255.899L674.926 255.448L676.036 259.437L680.918 253.204L681.534 255.415L679.189 258.403C679.762 259.007 680.511 258.845 681.313 258.762C681.687 258.704 682.05 258.666 682.423 258.608L682.99 260.646L681.694 260.742C680.263 260.86 679.111 260.807 678.246 259.6L676.465 261.871L675.077 262.257L673.307 255.899Z" fill="white"/>
<path d="M678.536 264.278L681.977 263.386L681.747 262.5L683.373 262.078L684.108 264.91L679.04 266.224L678.536 264.278Z" fill="white"/>
<path d="M676.711 268.546L678.345 268.158L678.889 270.45L684.507 266.511L685.012 268.642L679.561 272.371C679.844 272.72 680.246 272.856 680.952 272.843C681.811 272.886 683.393 272.603 684.531 272.333L685.816 272.028L686.294 274.042C685.87 274.143 685.433 274.246 684.831 274.374C683.981 274.56 682.92 274.766 682.089 274.839C679.427 275.055 678.02 274.063 677.286 270.969L676.711 268.546Z" fill="white"/>
<path d="M679.63 282.395C679.497 281.748 679.902 281.113 680.563 280.977C681.195 280.847 681.832 281.267 681.966 281.913C682.099 282.56 681.679 283.198 681.047 283.328C680.386 283.464 679.763 283.041 679.63 282.395Z" fill="white"/>
<path d="M680.496 285.649L681.912 285.388L687.166 288.327C687.982 288.786 688.512 288.933 689.044 288.835C689.855 288.686 690.233 288.006 690.076 287.151C689.986 286.664 689.751 286.296 689.41 286.099C689.013 285.852 688.584 285.839 688.094 285.914L687.755 284.07C689.809 283.707 691.418 284.83 691.814 286.984C692.162 288.872 691.335 290.351 689.58 290.674C688.547 290.864 687.539 290.607 685.754 289.608L682.677 287.886L683.363 291.619L681.652 291.933L680.496 285.649Z" fill="white"/>
<path d="M288.639 19.4907L287.157 11.3137L286.198 11.4875L285.898 9.83445L288.865 9.29701L290.646 19.127L288.639 19.4907Z" fill="white"/>
<path d="M292.955 16.7684L291.915 10.4788L291.012 10.6281L290.738 8.97058L293.654 8.48853L294.968 16.4356L292.955 16.7684Z" fill="white"/>
<path d="M296.623 16.2036L296.379 14.5566L297.417 14.4027C298.07 14.3059 298.344 13.9015 298.245 13.2337L297.702 9.56875L295.877 9.83916L295.631 8.1773L299.444 7.6123L300.22 12.8501C300.348 13.7107 300.285 14.2053 300.127 14.5774C299.87 15.2979 299.205 15.821 298.181 15.9727L296.623 16.2036Z" fill="white"/>
<path d="M302.243 15.3532L302.03 13.7169L303.666 13.5046C305.466 13.271 306.24 12.4748 306.018 10.7641C305.816 9.20224 305.005 8.55114 303.532 8.74224L301.495 9.00669L301.28 7.35553L303.779 7.03124C306.159 6.72239 307.66 7.79819 307.992 10.3567C308.346 13.0789 307.017 14.7336 304.117 15.11L302.243 15.3532Z" fill="white"/>
<path d="M310.753 14.4008C310.455 14.4315 310.049 14.443 309.617 14.3517L309.455 12.7701C309.653 12.7949 309.85 12.8048 310.119 12.7772C310.776 12.7097 311.217 12.4532 311.095 11.2744L310.747 7.88726L308.957 8.07137L308.785 6.40018L314.947 5.76656C316.201 5.63769 317.095 6.11879 317.579 6.8682C317.795 7.2079 317.963 7.67311 318.058 8.59823L318.562 13.4924L316.562 13.698L316.054 8.75905C315.961 7.84884 315.492 7.3994 314.642 7.48684L312.747 7.68168L313.123 11.3374C313.356 13.6055 312.141 14.2581 310.753 14.4008Z" fill="white"/>
<path d="M323.906 13.0362L323.408 4.99663L328.169 4.70167C329.397 4.62561 330.268 5.11264 330.724 5.91101C330.941 6.27324 331.105 6.729 331.163 7.67219L331.467 12.5678L323.906 13.0362ZM325.808 11.2351L329.372 11.0144L329.169 7.73567C329.112 6.82242 328.647 6.35527 327.794 6.40814L325.518 6.54912L325.808 11.2351Z" fill="white"/>
<path d="M334.038 12.4472L333.791 6.07703L332.876 6.11258L332.811 4.43385L335.764 4.31905L336.077 12.368L334.038 12.4472Z" fill="white"/>
<path d="M341.766 12.2193L341.65 7.25564C341.629 6.34089 341.197 5.85584 340.328 5.87617L337.493 5.94244L337.454 4.2629L340.798 4.18471C342.013 4.15631 342.865 4.66153 343.304 5.49149C343.493 5.86218 343.639 6.3239 343.661 7.26864L343.776 12.1723L341.766 12.2193Z" fill="white"/>
<path d="M349.428 12.3565C347.118 12.3588 345.571 10.8154 345.569 8.3404L345.565 4.0954L347.575 4.09335L347.579 8.21835C347.58 9.70335 348.316 10.6476 349.501 10.6464C350.686 10.6452 351.45 9.66939 351.449 8.16939C351.447 6.60939 351.296 5.69454 350.111 5.69575C349.736 5.69614 349.331 5.77155 348.986 5.9069L348.985 4.31691C349.555 4.10632 350.199 4.00066 350.844 4C351.714 3.99911 352.345 4.31347 352.75 4.88305C353.396 5.63239 353.457 6.86233 353.459 8.12233C353.461 10.6423 351.828 12.354 349.428 12.3565Z" fill="white"/>
<path d="M355.712 12.1829L355.876 5.81002L354.961 5.78653L355.004 4.10709L357.958 4.18295L357.751 12.2353L355.712 12.1829Z" fill="white"/>
<path d="M363.937 12.5531C363.638 12.5366 363.235 12.4843 362.823 12.3263L362.911 10.7388C363.103 10.7944 363.296 10.8351 363.566 10.85C364.225 10.8864 364.7 10.7023 364.766 9.51913L364.953 6.11931L363.156 6.02011L363.249 4.34266L369.434 4.68407C370.692 4.75351 371.5 5.36894 371.86 6.18505C372.02 6.55443 372.113 7.04031 372.062 7.9689L371.791 12.8814L369.784 12.7706L370.058 7.81319C370.108 6.89958 369.716 6.38219 368.862 6.33507L366.96 6.23008L366.758 9.8995C366.632 12.176 365.33 12.63 363.937 12.5531Z" fill="white"/>
<path d="M374.365 13.0591L374.851 6.70266L373.939 6.6329L374.067 4.95779L377.013 5.18307L376.399 13.2146L374.365 13.0591Z" fill="white"/>
<path d="M378.062 13.3825L378.216 11.7246L379.261 11.8215C379.918 11.8824 380.28 11.5544 380.342 10.8822L380.684 7.19305L378.847 7.02282L379.002 5.34998L382.841 5.70568L382.352 10.9781C382.272 11.8444 382.093 12.3099 381.852 12.634C381.431 13.2729 380.661 13.6233 379.63 13.5278L378.062 13.3825Z" fill="white"/>
<path d="M383.723 13.8894L383.905 12.2494L385.545 12.4312C387.349 12.631 388.29 12.041 388.48 10.3265C388.653 8.76111 388.02 7.93638 386.544 7.77285L384.502 7.54654L384.685 5.89167L387.19 6.16918C389.575 6.43348 390.778 7.83449 390.494 10.3988C390.192 13.1271 388.509 14.4197 385.602 14.0976L383.723 13.8894Z" fill="white"/>
<path d="M396.85 15.5059L397.522 10.5867C397.646 9.68018 397.283 9.1308 396.435 9.01494L392.467 8.4722L392.695 6.8077L397.154 7.41752C398.372 7.5842 399.146 8.23508 399.436 9.10735C399.563 9.50329 399.634 9.98229 399.506 10.9186L398.841 15.7783L396.85 15.5059ZM391.603 14.7884L392.167 10.6717L394.158 10.9441L393.595 15.0608L391.603 14.7884Z" fill="white"/>
<path d="M402.062 16.4695C401.409 16.3696 400.955 15.7688 401.057 15.1016C401.155 14.4641 401.77 14.0121 402.423 14.1121C403.075 14.212 403.527 14.8276 403.429 15.4651C403.327 16.1324 402.714 16.5695 402.062 16.4695Z" fill="white"/>
<path d="M407.068 17.0855L408.395 9.62765L406.578 9.30441L406.825 7.91621C408.051 8.13433 408.895 7.58378 409.382 6.64951L410.962 6.9307L409.091 17.4455L407.068 17.0855Z" fill="white"/>
</svg>