<svg xmlns="http://www.w3.org/2000/svg" width="699" height="699" viewBox="0 0 699 699" fill="none">
<circle cx="350" cy="350.002" r="325" fill="#F4F4F4"/>
<circle cx="350" cy="350.002" r="324.5" stroke="#0E2517" stroke-opacity="0.2"/>
<circle cx="350" cy="350.002" r="195" fill="#F4F4F4"/>
<circle cx="350" cy="350.002" r="194.5" stroke="#0E2517" stroke-opacity="0.5"/>
<circle cx="350" cy="350.002" r="65" fill="#F4F4F4"/>
<circle cx="350" cy="350.002" r="64.5338" stroke="#0E2517" stroke-opacity="0.2" stroke-width="0.932432"/>
<circle cx="32.5" cy="32.5" r="32.5" transform="matrix(1 0 0 -1 318 383.002)" fill="#F4F4F4"/>
<circle cx="32.5" cy="32.5" r="32" transform="matrix(1 0 0 -1 318 383.002)" stroke="#0E2517" stroke-opacity="0.2"/>
<path d="M120 120.002L579.619 579.621" stroke="#0E2517" stroke-opacity="0.2"/>
<path d="M580 120.002L120.381 579.621" stroke="#0E2517" stroke-opacity="0.2"/>
<path d="M148.62 78.4493L147.3 76.6838L143.36 79.6311L142.363 78.2979L141.334 70.5627L143.075 69.2598L144.107 76.974L146.293 75.3386L145.233 73.9213L146.749 72.7681L147.819 74.1974L148.635 73.5863L149.642 74.9315L148.825 75.5426L150.146 77.3081L148.62 78.4493Z" fill="#0E2517"/>
<path d="M142.579 83.2781C142.057 83.6822 141.308 83.5978 140.895 83.0641C140.5 82.5542 140.596 81.7966 141.118 81.3925C141.64 80.9884 142.398 81.0846 142.793 81.5946C143.206 82.1283 143.1 82.874 142.579 83.2781Z" fill="#0E2517"/>
<path d="M134.869 89.1926L133.962 88.0743L134.024 82.0556C134.036 81.1184 133.911 80.5828 133.571 80.1635C133.051 79.5228 132.273 79.5164 131.598 80.0645C131.213 80.3763 131.003 80.7596 130.994 81.1532C130.966 81.6196 131.161 82.0025 131.461 82.3963L130.005 83.5776C128.703 81.949 128.917 79.9984 130.618 78.6187C132.109 77.4091 133.803 77.4256 134.927 78.8118C135.589 79.6273 135.846 80.6352 135.825 82.6805L135.788 86.2065L138.736 83.8156L139.832 85.1669L134.869 89.1926Z" fill="#0E2517"/>
<path d="M125.27 97.4519L119.974 91.3831L123.556 88.2565C124.483 87.4477 125.471 87.3022 126.33 87.6477C126.712 87.8118 127.119 88.0734 127.741 88.7854L130.966 92.4809L129.452 93.8026L126.187 90.0618C125.585 89.3725 124.932 89.2855 124.288 89.8477L122.593 91.3272L126.785 96.1303L125.27 97.4519Z" fill="#0E2517"/>
<path d="M118.7 103.454L117.563 102.218L120.577 99.4459L118.354 97.0277C117.735 96.3542 117.091 96.2741 116.45 96.8629L114.44 98.7107L113.303 97.474L115.677 95.2912C116.616 94.4282 117.631 94.2691 118.507 94.6456C118.872 94.7989 119.255 95.0379 119.874 95.7115L122.057 98.0855L123.018 97.2022L124.155 98.4389L118.7 103.454Z" fill="#0E2517"/>
<path d="M116.061 105.965L112.623 102.383C111.99 101.723 111.344 101.656 110.716 102.259L108.671 104.222L107.508 103.009L109.921 100.693C110.798 99.8521 111.767 99.6493 112.652 99.9645C113.041 100.11 113.461 100.352 114.115 101.034L117.511 104.573L116.061 105.965Z" fill="#0E2517"/>
<path d="M110.64 111.281L107.103 107.797C106.451 107.155 105.793 107.117 105.193 107.726L102.383 110.58L101.186 109.401L104.344 106.195C105.207 105.318 106.191 105.088 107.063 105.379C107.457 105.514 107.883 105.744 108.556 106.407L112.051 109.849L110.64 111.281ZM106.924 115.053L103.964 112.137L105.375 110.706L108.335 113.621L106.924 115.053Z" fill="#0E2517"/>
<path d="M101.825 120.43L97.1436 116.103L96.5225 116.775L95.2888 115.634L97.2946 113.464L103.21 118.932L101.825 120.43Z" fill="#0E2517"/>
<path d="M97.3363 125.412L94.0701 119.498L90.3832 123.627L89.1302 122.507L94.2358 116.79L95.4553 117.88L98.7351 123.845L97.3363 125.412ZM96.6213 129.117L92.079 125.061L93.4179 123.561L97.9602 127.618L96.6213 129.117Z" fill="#0E2517"/>
<path d="M92.5976 130.836L88.8063 127.63C88.1076 127.039 87.4488 127.052 86.8967 127.705L84.3107 130.763L83.0278 129.678L85.9335 126.242C86.7277 125.303 87.6921 124.998 88.5836 125.222C88.9862 125.327 89.4284 125.524 90.15 126.134L93.8954 129.301L92.5976 130.836ZM89.1786 134.879L86.0058 132.196L87.3037 130.661L90.4764 133.344L89.1786 134.879Z" fill="#0E2517"/>
<path d="M84.4375 136.229L81.6712 133.996L81.0965 134.708L79.7892 133.653L81.6264 131.377L85.7 134.665L84.4375 136.229Z" fill="#0E2517"/>
<path d="M82.3784 143.398L78.8627 137.545L76.3309 140.782L72.8924 138.093L74.1213 136.522L76.2364 138.176L78.8606 134.82L80.1013 135.79L83.6812 141.732L82.3784 143.398Z" fill="#0E2517"/>
<path d="M79.3312 147.416L75.3429 144.458C74.608 143.913 73.9513 143.968 73.442 144.655L71.0565 147.872L69.707 146.871L72.3874 143.256C73.12 142.268 74.063 141.903 74.9669 142.069C75.3754 142.148 75.8293 142.317 76.5884 142.879L80.5284 145.801L79.3312 147.416ZM76.1773 151.669L72.8398 149.194L74.037 147.579L77.3745 150.054L76.1773 151.669Z" fill="#0E2517"/>
<path d="M71.5352 540.567C71.9162 541.125 72.1812 541.725 72.2963 542.318L70.7733 543.36C70.7038 542.753 70.4551 542.123 70.0741 541.566C69.1767 540.254 67.9499 539.948 66.9098 540.659C66.0802 541.226 65.8948 542.098 66.4536 542.915C66.6991 543.274 67.0476 543.545 67.432 543.682L66.2392 544.861L63.1737 544.576L64.977 547.214L63.5654 548.179L60.3906 543.535L61.5422 542.748L64.6539 543.073C63.8934 541.722 64.15 540.184 65.673 539.142C67.6171 537.813 70.0198 538.351 71.5352 540.567Z" fill="#0E2517"/>
<path d="M74.4905 544.767C74.8734 545.305 74.7591 546.049 74.2093 546.441C73.6839 546.815 72.9308 546.689 72.5479 546.151C72.165 545.613 72.2915 544.86 72.8169 544.486C73.3667 544.095 74.1076 544.23 74.4905 544.767Z" fill="#0E2517"/>
<path d="M80.0672 552.725L78.9099 553.582L72.8998 553.254C71.9641 553.201 71.4235 553.302 70.9895 553.624C70.3265 554.115 70.2858 554.891 70.8035 555.591C71.0981 555.988 71.4717 556.216 71.8645 556.242C72.3293 556.29 72.7204 556.112 73.1271 555.83L74.2429 557.337C72.5584 558.565 70.6192 558.266 69.3159 556.506C68.1733 554.963 68.2646 553.271 69.6991 552.209C70.543 551.584 71.5613 551.371 73.6036 551.483L77.1245 551.675L74.8661 548.625L76.2645 547.59L80.0672 552.725Z" fill="#0E2517"/>
<path d="M85.5693 559.489C85.7844 559.759 85.9386 560.001 86.0577 560.27L84.7443 561.318C84.6415 561.093 84.4475 560.825 84.3353 560.685C83.4468 559.57 82.3433 559.606 81.0885 560.607C79.8689 561.58 79.5229 562.661 80.2337 563.553C80.8136 564.28 81.6148 564.274 82.5031 563.968C83.328 563.752 84.3245 563.149 85.7009 562.301L87.0234 561.457L88.2673 563.017C87.055 563.83 85.0056 565.062 83.6013 565.779L82.3764 568.693L80.9642 566.923L81.4604 565.644C80.3757 565.703 79.4838 565.283 78.7636 564.38C77.4636 562.75 77.6634 560.787 79.7391 559.132C81.7913 557.495 83.9793 557.496 85.5693 559.489Z" fill="#0E2517"/>
<path d="M92.8653 568.272C94.6681 570.382 94.5715 572.971 92.3706 574.851L89.6223 577.2L88.3848 575.751L90.9277 573.578C91.1672 573.374 91.3741 573.177 91.5404 572.956C90.5004 572.109 89.6056 572.124 88.4994 573.069L87.1082 574.258L85.8998 572.844L87.3595 571.596C88.9218 570.261 90.3648 570.311 92.18 571.719C92.4156 570.886 92.2054 570.04 91.5817 569.31C90.4221 567.953 88.6259 567.929 87.0522 569.274L84.6233 571.35L83.3857 569.901L85.9515 567.709C88.1638 565.818 90.9554 566.037 92.8653 568.272Z" fill="#0E2517"/>
<path d="M102.197 579.115C101.748 579.401 101.267 579.696 100.742 580.011C99.506 580.747 98.4745 581.218 97.12 580.462L96.2932 584.595L94.7105 582.851L95.4846 578.928C94.5406 578.468 93.8914 578.936 93.1999 579.401C92.8596 579.629 92.5184 579.878 92.2004 580.085L90.8092 578.553C91.1383 578.335 91.5219 578.088 91.9045 577.862C93.2724 577.026 94.3333 576.61 95.7764 577.508L96.663 573.017L98.2457 574.761L97.4148 578.979C98.2813 579.286 98.9114 578.775 99.5352 578.391C100.018 578.075 100.379 577.848 100.786 577.56L102.197 579.115Z" fill="#0E2517"/>
<path d="M108.002 585.234L106.785 586.393L103.962 583.427L101.583 585.692C100.92 586.323 100.851 586.968 101.451 587.598L103.333 589.576L102.116 590.734L99.8928 588.398C99.0136 587.475 98.837 586.462 99.1982 585.58C99.3451 585.212 99.5775 584.826 100.24 584.195L102.576 581.971L101.676 581.026L102.893 579.867L108.002 585.234Z" fill="#0E2517"/>
<path d="M108.649 589.899L106.133 592.411L106.78 593.058L105.591 594.246L103.524 592.176L107.229 588.477L108.649 589.899Z" fill="#0E2517"/>
<path d="M117.829 594.886L112.232 600.679L108.802 597.365C107.917 596.511 107.688 595.539 107.97 594.664C108.09 594.259 108.316 593.831 108.973 593.151L112.38 589.623L117.829 594.886ZM115.216 594.698L112.648 592.218L110.366 594.58C109.73 595.238 109.699 595.897 110.314 596.491L111.954 598.075L115.216 594.698Z" fill="#0E2517"/>
<path d="M123.338 599.997L119.054 604.719L119.732 605.334L118.603 606.578L116.414 604.592L121.827 598.627L123.338 599.997Z" fill="#0E2517"/>
<path d="M130.969 606.688L125.68 612.763L122.094 609.64C121.166 608.833 120.887 607.874 121.112 606.976C121.223 606.575 121.426 606.135 122.047 605.423L125.268 601.724L126.784 603.044L123.523 606.788C122.922 607.478 122.925 608.137 123.57 608.698L125.267 610.176L129.453 605.368L130.969 606.688Z" fill="#0E2517"/>
<path d="M134.067 609.327L129.954 614.197L130.653 614.787L129.568 616.071L127.311 614.164L132.509 608.01L134.067 609.327Z" fill="#0E2517"/>
<path d="M138.973 613.063C139.243 613.278 139.447 613.479 139.624 613.715L138.577 615.029C138.427 614.833 138.178 614.616 138.037 614.504C136.922 613.616 135.855 613.897 134.855 615.153C133.883 616.373 133.788 617.505 134.68 618.215C135.407 618.794 136.187 618.61 136.984 618.114C137.74 617.718 138.577 616.908 139.729 615.774L140.83 614.656L142.391 615.899C141.391 616.962 139.668 618.62 138.459 619.633L137.916 622.748L136.144 621.337L136.342 619.98C135.298 620.28 134.335 620.069 133.431 619.35C131.8 618.051 131.557 616.093 133.21 614.016C134.845 611.962 136.978 611.475 138.973 613.063Z" fill="#0E2517"/>
<path d="M145.579 618.464L142.579 622.42C142.027 623.15 142.062 623.798 142.756 624.323L145.015 626.036L144 627.375L141.335 625.354C140.366 624.62 140.014 623.694 140.187 622.771C140.27 622.364 140.443 621.912 141.014 621.158L143.977 617.249L145.579 618.464Z" fill="#0E2517"/>
<path d="M150.104 625.348L148.02 628.228L148.761 628.764L147.776 630.125L145.407 628.41L148.476 624.169L150.104 625.348Z" fill="#0E2517"/>
<path d="M159.956 628.817L155.347 635.423L151.435 632.693C150.426 631.989 150.047 631.066 150.186 630.157C150.241 629.738 150.397 629.28 150.937 628.505L153.744 624.482L159.956 628.817ZM157.347 629.045L154.419 627.002L152.539 629.696C152.015 630.446 152.089 631.101 152.79 631.59L154.66 632.895L157.347 629.045Z" fill="#0E2517"/>
<path d="M548.998 621.894L549.839 623.063L549.432 629.068C549.366 630.003 549.46 630.545 549.776 630.983C550.258 631.652 551.034 631.703 551.74 631.195C552.142 630.906 552.374 630.535 552.406 630.143C552.46 629.679 552.287 629.285 552.01 628.875L553.532 627.779C554.738 629.48 554.412 631.415 552.635 632.695C551.077 633.817 549.387 633.703 548.344 632.254C547.73 631.402 547.531 630.381 547.67 628.34L547.909 624.822L544.829 627.04L543.812 625.628L548.998 621.894Z" fill="#0E2517"/>
<path d="M551.567 619.717C552.094 619.319 552.841 619.413 553.247 619.952C553.636 620.467 553.53 621.224 553.003 621.621C552.476 622.018 551.72 621.912 551.331 621.397C550.925 620.859 551.04 620.114 551.567 619.717Z" fill="#0E2517"/>
<path d="M559.38 613.939L560.265 615.074L560.088 621.091C560.057 622.027 560.172 622.565 560.505 622.991C561.012 623.642 561.789 623.663 562.475 623.128C562.866 622.823 563.084 622.444 563.1 622.051C563.137 621.585 562.949 621.199 562.657 620.799L564.135 619.646C565.406 621.299 565.154 623.245 563.427 624.592C561.913 625.773 560.22 625.724 559.122 624.316C558.477 623.488 558.238 622.476 558.299 620.431L558.403 616.907L555.411 619.24L554.341 617.868L559.38 613.939Z" fill="#0E2517"/>
<path d="M566.465 608.131L568.846 614.453L573.089 610.898L574.168 612.186L568.292 617.109L567.242 615.855L564.855 609.48L566.465 608.131ZM567.706 604.567L571.617 609.235L570.076 610.526L566.165 605.858L567.706 604.567Z" fill="#0E2517"/>
<path d="M571.931 603.449L575.217 607.171C575.823 607.857 576.465 607.95 577.117 607.374L579.242 605.497L580.354 606.757L577.847 608.971C576.936 609.775 575.959 609.937 575.088 609.586C574.705 609.424 574.296 609.165 573.671 608.456L570.424 604.779L571.931 603.449Z" fill="#0E2517"/>
<path d="M579.203 596.869L581.898 603.064L585.957 599.301L587.099 600.534L581.477 605.744L580.366 604.545L577.663 598.296L579.203 596.869ZM580.264 593.247L584.404 597.714L582.93 599.08L578.79 594.613L580.264 593.247Z" fill="#0E2517"/>
<path d="M588.308 588.112L589.484 589.312L587.802 590.96L594.074 593.739L592.51 595.272L586.502 592.527C586.35 592.95 586.441 593.365 586.817 593.962C587.223 594.72 588.282 595.929 589.101 596.765L590.025 597.707L588.546 599.156C588.242 598.845 587.927 598.524 587.507 598.074C586.909 597.442 586.185 596.64 585.693 595.966C584.135 593.797 584.258 592.08 586.529 589.855L588.308 588.112Z" fill="#0E2517"/>
<path d="M593.39 582.927L597.985 587.347L598.619 586.688L599.83 587.853L597.781 589.982L591.976 584.397L593.39 582.927Z" fill="#0E2517"/>
<path d="M599.759 576.098L600.992 577.24L598.179 580.278L606.047 581.164L604.487 582.848L600.713 582.42C600.5 583.224 601.031 583.777 601.523 584.416C601.767 584.704 601.991 584.992 602.235 585.28L600.798 586.832L600.036 585.779C599.185 584.623 598.626 583.615 599.199 582.245L596.332 581.92L595.275 580.941L599.759 576.098Z" fill="#0E2517"/>
<path d="M602.912 572.256C603.139 571.997 603.35 571.802 603.594 571.638L604.857 572.745C604.654 572.886 604.425 573.124 604.306 573.26C603.367 574.331 603.597 575.411 604.804 576.469C605.977 577.497 607.103 577.647 607.855 576.789C608.468 576.09 608.32 575.303 607.863 574.482C607.503 573.709 606.734 572.834 605.656 571.63L604.591 570.477L605.907 568.977C606.921 570.027 608.496 571.826 609.45 573.081L612.535 573.771L611.042 575.475L609.696 575.212C609.946 576.269 609.69 577.222 608.929 578.09C607.554 579.658 605.587 579.808 603.591 578.058C601.617 576.328 601.231 574.174 602.912 572.256Z" fill="#0E2517"/>
<path d="M612.119 561.667L618.323 566.804L615.291 570.466C614.506 571.414 613.555 571.716 612.651 571.514C612.248 571.413 611.804 571.22 611.076 570.618L607.298 567.489L608.58 565.941L612.404 569.108C613.109 569.691 613.767 569.672 614.313 569.014L615.748 567.281L610.837 563.215L612.119 561.667Z" fill="#0E2517"/>
<path d="M616.908 560.223L619.685 562.443L620.256 561.728L621.568 562.777L619.742 565.062L615.653 561.793L616.908 560.223Z" fill="#0E2517"/>
<path d="M619.794 556.51L622.617 558.672L623.173 557.945L624.507 558.967L622.729 561.289L618.572 558.106L619.794 556.51Z" fill="#0E2517"/>
<path d="M620.272 551.168L624.265 554.12C625 554.664 625.657 554.608 626.165 553.921L628.546 550.701L629.897 551.699L627.222 555.318C626.49 556.307 625.548 556.673 624.644 556.508C624.235 556.43 623.781 556.262 623.021 555.7L619.077 552.784L620.272 551.168ZM623.421 546.91L626.762 549.381L625.566 550.997L622.226 548.526L623.421 546.91Z" fill="#0E2517"/>
<path d="M601.256 125.758L606.893 120.697L605.66 119.324L606.71 118.382C607.541 119.309 608.546 119.395 609.504 118.958L610.576 120.152L602.629 127.287L601.256 125.758Z" fill="#0E2517"/>
<path d="M598.529 123.046C598.085 122.558 598.111 121.805 598.61 121.351C599.088 120.917 599.851 120.954 600.294 121.442C600.738 121.931 600.702 122.694 600.224 123.127C599.725 123.581 598.973 123.535 598.529 123.046Z" fill="#0E2517"/>
<path d="M592.033 115.819L593.078 114.828L599.083 114.424C600.019 114.364 600.543 114.197 600.935 113.825C601.533 113.258 601.479 112.482 600.881 111.851C600.54 111.491 600.141 111.311 599.748 111.333C599.281 111.342 598.915 111.565 598.545 111.895L597.255 110.535C598.778 109.111 600.739 109.173 602.246 110.762C603.568 112.155 603.682 113.845 602.387 115.073C601.626 115.796 600.641 116.131 598.6 116.268L595.082 116.504L597.694 119.257L596.431 120.455L592.033 115.819Z" fill="#0E2517"/>
<path d="M585.74 109.783C585.494 109.542 585.311 109.321 585.16 109.068L586.336 107.868C586.465 108.079 586.69 108.32 586.819 108.446C587.837 109.444 588.928 109.273 590.051 108.127C591.143 107.013 591.354 105.897 590.54 105.099C589.876 104.448 589.081 104.552 588.237 104.963C587.444 105.279 586.529 105.999 585.266 107.009L584.057 108.008L582.632 106.611C583.736 105.656 585.62 104.184 586.926 103.301L587.786 100.258L589.404 101.844L589.067 103.173C590.137 102.982 591.073 103.29 591.898 104.099C593.387 105.558 593.429 107.53 591.57 109.427C589.733 111.302 587.561 111.568 585.74 109.783Z" fill="#0E2517"/>
<path d="M581.547 101.594L583.963 98.9863L583.292 98.3645L584.434 97.1321L586.579 99.1199L583.021 102.96L581.547 101.594Z" fill="#0E2517"/>
<path d="M572.199 96.9476L577.586 90.959L581.133 94.1491C582.047 94.9717 582.31 95.9349 582.06 96.8191C581.954 97.2283 581.743 97.6643 581.111 98.3669L577.831 102.014L572.199 96.9476ZM574.817 97.0428L577.471 99.4303L579.668 96.9881C580.28 96.3078 580.288 95.6489 579.652 95.0771L577.957 93.5522L574.817 97.0428Z" fill="#0E2517"/>
<path d="M336.57 662.731C336.654 662.314 336.75 661.872 336.858 661.395C337.117 660.273 337.416 659.417 338.602 659.053L336.672 656.288L338.555 656.339L340.393 658.957C341.182 658.666 341.271 658.033 341.384 657.375C341.441 657.053 341.486 656.718 341.542 656.419L343.198 656.464C343.141 656.774 343.072 657.133 342.99 657.479C342.716 658.732 342.37 659.575 341.052 659.911L343.156 662.909L341.273 662.858L339.296 660.044C338.639 660.374 338.585 661.021 338.462 661.594C338.377 662.048 338.308 662.382 338.25 662.777L336.57 662.731Z" fill="#0E2517"/>
<path d="M345.371 662.949L345.376 661.617L347.056 661.624C348.784 661.631 349.53 661.118 349.537 659.546C349.542 658.274 348.969 657.671 347.889 657.667C347.001 657.663 346.447 658.093 346.444 658.741C346.442 659.281 346.825 659.535 347.304 659.621L347.299 660.929C346.495 660.925 344.913 660.475 344.92 658.795C344.926 657.307 346.166 656.316 348.014 656.323C350.042 656.332 351.118 657.428 351.109 659.456C351.1 661.736 349.787 662.967 347.315 662.957L345.371 662.949Z" fill="#0E2517"/>
<path d="M356.219 662.896L356.134 658.925C356.118 658.193 355.773 657.804 355.078 657.819L352.81 657.868L352.781 656.524L355.457 656.467C356.428 656.446 357.109 656.851 357.46 657.516C357.61 657.812 357.726 658.182 357.742 658.938L357.827 662.861L356.219 662.896Z" fill="#0E2517"/>
<path d="M364.047 662.763C363.771 662.775 363.542 662.762 363.312 662.712L363.251 661.37C363.445 661.409 363.709 661.409 363.853 661.402C364.991 661.35 365.487 660.619 365.428 659.336C365.371 658.09 364.834 657.357 363.923 657.399C363.179 657.433 362.807 657.954 362.587 658.673C362.34 659.309 362.262 660.238 362.165 661.527L362.09 662.78L360.495 662.853C360.538 661.685 360.704 659.78 360.899 658.534L359.587 656.371L361.397 656.289L361.992 657.211C362.463 656.48 363.155 656.101 364.078 656.059C365.744 655.983 366.921 657.034 367.018 659.156C367.113 661.254 366.085 662.67 364.047 662.763Z" fill="#0E2517"/>
<path d="M329.388 536.949L329.807 532.999C329.884 532.271 329.58 531.84 328.9 531.768L325.713 531.431L325.855 530.094L329.435 530.474C330.414 530.577 331.048 531.079 331.301 531.769C331.412 532.083 331.481 532.464 331.401 533.216L330.987 537.118L329.388 536.949ZM325.176 536.502L325.526 533.197L327.125 533.366L326.775 536.672L325.176 536.502Z" fill="#0E2517"/>
<path d="M337.183 537.717C336.907 537.7 336.681 537.662 336.457 537.589L336.539 536.247C336.728 536.307 336.99 536.335 337.134 536.343C338.272 536.413 338.842 535.738 338.92 534.456C338.996 533.211 338.539 532.425 337.628 532.37C336.886 532.325 336.46 532.804 336.165 533.495C335.852 534.101 335.676 535.016 335.442 536.288L335.235 537.526L333.642 537.429C333.808 536.273 334.175 534.396 334.502 533.178L333.427 530.888L335.235 530.998L335.729 531.978C336.275 531.302 337.003 530.997 337.925 531.054C339.59 531.155 340.649 532.325 340.52 534.445C340.392 536.542 339.219 537.841 337.183 537.717Z" fill="#0E2517"/>
<path d="M343.097 535.629L343.169 532.786L342.438 532.767L342.472 531.424L344.811 531.483L344.705 535.67L343.097 535.629Z" fill="#0E2517"/>
<path d="M347.76 535.719L347.769 532.875L347.037 532.872L347.042 531.528L349.382 531.536L349.368 535.724L347.76 535.719Z" fill="#0E2517"/>
<path d="M354.602 537.871L356.218 532.714L351.793 532.862L351.748 531.519L357.876 531.313L357.92 532.621L356.281 537.814L354.602 537.871ZM352.063 539.504L351.9 534.635L353.507 534.581L353.67 539.451L352.063 539.504Z" fill="#0E2517"/>
<path d="M366.976 537.121L366.616 533.166C366.549 532.437 366.179 532.073 365.486 532.136L363.227 532.342L363.105 531.004L365.77 530.761C366.738 530.672 367.445 531.03 367.841 531.668C368.012 531.954 368.153 532.315 368.222 533.068L368.578 536.975L366.976 537.121Z" fill="#0E2517"/>
<path d="M370.871 536.743L370.696 535.41L373.944 534.983L373.602 532.378C373.506 531.652 373.122 531.303 372.431 531.394L370.266 531.679L370.091 530.346L372.649 530.01C373.66 529.877 374.398 530.24 374.798 530.889C374.966 531.157 375.107 531.49 375.202 532.216L375.539 534.774L376.574 534.638L376.749 535.97L370.871 536.743Z" fill="#0E2517"/>
<path d="M323.311 402.116L325.027 398.534C325.344 397.874 325.212 397.371 324.584 397.071L322.539 396.09L323.12 394.878L325.533 396.035C326.41 396.455 326.834 397.124 326.847 397.875C326.847 398.208 326.784 398.59 326.457 399.272L324.761 402.811L323.311 402.116Z" fill="#0E2517"/>
<path d="M326.829 403.729L327.254 402.479L328.503 402.905C329.878 403.373 330.715 403.074 331.159 401.768C331.565 400.575 331.213 399.821 330.089 399.439L328.532 398.909L328.962 397.648L330.87 398.298C332.688 398.916 333.385 400.218 332.72 402.172C332.013 404.251 330.475 404.97 328.26 404.216L326.829 403.729Z" fill="#0E2517"/>
<path d="M334.74 403.921L335.394 401.154L334.681 400.985L334.99 399.677L337.268 400.215L336.305 404.291L334.74 403.921Z" fill="#0E2517"/>
<path d="M338.066 407L338.261 405.682L339.092 405.805C339.614 405.882 339.917 405.635 339.996 405.101L340.428 402.169L338.968 401.953L339.164 400.624L342.215 401.073L341.597 405.264C341.496 405.953 341.333 406.317 341.126 406.565C340.763 407.058 340.132 407.304 339.313 407.184L338.066 407Z" fill="#0E2517"/>
<path d="M350.428 407.867L350.346 403.896C350.331 403.164 349.987 402.775 349.291 402.789L347.024 402.836L346.996 401.492L349.672 401.437C350.643 401.417 351.324 401.823 351.674 402.488C351.824 402.785 351.939 403.155 351.955 403.911L352.036 407.834L350.428 407.867Z" fill="#0E2517"/>
<path d="M355.025 407.651L354.445 402.584L353.718 402.667L353.565 401.332L355.914 401.063L356.647 407.465L355.025 407.651Z" fill="#0E2517"/>
<path d="M359.39 407.04L359.091 405.742L360.728 405.365C362.412 404.977 363.021 404.307 362.668 402.775C362.382 401.535 361.686 401.08 360.634 401.323C359.768 401.522 359.327 402.067 359.473 402.698C359.594 403.225 360.025 403.384 360.512 403.358L360.805 404.633C360.022 404.813 358.379 404.736 358.001 403.099C357.667 401.649 358.648 400.401 360.449 399.986C362.425 399.531 363.723 400.352 364.178 402.328C364.69 404.55 363.693 406.048 361.284 406.603L359.39 407.04Z" fill="#0E2517"/>
<path d="M366.832 402.884L365.905 400.195L365.213 400.434L364.774 399.163L366.987 398.4L368.352 402.359L366.832 402.884Z" fill="#0E2517"/>
<path d="M374.902 402.111C372.903 403.075 370.92 402.472 369.914 400.385L368.658 397.78L370.031 397.119L371.193 399.529C371.303 399.756 371.413 399.956 371.55 400.13C372.417 399.498 372.589 398.803 372.083 397.755L371.447 396.436L372.788 395.79L373.455 397.173C374.169 398.654 373.836 399.76 372.376 400.877C372.972 401.229 373.67 401.239 374.362 400.906C375.648 400.286 376.033 398.901 375.314 397.41L374.204 395.107L375.577 394.445L376.749 396.877C377.76 398.975 377.021 401.089 374.902 402.111Z" fill="#0E2517"/>
<path d="M334.367 371.124L336.569 367.818C336.974 367.209 336.914 366.693 336.335 366.307L334.447 365.05L335.192 363.932L337.419 365.415C338.228 365.953 338.555 366.675 338.462 367.421C338.416 367.751 338.299 368.12 337.88 368.749L335.706 372.016L334.367 371.124Z" fill="#0E2517"/>
<path d="M338.508 373.539L338.889 372.263L340.499 372.744C342.155 373.238 343.015 372.957 343.465 371.45C343.829 370.231 343.449 369.492 342.414 369.183C341.563 368.929 340.91 369.185 340.725 369.806C340.571 370.323 340.866 370.674 341.302 370.892L340.928 372.146C340.158 371.916 338.767 371.037 339.248 369.427C339.673 368.001 341.143 367.401 342.913 367.929C344.857 368.509 345.579 369.865 344.999 371.808C344.347 373.993 342.74 374.803 340.371 374.096L338.508 373.539Z" fill="#0E2517"/>
<path d="M347.155 375.777L347.341 370.681L346.609 370.654L346.658 369.311L349.021 369.397L348.785 375.837L347.155 375.777Z" fill="#0E2517"/>
<path d="M355.515 374.957C353.366 375.516 351.538 374.541 350.955 372.3L350.226 369.501L351.701 369.118L352.375 371.707C352.439 371.951 352.508 372.169 352.608 372.366C353.582 371.914 353.884 371.265 353.591 370.138L353.223 368.722L354.663 368.347L355.049 369.833C355.463 371.424 354.923 372.445 353.275 373.259C353.792 373.719 354.474 373.864 355.217 373.671C356.599 373.311 357.245 372.027 356.828 370.425L356.184 367.951L357.659 367.567L358.339 370.18C358.925 372.433 357.791 374.365 355.515 374.957Z" fill="#0E2517"/>
<path d="M365.204 370.846C364.976 371.001 364.774 371.109 364.552 371.188L363.796 370.076C363.982 370.008 364.207 369.869 364.326 369.788C365.269 369.147 365.307 368.265 364.585 367.203C363.884 366.171 363.042 365.829 362.288 366.342C361.672 366.76 361.628 367.4 361.818 368.127C361.941 368.798 362.361 369.63 362.954 370.779L363.546 371.886L362.226 372.783C361.651 371.766 360.794 370.057 360.307 368.893L358.057 367.739L359.555 366.72L360.545 367.193C360.563 366.325 360.953 365.639 361.717 365.119C363.097 364.181 364.65 364.46 365.845 366.217C367.025 367.953 366.891 369.699 365.204 370.846Z" fill="#0E2517"/>
</svg>