<svg xmlns="http://www.w3.org/2000/svg" width="680" height="680" viewBox="0 0 680 680" fill="none">
<g clip-path="url(#clip0_4001_1231)">
<circle cx="340" cy="339.999" r="325" fill="#F4F4F4"/>
<circle cx="340" cy="339.999" r="324.5" stroke="#0E2517" stroke-opacity="0.2"/>
<circle cx="340" cy="340" r="195" fill="#F4F4F4"/>
<circle cx="340" cy="340" r="194.5" stroke="#0E2517" stroke-opacity="0.5"/>
<circle cx="340" cy="340" r="65" fill="#F4F4F4"/>
<circle cx="340" cy="340" r="64.5338" stroke="#0E2517" stroke-opacity="0.2" stroke-width="0.932432"/>
<circle cx="32.5" cy="32.5" r="32.5" transform="matrix(1 0 0 -1 308 373)" fill="#F4F4F4"/>
<circle cx="32.5" cy="32.5" r="32" transform="matrix(1 0 0 -1 308 373)" stroke="#0E2517" stroke-opacity="0.2"/>
<path d="M110 109.999L569.619 569.618" stroke="#0E2517" stroke-opacity="0.2"/>
<path d="M570 109.999L110.381 569.618" stroke="#0E2517" stroke-opacity="0.2"/>
<path d="M69.3292 137.413L65.341 134.456C64.6061 133.911 63.9493 133.965 63.4401 134.652L61.0546 137.869L59.7051 136.868L62.3854 133.254C63.1181 132.266 64.0611 131.901 64.965 132.067C65.3734 132.145 65.8274 132.314 66.5864 132.877L70.5264 135.798L69.3292 137.413ZM66.1754 141.666L62.8378 139.191L64.0351 137.577L67.3726 140.052L66.1754 141.666ZM72.3764 133.395L68.8607 127.542L66.3289 130.78L62.8905 128.091L64.1194 126.519L66.2345 128.173L68.8587 124.817L70.0994 125.788L73.6793 131.729L72.3764 133.395ZM74.4356 126.226L71.6693 123.993L71.0946 124.705L69.7873 123.65L71.6245 121.374L75.6981 124.662L74.4356 126.226ZM82.5956 120.833L78.8044 117.627C78.1057 117.037 77.4469 117.049 76.8948 117.702L74.3087 120.76L73.0259 119.675L75.9316 116.239C76.7258 115.3 77.6902 114.996 78.5817 115.219C78.9842 115.324 79.4265 115.521 80.1481 116.131L83.8935 119.299L82.5956 120.833ZM79.1766 124.877L76.0039 122.194L77.3018 120.659L80.4745 123.342L79.1766 124.877ZM87.3343 115.409L84.0682 109.496L80.3813 113.624L79.1283 112.505L84.2339 106.788L85.4534 107.877L88.7331 113.843L87.3343 115.409ZM86.6194 119.115L82.0771 115.058L83.4159 113.559L87.9583 117.615L86.6194 119.115ZM91.823 110.428L87.1416 106.1L86.5205 106.772L85.2869 105.632L87.2927 103.462L93.2077 108.93L91.823 110.428ZM100.638 101.278L97.101 97.7943C96.4491 97.1522 95.7912 97.1147 95.1912 97.7238L92.3807 100.577L91.1838 99.3981L94.3417 96.1922C95.2049 95.3159 96.1896 95.0858 97.0615 95.3762C97.455 95.5111 97.881 95.7413 98.5542 96.4044L102.049 99.8465L100.638 101.278ZM96.9223 105.051L93.9622 102.135L95.3727 100.703L98.3328 103.619L96.9223 105.051ZM106.059 95.9625L102.621 92.3802C101.988 91.72 101.342 91.6537 100.714 92.2561L98.6689 94.219L97.5057 93.0069L99.9192 90.6908C100.796 89.8496 101.765 89.6467 102.65 89.962C103.04 90.1079 103.459 90.3499 104.113 91.0318L107.509 94.5708L106.059 95.9625ZM108.698 93.4518L107.561 92.2151L110.576 89.4434L108.352 87.0252C107.733 86.3517 107.089 86.2715 106.448 86.8604L104.439 88.7082L103.301 87.4715L105.675 85.2887C106.614 84.4257 107.629 84.2666 108.505 84.643C108.87 84.7964 109.253 85.0354 109.872 85.7089L112.055 88.0829L113.016 87.1996L114.153 88.4363L108.698 93.4518ZM115.268 87.4494L109.972 81.3806L113.554 78.254C114.481 77.4452 115.469 77.2997 116.328 77.6451C116.71 77.8093 117.117 78.0709 117.739 78.7828L120.964 82.4784L119.45 83.8L116.185 80.0593C115.583 79.3699 114.93 79.283 114.286 79.8452L112.591 81.3247L116.783 86.1277L115.268 87.4494ZM124.867 79.19L123.96 78.0717L124.022 72.053C124.035 71.1159 123.909 70.5803 123.569 70.1609C123.049 69.5202 122.271 69.5138 121.596 70.0619C121.211 70.3738 121.001 70.7571 120.992 71.1507C120.964 71.6171 121.159 71.9999 121.459 72.3938L120.003 73.5751C118.701 71.9464 118.915 69.9959 120.616 68.6162C122.107 67.4065 123.801 67.4231 124.925 68.8093C125.587 69.6247 125.844 70.6327 125.823 72.678L125.786 76.2039L128.734 73.813L129.83 75.1643L124.867 79.19ZM132.577 73.2756C132.055 73.6797 131.307 73.5953 130.893 73.0616C130.498 72.5517 130.595 71.7941 131.116 71.3899C131.638 70.9858 132.396 71.0821 132.791 71.5921C133.204 72.1257 133.099 72.8715 132.577 73.2756ZM138.619 68.4468L137.298 66.6812L133.358 69.6286L132.361 68.2954L131.332 60.5602L133.073 59.2572L134.105 66.9714L136.291 65.336L135.231 63.9188L136.747 62.7656L137.817 64.1948L138.633 63.5838L139.64 64.929L138.823 65.54L140.144 67.3056L138.619 68.4468Z" fill="#0E2517"/>
<path d="M149.956 618.814L145.347 625.42L141.435 622.69C140.426 621.986 140.047 621.062 140.187 620.154C140.241 619.735 140.397 619.276 140.937 618.501L143.744 614.479L149.956 618.814ZM147.347 619.041L144.419 616.998L142.539 619.692C142.015 620.443 142.089 621.097 142.79 621.587L144.66 622.892L147.347 619.041ZM140.104 615.344L138.02 618.224L138.761 618.761L137.776 620.122L135.407 618.407L138.476 614.166L140.104 615.344ZM135.579 608.46L132.58 612.417C132.027 613.146 132.062 613.794 132.756 614.32L135.015 616.032L134 617.371L131.335 615.351C130.366 614.617 130.014 613.691 130.187 612.768C130.27 612.36 130.443 611.908 131.014 611.155L133.977 607.246L135.579 608.46ZM128.973 603.06C129.243 603.275 129.447 603.475 129.624 603.712L128.577 605.026C128.427 604.83 128.178 604.612 128.037 604.5C126.922 603.613 125.855 603.894 124.855 605.15C123.883 606.37 123.788 607.502 124.68 608.212C125.407 608.791 126.187 608.607 126.984 608.11C127.74 607.715 128.577 606.905 129.729 605.771L130.83 604.653L132.391 605.895C131.391 606.959 129.668 608.617 128.459 609.63L127.916 612.744L126.144 611.333L126.342 609.977C125.298 610.277 124.335 610.066 123.431 609.346C121.8 608.048 121.557 606.09 123.21 604.013C124.845 601.959 126.978 601.471 128.973 603.06ZM124.067 599.323L119.954 604.193L120.653 604.784L119.568 606.067L117.311 604.16L122.509 598.007L124.067 599.323ZM120.969 596.685L115.68 602.76L112.094 599.637C111.166 598.829 110.887 597.87 111.112 596.972C111.223 596.571 111.426 596.132 112.047 595.419L115.268 591.72L116.784 593.04L113.523 596.785C112.922 597.475 112.925 598.134 113.57 598.695L115.267 600.173L119.453 595.365L120.969 596.685ZM113.338 589.994L109.054 594.716L109.732 595.33L108.603 596.575L106.414 594.589L111.827 588.623L113.338 589.994ZM107.829 584.883L102.232 590.676L98.8016 587.362C97.9169 586.507 97.6879 585.536 97.9698 584.661C98.0901 584.256 98.316 583.827 98.9726 583.148L102.38 579.62L107.829 584.883ZM105.216 584.694L102.648 582.214L100.366 584.577C99.7301 585.235 99.699 585.893 100.314 586.487L101.954 588.071L105.216 584.694ZM98.6491 579.896L96.1334 582.408L96.7799 583.055L95.5911 584.242L93.5244 582.172L97.2289 578.473L98.6491 579.896ZM98.0022 575.231L96.7855 576.389L93.9619 573.423L91.5827 575.688C90.9199 576.319 90.851 576.965 91.4509 577.595L93.3332 579.572L92.1164 580.731L89.8928 578.395C89.0137 577.471 88.837 576.459 89.1982 575.577C89.3452 575.209 89.5775 574.822 90.2402 574.191L92.576 571.968L91.6762 571.022L92.893 569.864L98.0022 575.231ZM92.1975 569.112C91.7482 569.398 91.2667 569.693 90.7417 570.007C89.5061 570.744 88.4745 571.214 87.12 570.459L86.2932 574.592L84.7105 572.848L85.4847 568.924C84.5406 568.465 83.8914 568.932 83.1999 569.398C82.8597 569.626 82.5184 569.875 82.2004 570.082L80.8092 568.549C81.1383 568.332 81.522 568.085 81.9046 567.859C83.2725 567.023 84.3333 566.607 85.7764 567.505L86.663 563.014L88.2457 564.758L87.4149 568.976C88.2813 569.283 88.9114 568.772 89.5353 568.388C90.0178 568.072 90.3793 567.845 90.7861 567.557L92.1975 569.112ZM82.8653 558.269C84.6681 560.379 84.5715 562.967 82.3706 564.848L79.6224 567.196L78.3848 565.748L80.9278 563.575C81.1672 563.37 81.3742 563.174 81.5404 562.953C80.5004 562.105 79.6056 562.12 78.4994 563.065L77.1082 564.254L75.8999 562.84L77.3595 561.593C78.9218 560.258 80.3649 560.307 82.1801 561.716C82.4156 560.883 82.2054 560.037 81.5817 559.307C80.4221 557.95 78.626 557.926 77.0523 559.271L74.6233 561.346L73.3857 559.898L75.9515 557.706C78.1638 555.815 80.9554 556.034 82.8653 558.269ZM75.5693 549.486C75.7844 549.756 75.9387 549.997 76.0577 550.267L74.7443 551.314C74.6416 551.089 74.4475 550.822 74.3353 550.681C73.4468 549.567 72.3434 549.603 71.0885 550.604C69.8689 551.576 69.5229 552.658 70.2337 553.549C70.8136 554.276 71.6148 554.271 72.5031 553.965C73.328 553.748 74.3245 553.146 75.7009 552.297L77.0234 551.454L78.2673 553.013C77.055 553.827 75.0057 555.058 73.6014 555.775L72.3765 558.69L70.9642 556.919L71.4604 555.641C70.3757 555.7 69.4838 555.279 68.7637 554.376C67.4636 552.746 67.6634 550.784 69.7391 549.128C71.7913 547.491 73.9793 547.492 75.5693 549.486ZM70.0672 542.722L68.9099 543.579L62.8998 543.251C61.9641 543.197 61.4235 543.299 60.9895 543.62C60.3265 544.111 60.2858 544.888 60.8035 545.587C61.0981 545.985 61.4717 546.212 61.8646 546.239C62.3293 546.287 62.7204 546.109 63.1271 545.826L64.2429 547.333C62.5584 548.562 60.6192 548.262 59.3159 546.502C58.1733 544.959 58.2646 543.268 59.6992 542.205C60.543 541.581 61.5613 541.368 63.6037 541.479L67.1246 541.672L64.8661 538.622L66.2645 537.586L70.0672 542.722ZM64.4905 534.764C64.8734 535.302 64.7591 536.046 64.2093 536.438C63.684 536.812 62.9308 536.685 62.5479 536.148C62.165 535.61 62.2916 534.857 62.8169 534.483C63.3667 534.091 64.1076 534.226 64.4905 534.764ZM61.5353 530.564C61.9162 531.121 62.1812 531.721 62.2964 532.315L60.7733 533.356C60.7038 532.75 60.4551 532.12 60.0741 531.563C59.1767 530.25 57.95 529.944 56.9098 530.656C56.0802 531.223 55.8949 532.094 56.4536 532.912C56.6991 533.271 57.0476 533.541 57.432 533.678L56.2393 534.857L53.1738 534.573L54.9771 537.21L53.5655 538.175L50.3907 533.532L51.5422 532.745L54.654 533.07C53.8934 531.719 54.15 530.18 55.673 529.139C57.6171 527.81 60.0198 528.347 61.5353 530.564Z" fill="#0E2517"/>
<path d="M610.275 541.164L614.267 544.116C615.002 544.66 615.659 544.605 616.167 543.917L618.549 540.697L619.9 541.696L617.224 545.314C616.493 546.303 615.55 546.669 614.646 546.504C614.237 546.426 613.783 546.258 613.023 545.696L609.08 542.78L610.275 541.164ZM613.423 536.906L616.764 539.377L615.569 540.993L612.228 538.523L613.423 536.906ZM609.797 546.507L612.619 548.668L613.176 547.942L614.509 548.963L612.731 551.285L608.575 548.103L609.797 546.507ZM606.91 550.219L609.687 552.439L610.259 551.724L611.571 552.774L609.744 555.058L605.655 551.789L606.91 550.219ZM602.122 551.663L608.326 556.8L605.293 560.463C604.509 561.41 603.557 561.713 602.654 561.51C602.25 561.409 601.806 561.217 601.078 560.614L597.3 557.486L598.582 555.938L602.406 559.104C603.111 559.688 603.77 559.668 604.315 559.01L605.75 557.277L600.84 553.211L602.122 551.663ZM592.914 562.253C593.142 561.993 593.352 561.799 593.596 561.634L594.86 562.742C594.656 562.882 594.427 563.121 594.309 563.256C593.369 564.328 593.6 565.407 594.806 566.465C595.979 567.494 597.105 567.643 597.857 566.786C598.47 566.086 598.323 565.299 597.865 564.479C597.506 563.705 596.736 562.831 595.658 561.626L594.594 560.474L595.909 558.974C596.924 560.023 598.498 561.822 599.452 563.078L602.538 563.768L601.044 565.471L599.699 565.209C599.949 566.266 599.692 567.218 598.931 568.086C597.556 569.654 595.589 569.805 593.593 568.054C591.619 566.324 591.233 564.17 592.914 562.253ZM589.761 566.095L590.994 567.236L588.181 570.274L596.049 571.16L594.49 572.844L590.716 572.416C590.503 573.22 591.033 573.773 591.525 574.412C591.77 574.7 591.993 574.989 592.238 575.277L590.801 576.828L590.038 575.775C589.187 574.619 588.628 573.611 589.202 572.241L586.334 571.916L585.277 570.938L589.761 566.095ZM583.393 572.924L587.987 577.344L588.621 576.684L589.832 577.849L587.783 579.978L581.978 574.394L583.393 572.924ZM578.31 578.108L579.486 579.308L578.639 580.137L577.804 580.956L584.076 583.735L582.512 585.268L576.505 582.524C576.352 582.946 576.443 583.361 576.819 583.959C577.225 584.716 578.284 585.925 579.103 586.761L580.027 587.704L578.548 589.152C578.244 588.842 577.929 588.52 577.509 588.071C576.911 587.439 576.187 586.636 575.695 585.963C574.137 583.794 574.26 582.077 576.532 579.851L578.31 578.108ZM569.206 586.865L571.9 593.06L575.959 589.298L577.101 590.53L571.479 595.74L570.368 594.541L567.665 588.293L569.206 586.865ZM570.267 583.244L574.406 587.71L572.932 589.077L568.793 584.61L570.267 583.244ZM561.933 593.445L565.219 597.167C565.825 597.853 566.467 597.946 567.119 597.37L569.245 595.494L570.357 596.753L567.849 598.967C566.938 599.771 565.961 599.934 565.09 599.582C564.707 599.42 564.298 599.161 563.673 598.453L560.426 594.776L561.933 593.445ZM556.467 598.127L558.848 604.449L563.091 600.895L564.17 602.183L558.294 607.105L557.244 605.852L554.858 599.476L556.467 598.127ZM557.708 594.563L561.619 599.232L560.079 600.522L556.168 595.854L557.708 594.563ZM549.382 603.935L550.267 605.071L550.09 611.087C550.06 612.024 550.175 612.562 550.507 612.987C551.014 613.638 551.792 613.659 552.478 613.124C552.868 612.82 553.086 612.441 553.103 612.047C553.139 611.582 552.951 611.195 552.659 610.795L554.137 609.642C555.408 611.296 555.156 613.242 553.43 614.589C551.916 615.769 550.222 615.72 549.125 614.313C548.479 613.485 548.241 612.472 548.301 610.428L548.406 606.903L545.413 609.237L544.343 607.865L549.382 603.935ZM541.569 609.713C542.096 609.316 542.843 609.41 543.25 609.949C543.638 610.464 543.532 611.22 543.005 611.617C542.478 612.015 541.722 611.909 541.333 611.394C540.927 610.855 541.042 610.111 541.569 609.713ZM539 611.89L539.842 613.059L539.434 619.064C539.368 619.999 539.462 620.541 539.778 620.979C540.26 621.649 541.036 621.7 541.742 621.191C542.144 620.902 542.376 620.531 542.408 620.139C542.462 619.675 542.289 619.282 542.012 618.871L543.534 617.775C544.74 619.476 544.415 621.411 542.637 622.691C541.079 623.813 539.389 623.699 538.346 622.251C537.733 621.399 537.533 620.377 537.672 618.337L537.911 614.819L534.832 617.036L533.815 615.624L539 611.89Z" fill="#0E2517"/>
<path d="M562.202 85.9449L567.589 79.9563L571.135 83.1464C572.05 83.969 572.313 84.9322 572.063 85.8164C571.957 86.2256 571.746 86.6616 571.114 87.3642L567.834 91.0109L562.202 85.9449ZM564.82 86.0401L567.474 88.4276L569.671 85.9854C570.283 85.3051 570.291 84.6462 569.655 84.0744L567.96 82.5495L564.82 86.0401ZM571.55 90.5914L573.966 87.9836L573.295 87.3618L574.436 86.1294L576.582 88.1173L573.024 91.9575L571.55 90.5914ZM575.743 98.7804C575.496 98.5389 575.314 98.318 575.163 98.065L576.339 96.8651C576.468 97.0759 576.693 97.3176 576.822 97.4435C577.84 98.4409 578.93 98.2707 580.054 97.1243C581.146 96.0101 581.357 94.8942 580.543 94.0963C579.878 93.4454 579.084 93.5489 578.24 93.9606C577.447 94.2763 576.532 94.9962 575.269 96.0061L574.059 97.0049L572.635 95.6086C573.739 94.6534 575.622 93.181 576.929 92.298L577.789 89.2556L579.407 90.8408L579.07 92.1702C580.139 91.979 581.076 92.2877 581.901 93.096C583.39 94.5553 583.431 96.5278 581.573 98.4242C579.736 100.299 577.564 100.565 575.743 98.7804ZM582.036 104.817L583.081 103.826L589.086 103.421C590.021 103.361 590.546 103.194 590.937 102.823C591.536 102.255 591.482 101.479 590.883 100.848C590.543 100.489 590.144 100.308 589.751 100.33C589.284 100.339 588.917 100.563 588.548 100.892L587.257 99.5322C588.78 98.1081 590.742 98.1703 592.249 99.7591C593.57 101.152 593.685 102.842 592.39 104.071C591.628 104.793 590.643 105.128 588.603 105.265L585.084 105.502L587.696 108.255L586.434 109.452L582.036 104.817ZM588.532 112.043C588.088 111.555 588.114 110.802 588.613 110.348C589.091 109.915 589.853 109.951 590.297 110.44C590.741 110.928 590.705 111.691 590.227 112.125C589.728 112.579 588.976 112.532 588.532 112.043ZM591.259 114.755L596.896 109.694L595.663 108.322L596.712 107.38C597.544 108.306 598.549 108.392 599.507 107.955L600.579 109.149L592.632 116.284L591.259 114.755Z" fill="#0E2517"/>
<path d="M326.57 652.728C326.654 652.31 326.75 651.868 326.858 651.391C327.117 650.269 327.416 649.413 328.602 649.049L326.672 646.284L328.555 646.335L330.393 648.953C331.182 648.662 331.271 648.029 331.384 647.371C331.441 647.049 331.486 646.714 331.542 646.415L333.198 646.46C333.141 646.771 333.072 647.129 332.99 647.475C332.716 648.728 332.37 649.571 331.052 649.907L333.156 652.905L331.273 652.854L329.296 650.04C328.639 650.37 328.585 651.017 328.462 651.59C328.377 652.044 328.308 652.378 328.25 652.773L326.57 652.728Z" fill="#0E2517"/>
<path d="M335.371 652.945L335.376 651.613L337.056 651.62C338.784 651.627 339.53 651.114 339.537 649.542C339.542 648.27 338.969 647.668 337.889 647.663C337.001 647.659 336.447 648.089 336.444 648.737C336.442 649.277 336.825 649.531 337.304 649.617L337.299 650.925C336.495 650.921 334.913 650.471 334.92 648.791C334.926 647.303 336.166 646.312 338.014 646.32C340.042 646.328 341.118 647.424 341.109 649.452C341.1 651.732 339.787 652.963 337.315 652.953L335.371 652.945Z" fill="#0E2517"/>
<path d="M346.219 652.892L346.134 648.921C346.118 648.189 345.773 647.8 345.078 647.815L342.81 647.864L342.781 646.52L345.457 646.463C346.428 646.442 347.109 646.847 347.46 647.512C347.61 647.809 347.726 648.178 347.742 648.934L347.827 652.857L346.219 652.892Z" fill="#0E2517"/>
<path d="M354.047 652.759C353.771 652.772 353.542 652.758 353.312 652.708L353.251 651.366C353.445 651.405 353.709 651.405 353.853 651.398C354.991 651.347 355.487 650.615 355.428 649.333C355.371 648.086 354.834 647.354 353.923 647.395C353.179 647.429 352.807 647.95 352.587 648.669C352.34 649.305 352.262 650.234 352.165 651.523L352.09 652.776L350.495 652.849C350.538 651.682 350.704 649.776 350.899 648.53L349.587 646.367L351.397 646.285L351.992 647.207C352.463 646.477 353.155 646.097 354.078 646.055C355.744 645.979 356.921 647.03 357.018 649.152C357.113 651.25 356.085 652.666 354.047 652.759Z" fill="#0E2517"/>
<path d="M319.388 526.945L319.807 522.995C319.884 522.267 319.58 521.837 318.9 521.764L315.713 521.427L315.855 520.09L319.435 520.47C320.414 520.573 321.048 521.075 321.301 521.766C321.412 522.079 321.481 522.46 321.401 523.212L320.987 527.114L319.388 526.945ZM315.176 526.498L315.526 523.193L317.125 523.362L316.775 526.668L315.176 526.498Z" fill="#0E2517"/>
<path d="M327.183 527.713C326.907 527.696 326.681 527.658 326.457 527.585L326.539 526.243C326.728 526.303 326.99 526.331 327.134 526.339C328.272 526.409 328.842 525.734 328.92 524.452C328.996 523.207 328.539 522.421 327.628 522.366C326.886 522.321 326.46 522.8 326.165 523.491C325.852 524.097 325.676 525.012 325.442 526.285L325.235 527.522L323.642 527.425C323.808 526.269 324.175 524.392 324.502 523.174L323.427 520.884L325.235 520.994L325.729 521.974C326.275 521.298 327.003 520.994 327.925 521.05C329.59 521.151 330.649 522.321 330.52 524.442C330.392 526.538 329.219 527.837 327.183 527.713Z" fill="#0E2517"/>
<path d="M333.097 525.625L333.169 522.782L332.438 522.764L332.472 521.42L334.811 521.479L334.705 525.666L333.097 525.625Z" fill="#0E2517"/>
<path d="M337.76 525.715L337.769 522.871L337.037 522.868L337.042 521.524L339.382 521.532L339.368 525.72L337.76 525.715Z" fill="#0E2517"/>
<path d="M344.602 527.867L346.218 522.71L341.793 522.858L341.748 521.515L347.876 521.309L347.92 522.617L346.281 527.81L344.602 527.867ZM342.063 529.501L341.9 524.631L343.507 524.577L343.67 529.447L342.063 529.501Z" fill="#0E2517"/>
<path d="M356.976 527.117L356.616 523.162C356.549 522.433 356.179 522.069 355.486 522.132L353.227 522.338L353.105 521L355.77 520.757C356.738 520.669 357.445 521.026 357.841 521.664C358.012 521.95 358.153 522.311 358.222 523.064L358.578 526.972L356.976 527.117Z" fill="#0E2517"/>
<path d="M360.871 526.739L360.696 525.406L363.944 524.979L363.602 522.374C363.506 521.648 363.122 521.299 362.431 521.39L360.266 521.675L360.091 520.342L362.649 520.006C363.66 519.873 364.398 520.236 364.798 520.885C364.966 521.154 365.107 521.486 365.202 522.212L365.539 524.77L366.574 524.634L366.749 525.966L360.871 526.739Z" fill="#0E2517"/>
<path d="M313.311 392.112L315.027 388.53C315.344 387.87 315.212 387.367 314.584 387.067L312.539 386.087L313.12 384.875L315.533 386.031C316.41 386.451 316.834 387.12 316.847 387.871C316.847 388.204 316.784 388.586 316.457 389.268L314.761 392.807L313.311 392.112Z" fill="#0E2517"/>
<path d="M316.829 393.725L317.254 392.475L318.503 392.901C319.878 393.369 320.715 393.07 321.159 391.764C321.565 390.571 321.213 389.818 320.089 389.435L318.532 388.905L318.962 387.644L320.87 388.294C322.688 388.912 323.385 390.214 322.72 392.168C322.013 394.247 320.475 394.966 318.26 394.212L316.829 393.725Z" fill="#0E2517"/>
<path d="M324.74 393.917L325.394 391.15L324.681 390.981L324.99 389.673L327.268 390.211L326.305 394.287L324.74 393.917Z" fill="#0E2517"/>
<path d="M328.066 396.996L328.261 395.678L329.092 395.801C329.614 395.878 329.917 395.631 329.996 395.097L330.428 392.165L328.968 391.949L329.164 390.62L332.215 391.07L331.597 395.26C331.496 395.949 331.333 396.313 331.126 396.562C330.763 397.054 330.132 397.3 329.313 397.18L328.066 396.996Z" fill="#0E2517"/>
<path d="M340.428 397.863L340.346 393.892C340.331 393.16 339.987 392.771 339.291 392.785L337.024 392.832L336.996 391.488L339.672 391.433C340.643 391.413 341.324 391.819 341.674 392.484C341.824 392.781 341.939 393.151 341.955 393.907L342.036 397.83L340.428 397.863Z" fill="#0E2517"/>
<path d="M345.025 397.647L344.445 392.58L343.718 392.663L343.565 391.328L345.914 391.059L346.647 397.461L345.025 397.647Z" fill="#0E2517"/>
<path d="M349.39 397.036L349.091 395.738L350.728 395.361C352.412 394.973 353.021 394.303 352.668 392.771C352.382 391.531 351.686 391.076 350.634 391.319C349.768 391.518 349.327 392.063 349.473 392.695C349.594 393.221 350.025 393.38 350.512 393.354L350.805 394.629C350.022 394.809 348.379 394.732 348.001 393.095C347.667 391.645 348.648 390.397 350.449 389.982C352.425 389.527 353.723 390.348 354.178 392.324C354.69 394.546 353.693 396.044 351.284 396.6L349.39 397.036Z" fill="#0E2517"/>
<path d="M356.832 392.88L355.905 390.191L355.213 390.43L354.774 389.159L356.987 388.396L358.352 392.355L356.832 392.88Z" fill="#0E2517"/>
<path d="M364.902 392.107C362.903 393.071 360.92 392.468 359.914 390.382L358.658 387.776L360.031 387.115L361.193 389.525C361.303 389.752 361.413 389.952 361.55 390.126C362.417 389.495 362.589 388.799 362.083 387.751L361.447 386.432L362.788 385.786L363.455 387.169C364.169 388.65 363.836 389.757 362.376 390.873C362.972 391.225 363.67 391.235 364.362 390.902C365.648 390.282 366.033 388.897 365.314 387.406L364.204 385.103L365.577 384.441L366.749 386.874C367.76 388.971 367.021 391.085 364.902 392.107Z" fill="#0E2517"/>
<path d="M324.367 361.122L326.569 357.816C326.974 357.207 326.914 356.691 326.335 356.305L324.447 355.048L325.192 353.93L327.419 355.413C328.228 355.951 328.555 356.673 328.462 357.419C328.416 357.749 328.299 358.118 327.88 358.747L325.706 362.014L324.367 361.122Z" fill="#0E2517"/>
<path d="M328.508 363.538L328.889 362.261L330.499 362.742C332.155 363.236 333.015 362.955 333.465 361.448C333.829 360.229 333.449 359.49 332.414 359.181C331.563 358.927 330.91 359.183 330.725 359.804C330.571 360.321 330.866 360.672 331.302 360.89L330.928 362.144C330.158 361.914 328.767 361.035 329.248 359.425C329.673 357.999 331.143 357.399 332.913 357.927C334.857 358.507 335.579 359.863 334.999 361.806C334.347 363.991 332.74 364.801 330.371 364.094L328.508 363.538Z" fill="#0E2517"/>
<path d="M337.155 365.775L337.341 360.679L336.609 360.652L336.658 359.309L339.021 359.395L338.785 365.835L337.155 365.775Z" fill="#0E2517"/>
<path d="M345.515 364.955C343.366 365.514 341.538 364.54 340.955 362.298L340.226 359.499L341.701 359.116L342.375 361.705C342.439 361.949 342.508 362.167 342.608 362.364C343.582 361.912 343.884 361.263 343.591 360.136L343.223 358.72L344.663 358.345L345.049 359.831C345.463 361.422 344.923 362.443 343.275 363.257C343.792 363.717 344.474 363.862 345.217 363.669C346.599 363.309 347.245 362.025 346.828 360.423L346.184 357.949L347.659 357.565L348.339 360.178C348.925 362.431 347.791 364.363 345.515 364.955Z" fill="#0E2517"/>
<path d="M355.204 360.844C354.976 360.999 354.774 361.107 354.552 361.186L353.796 360.074C353.982 360.006 354.207 359.867 354.326 359.786C355.269 359.146 355.307 358.263 354.585 357.201C353.884 356.169 353.042 355.827 352.288 356.34C351.672 356.759 351.628 357.398 351.818 358.125C351.941 358.796 352.361 359.628 352.954 360.777L353.546 361.884L352.226 362.781C351.651 361.765 350.794 360.055 350.307 358.891L348.057 357.737L349.555 356.718L350.545 357.191C350.563 356.323 350.953 355.637 351.717 355.117C353.097 354.179 354.65 354.458 355.845 356.215C357.025 357.951 356.891 359.697 355.204 360.844Z" fill="#0E2517"/>
</g>
<defs>
<clipPath id="clip0_4001_1231">
<rect width="679.89" height="679.89" fill="white"/>
</clipPath>
</defs>
</svg>