<svg xmlns="http://www.w3.org/2000/svg" width="690" height="691" viewBox="0 0 690 691" fill="none">
<path d="M344.996 670.5C524.212 670.5 669.496 525.216 669.496 346C669.496 166.784 524.212 21.5 344.996 21.5C165.78 21.5 20.4961 166.784 20.4961 346C20.4961 525.216 165.78 670.5 344.996 670.5Z" fill="#F4F4F4" stroke="#D4D7D6"/>
<path d="M344.996 576.5C472.298 576.5 575.496 473.302 575.496 346C575.496 218.698 472.298 115.5 344.996 115.5C217.694 115.5 114.496 218.698 114.496 346C114.496 473.302 217.694 576.5 344.996 576.5Z" stroke="#CFD3D1"/>
<path d="M344.999 483.534C420.957 483.534 482.533 421.958 482.533 346C482.533 270.042 420.957 208.466 344.999 208.466C269.041 208.466 207.465 270.042 207.465 346C207.465 421.958 269.041 483.534 344.999 483.534Z" stroke="#0E2517" stroke-opacity="0.2" stroke-width="0.932432"/>
<path d="M344.996 289.5C376.2 289.5 401.496 314.796 401.496 346C401.496 377.204 376.2 402.5 344.996 402.5C313.792 402.5 288.496 377.204 288.496 346C288.496 314.796 313.792 289.5 344.996 289.5Z" stroke="#0E2517" stroke-opacity="0.2"/>
<path d="M331.863 626.144C331.94 625.761 332.028 625.357 332.129 624.919C332.367 623.892 332.642 623.107 333.73 622.775L331.964 620.238L333.69 620.287L335.372 622.689C336.095 622.424 336.177 621.843 336.283 621.24C336.335 620.945 336.377 620.638 336.428 620.364L337.946 620.407C337.894 620.692 337.829 621.02 337.754 621.337C337.502 622.485 337.183 623.258 335.975 623.565L337.9 626.315L336.173 626.266L334.365 623.684C333.762 623.986 333.712 624.579 333.598 625.104C333.52 625.52 333.457 625.826 333.402 626.188L331.863 626.144ZM340.013 626.355L340.018 625.134L341.558 625.141C343.142 625.148 343.826 624.678 343.833 623.237C343.837 622.071 343.312 621.518 342.322 621.514C341.508 621.511 341 621.905 340.998 622.499C340.996 622.994 341.347 623.226 341.786 623.305L341.781 624.504C341.044 624.501 339.594 624.088 339.6 622.548C339.606 621.184 340.743 620.275 342.437 620.283C344.296 620.291 345.282 621.296 345.274 623.155C345.265 625.245 344.061 626.373 341.795 626.363L340.013 626.355ZM350.041 626.308L349.963 622.668C349.948 621.997 349.632 621.641 348.995 621.654L346.916 621.699L346.89 620.467L349.342 620.415C350.233 620.395 350.857 620.767 351.178 621.376C351.316 621.648 351.422 621.987 351.437 622.68L351.515 626.276L350.041 626.308ZM357.3 626.175C357.047 626.187 356.837 626.175 356.626 626.13L356.567 624.899C356.745 624.935 356.987 624.934 357.119 624.928C358.162 624.878 358.615 624.206 358.558 623.031C358.504 621.888 358.009 621.218 357.174 621.258C356.493 621.291 356.152 621.769 355.953 622.429C355.727 623.012 355.658 623.863 355.572 625.046L355.505 626.194L354.044 626.264C354.081 625.194 354.228 623.447 354.405 622.305L353.198 620.325L354.857 620.246L355.404 621.089C355.834 620.419 356.467 620.069 357.313 620.029C358.841 619.956 359.922 620.917 360.015 622.862C360.107 624.785 359.167 626.085 357.3 626.175Z" fill="#0E2517"/>
<path d="M325.274 539.124L325.63 535.5C325.695 534.832 325.413 534.44 324.789 534.379L321.866 534.092L321.987 532.866L325.271 533.188C326.169 533.276 326.754 533.732 326.991 534.363C327.095 534.649 327.16 534.998 327.093 535.688L326.741 539.268L325.274 539.124ZM321.41 538.744L321.707 535.712L323.174 535.856L322.877 538.888L321.41 538.744ZM332.508 539.781C332.255 539.768 332.047 539.735 331.842 539.669L331.907 538.438C332.081 538.492 332.322 538.515 332.453 538.522C333.497 538.578 334.015 537.956 334.077 536.78C334.138 535.638 333.714 534.921 332.879 534.877C332.198 534.841 331.811 535.283 331.545 535.919C331.262 536.476 331.108 537.316 330.902 538.484L330.721 539.62L329.26 539.542C329.404 538.481 329.727 536.758 330.018 535.639L329.017 533.548L330.676 533.636L331.135 534.531C331.63 533.907 332.296 533.623 333.141 533.668C334.668 533.749 335.647 534.815 335.543 536.759C335.441 538.681 334.375 539.88 332.508 539.781ZM338.007 537.835L338.064 535.229L337.393 535.214L337.42 533.982L339.564 534.029L339.48 537.868L338.007 537.835ZM342.37 537.907L342.376 535.3L341.705 535.299L341.708 534.067L343.853 534.072L343.844 537.911L342.37 537.907ZM348.727 539.882L350.215 535.157L346.158 535.287L346.119 534.056L351.737 533.876L351.775 535.074L350.266 539.833L348.727 539.882ZM346.397 541.377L346.254 536.913L347.728 536.866L347.871 541.329L346.397 541.377ZM360.24 539.236L359.931 535.608C359.874 534.939 359.536 534.604 358.901 534.658L356.829 534.834L356.725 533.607L359.169 533.399C360.057 533.323 360.703 533.654 361.062 534.242C361.217 534.505 361.345 534.836 361.404 535.527L361.709 539.111L360.24 539.236ZM363.896 538.908L363.753 537.684L366.736 537.336L366.457 534.943C366.379 534.277 366.031 533.952 365.397 534.026L363.409 534.258L363.266 533.034L365.615 532.76C366.544 532.652 367.215 532.994 367.573 533.595C367.724 533.843 367.848 534.149 367.926 534.816L368.2 537.165L369.151 537.054L369.293 538.278L363.896 538.908Z" fill="#0E2517"/>
<path d="M319.817 451.219L320.639 447.672C320.79 447.019 320.572 446.596 319.951 446.452L317.926 445.982L318.204 444.782L320.593 445.336C321.461 445.537 321.974 446.051 322.135 446.721C322.202 447.018 322.221 447.373 322.065 448.048L321.253 451.552L319.817 451.219ZM323.367 452.008L323.563 450.814L324.757 451.011C326.07 451.227 326.782 450.831 326.987 449.583C327.174 448.443 326.743 447.815 325.668 447.638L324.181 447.393L324.379 446.188L326.203 446.488C327.939 446.774 328.766 447.846 328.459 449.713C328.133 451.7 326.851 452.581 324.734 452.233L323.367 452.008ZM330.735 451.074L331.042 448.486L330.376 448.406L330.521 447.183L332.651 447.436L332.198 451.248L330.735 451.074ZM334.166 453.562L334.253 452.344L335.021 452.399C335.504 452.433 335.764 452.187 335.8 451.693L335.994 448.983L334.644 448.887L334.732 447.658L337.552 447.86L337.275 451.733C337.229 452.369 337.105 452.713 336.934 452.955C336.635 453.43 336.075 453.698 335.318 453.644L334.166 453.562ZM345.708 453.908L345.653 450.267C345.643 449.596 345.329 449.238 344.691 449.248L342.612 449.279L342.594 448.047L345.046 448.01C345.937 447.997 346.559 448.372 346.876 448.983C347.013 449.256 347.117 449.596 347.127 450.289L347.182 453.885L345.708 453.908ZM350.014 453.779L349.701 449.115L349.032 449.16L348.949 447.931L351.111 447.786L351.506 453.679L350.014 453.779ZM354.128 453.457L353.984 452.244L355.513 452.063C357.086 451.876 357.708 451.326 357.538 449.895C357.4 448.737 356.811 448.253 355.828 448.37C355.02 448.466 354.564 448.919 354.634 449.509C354.692 450 355.069 450.188 355.515 450.213L355.656 451.403C354.924 451.49 353.435 451.257 353.253 449.728C353.092 448.373 354.11 447.333 355.792 447.134C357.638 446.914 358.739 447.792 358.958 449.638C359.205 451.713 358.148 452.98 355.897 453.247L354.128 453.457ZM361.505 450.428L361.036 447.863L360.376 447.984L360.154 446.772L362.264 446.386L362.955 450.162L361.505 450.428ZM369.065 451.065C367.088 451.545 365.426 450.624 364.925 448.562L364.299 445.985L365.656 445.656L366.236 448.039C366.29 448.264 366.35 448.464 366.44 448.646C367.339 448.247 367.625 447.656 367.373 446.619L367.057 445.315L368.382 444.993L368.714 446.361C369.07 447.826 368.56 448.754 367.037 449.475C367.504 449.904 368.127 450.047 368.811 449.881C370.083 449.572 370.694 448.405 370.336 446.93L369.782 444.653L371.14 444.323L371.724 446.728C372.228 448.802 371.16 450.556 369.065 451.065Z" fill="#0E2517"/>
<path d="M331.222 378.419L332.624 375.059C332.882 374.439 332.738 373.986 332.149 373.74L330.23 372.94L330.705 371.803L332.968 372.747C333.791 373.09 334.211 373.683 334.258 374.37C334.274 374.674 334.234 375.027 333.967 375.667L332.582 378.986L331.222 378.419ZM334.563 379.624L334.804 378.427L336.314 378.73C337.866 379.042 338.628 378.713 338.912 377.3C339.142 376.157 338.732 375.514 337.762 375.319C336.964 375.158 336.39 375.447 336.273 376.029C336.175 376.515 336.475 376.81 336.891 376.973L336.655 378.148C335.932 378.003 334.589 377.318 334.892 375.808C335.161 374.471 336.452 373.799 338.112 374.133C339.935 374.499 340.708 375.675 340.342 377.498C339.931 379.547 338.532 380.421 336.31 379.975L334.563 379.624ZM341.807 380.885L341.982 376.213L341.312 376.188L341.358 374.957L343.523 375.038L343.302 380.941L341.807 380.885ZM348.67 380.518C346.658 380.826 345.082 379.766 344.76 377.667L344.359 375.047L345.74 374.835L346.111 377.26C346.146 377.488 346.189 377.693 346.262 377.882C347.192 377.562 347.529 376.998 347.367 375.944L347.164 374.617L348.512 374.41L348.726 375.802C348.954 377.292 348.365 378.172 346.786 378.759C347.214 379.228 347.823 379.424 348.519 379.317C349.813 379.119 350.522 378.008 350.292 376.508L349.937 374.192L351.317 373.98L351.692 376.427C352.016 378.536 350.801 380.191 348.67 380.518ZM357.233 378.192C356.999 378.288 356.797 378.348 356.583 378.377L356.113 377.238C356.292 377.212 356.52 377.129 356.642 377.079C357.608 376.68 357.808 375.895 357.358 374.808C356.922 373.75 356.23 373.286 355.457 373.605C354.827 373.866 354.668 374.431 354.702 375.119C354.687 375.744 354.908 376.569 355.225 377.712L355.55 378.815L354.198 379.374C353.872 378.354 353.422 376.659 353.203 375.524L351.399 374.067L352.935 373.433L353.734 374.043C353.913 373.267 354.391 372.724 355.174 372.401C356.587 371.817 357.929 372.358 358.673 374.158C359.408 375.937 358.961 377.478 357.233 378.192Z" fill="#0E2517"/>
<path d="M36.2203 211.876C35.9011 212.605 35.4926 213.163 34.9984 213.617L33.3843 212.779C33.9077 212.369 34.3359 211.804 34.613 211.172C35.2334 209.757 34.8436 208.554 33.6896 208.048C32.7967 207.657 31.9419 207.888 31.5444 208.794C31.3336 209.275 31.3331 209.799 31.5243 210.26L30.4782 211.226L25.7031 208.706L27.7751 203.981L29.3275 204.661L27.9361 207.835L29.8815 208.851C29.8981 208.515 29.9877 208.161 30.1503 207.79C30.8912 206.1 32.5082 205.401 34.3216 206.196C36.4784 207.142 37.2744 209.472 36.2203 211.876Z" fill="#0E2517"/>
<path d="M34.178 216.595C33.9212 217.203 33.2275 217.496 32.6057 217.234C32.0115 216.983 31.7242 216.275 31.981 215.667C32.2378 215.059 32.9453 214.772 33.5395 215.023C34.1613 215.286 34.4348 215.987 34.178 216.595Z" fill="#0E2517"/>
<path d="M30.3858 226.127C30.2634 226.449 30.1342 226.705 29.963 226.945L28.3923 226.349C28.5335 226.146 28.6646 225.843 28.7285 225.675C29.2341 224.342 28.6408 223.411 27.1402 222.842C25.6817 222.288 24.5747 222.542 24.1702 223.608C23.8402 224.477 24.2536 225.164 24.9693 225.772C25.5762 226.371 26.6028 226.921 28.0342 227.673L29.4342 228.381L28.7264 230.246C27.4086 229.618 25.3046 228.482 23.9718 227.64L20.8398 228.072L21.6434 225.954L22.9961 225.729C22.3922 224.826 22.2995 223.845 22.7093 222.765C23.449 220.815 25.2395 219.987 27.7218 220.929C30.176 221.86 31.2905 223.743 30.3858 226.127Z" fill="#0E2517"/>
<path d="M25.6452 238.642L24.0606 238.084L25.4359 234.179L17.8633 236.49L18.6257 234.325L22.2593 233.219C22.1356 232.397 21.429 232.1 20.724 231.709C20.3852 231.542 20.0656 231.365 19.7269 231.198L20.4294 229.203L21.5473 229.868C22.7876 230.591 23.7008 231.294 23.7184 232.779L26.4794 231.939L27.8377 232.417L25.6452 238.642Z" fill="#0E2517"/>
<path d="M24.4683 242.24L18.3988 240.29L18.119 241.161L16.5195 240.648L17.4234 237.834L25.0923 240.298L24.4683 242.24Z" fill="#0E2517"/>
<path d="M20.3527 245.87L16.9638 244.796L16.6874 245.668L15.0859 245.161L15.9696 242.373L20.96 243.954L20.3527 245.87Z" fill="#0E2517"/>
<path d="M18.9957 250.374L15.5844 249.374L15.3269 250.252L13.7148 249.779L14.5378 246.972L19.5613 248.445L18.9957 250.374Z" fill="#0E2517"/>
<path d="M19.9164 257.537L18.3139 257.085L18.5987 256.075C18.7777 255.439 18.5208 255.024 17.8711 254.841L14.305 253.836L13.8045 255.612L12.1875 255.156L13.2333 251.445L18.3297 252.882C19.1671 253.118 19.5925 253.378 19.8676 253.674C20.4196 254.203 20.6245 255.025 20.3437 256.021L19.9164 257.537Z" fill="#0E2517"/>
<path d="M18.9256 261.113L12.765 259.473L12.5297 260.357L10.9062 259.925L11.6664 257.069L19.4503 259.141L18.9256 261.113Z" fill="#0E2517"/>
<path d="M16.5356 271.277C16.4652 271.568 16.341 271.955 16.1113 272.332L14.5656 271.959C14.6551 271.78 14.73 271.597 14.7934 271.335C14.9482 270.693 14.8532 270.192 13.7013 269.914L10.3913 269.115L9.96905 270.865L8.33594 270.47L9.78933 264.448C10.0849 263.223 10.8361 262.541 11.7039 262.333C12.0961 262.243 12.5908 262.239 13.4949 262.457L18.2775 263.611L17.806 265.565L12.9795 264.4C12.0901 264.186 11.5104 264.478 11.3098 265.309L10.8629 267.161L14.4353 268.023C16.6516 268.558 16.8629 269.921 16.5356 271.277Z" fill="#0E2517"/>
<path d="M103.165 581.418L101.588 582.959L105.026 586.478L103.835 587.642L96.3014 589.675L94.7812 588.119L102.294 586.086L100.386 584.133L99.1201 585.37L97.7782 584.017L99.0551 582.77L98.3422 582.04L99.5441 580.866L100.256 581.596L101.834 580.055L103.165 581.418Z" fill="#0E2517"/>
<path d="M108.964 586.965C109.437 587.425 109.458 588.178 108.987 588.661C108.537 589.124 107.773 589.134 107.3 588.673C106.827 588.213 106.817 587.449 107.267 586.987C107.738 586.504 108.491 586.504 108.964 586.965Z" fill="#0E2517"/>
<path d="M119.458 596.96C119.679 597.163 119.958 597.459 120.176 597.842L119.101 599.014C118.987 598.849 118.864 598.695 118.665 598.512C118.179 598.066 117.694 597.906 116.893 598.779L114.591 601.288L115.917 602.505L114.781 603.743L110.217 599.554C109.288 598.702 109.055 597.714 109.294 596.854C109.405 596.467 109.641 596.032 110.27 595.347L113.597 591.723L115.078 593.082L111.72 596.74C111.102 597.414 111.076 598.062 111.706 598.64L113.11 599.929L115.595 597.221C117.136 595.541 118.431 596.017 119.458 596.96Z" fill="#0E2517"/>
<path d="M126.427 603.209L125.336 604.466L123.75 603.09C122.118 601.675 120.993 601.552 119.705 603.037C118.663 604.238 118.716 605.276 119.736 606.161C120.574 606.888 121.449 606.932 121.98 606.32C122.422 605.811 122.266 605.258 121.882 604.786L122.953 603.551C123.712 604.209 124.844 605.926 123.468 607.512C122.249 608.917 120.266 608.845 118.521 607.331C116.606 605.67 116.481 603.754 118.143 601.839C120.01 599.687 122.258 599.591 124.592 601.616L126.427 603.209Z" fill="#0E2517"/>
<path d="M133.849 609.348L132.783 610.646L131.867 609.894L130.963 609.151L128.875 615.686L127.183 614.296L129.265 608.028C128.829 607.921 128.426 608.057 127.872 608.495C127.163 608.98 126.075 610.163 125.332 611.067L124.494 612.087L122.895 610.773C123.171 610.436 123.456 610.089 123.858 609.623C124.422 608.96 125.143 608.155 125.759 607.593C127.748 605.811 129.468 605.749 131.926 607.767L133.849 609.348Z" fill="#0E2517"/>
<path d="M136.904 611.779L132.959 616.787L133.677 617.353L132.637 618.672L130.316 616.843L135.302 610.517L136.904 611.779Z" fill="#0E2517"/>
<path d="M142.393 616.009L136.579 619.59L139.845 622.086L137.195 625.554L135.61 624.343L137.24 622.209L133.855 619.623L134.811 618.371L140.712 614.725L142.393 616.009Z" fill="#0E2517"/>
<path d="M149.274 621.066L145.529 626.224L146.27 626.762L145.283 628.122L142.891 626.386L147.623 619.867L149.274 621.066Z" fill="#0E2517"/>
<path d="M157.931 626.906C158.179 627.075 158.496 627.328 158.767 627.676L157.871 628.989C157.735 628.842 157.591 628.707 157.368 628.555C156.823 628.183 156.32 628.094 155.652 629.073L153.732 631.885L155.219 632.9L154.271 634.287L149.155 630.794C148.115 630.084 147.742 629.139 147.856 628.254C147.91 627.856 148.082 627.392 148.606 626.623L151.381 622.56L153.041 623.694L150.241 627.794C149.725 628.55 149.793 629.195 150.499 629.677L152.072 630.752L154.144 627.717C155.43 625.834 156.779 626.119 157.931 626.906Z" fill="#0E2517"/>
<path d="M166.508 632.597L162.159 639.377L158.157 636.811C157.121 636.147 156.706 635.239 156.798 634.318C156.848 633.905 156.986 633.44 157.496 632.645L160.144 628.516L161.836 629.601L159.156 633.78C158.662 634.551 158.761 635.202 159.48 635.664L161.374 636.878L164.816 631.512L166.508 632.597Z" fill="#0E2517"/>
<path d="M170.287 634.949C169.922 636.486 169.55 638.089 168.881 639.175C168.401 639.954 167.83 640.395 167.249 640.565L168.526 641.352L167.645 642.783L163.609 640.296L164.491 638.866L165.346 639.393C166.062 639.834 166.667 639.537 167.061 638.899C167.619 637.992 167.935 636.107 168.372 633.769L170.287 634.949Z" fill="#0E2517"/>
<path d="M175.065 637.803L171.855 643.311L172.645 643.771L171.799 645.223L169.246 643.735L173.302 636.776L175.065 637.803Z" fill="#0E2517"/>
<path d="M180.899 641.112L175.828 645.575L180.653 648.286L179.83 649.75L173.148 645.996L173.949 644.57L179.068 640.083L180.899 641.112ZM184.672 641.012L181.688 646.321L179.936 645.336L182.919 640.027L184.672 641.012Z" fill="#0E2517"/>
<path d="M187.22 644.57L184.907 648.963C184.48 649.773 184.635 650.414 185.391 650.812L188.935 652.678L188.152 654.165L184.17 652.068C183.082 651.495 182.577 650.619 182.603 649.7C182.619 649.284 182.716 648.81 183.156 647.974L185.442 643.634L187.22 644.57ZM191.905 647.037L189.969 650.714L188.191 649.777L190.127 646.101L191.905 647.037Z" fill="#0E2517"/>
<path d="M525.816 631.438C526.388 631.079 526.998 630.838 527.595 630.746L528.577 632.308C527.968 632.354 527.329 632.578 526.758 632.937C525.411 633.783 525.058 634.997 525.728 636.064C526.263 636.915 527.127 637.134 527.965 636.607C528.334 636.376 528.617 636.038 528.769 635.659L529.901 636.897L529.498 639.949L532.203 638.249L533.113 639.697L528.35 642.69L527.608 641.508L528.054 638.412C526.674 639.119 525.146 638.803 524.165 637.241C522.912 635.247 523.543 632.867 525.816 631.438Z" fill="#0E2517"/>
<path d="M529.894 628.82C530.449 628.462 531.187 628.609 531.554 629.176C531.904 629.718 531.744 630.464 531.19 630.823C530.636 631.181 529.889 631.021 529.539 630.48C529.172 629.913 529.34 629.179 529.894 628.82Z" fill="#0E2517"/>
<path d="M541.195 621.367L542.152 622.748L538.786 625.081L540.659 627.781C541.18 628.533 541.806 628.7 542.521 628.205L544.766 626.65L545.722 628.031L543.071 629.867C542.023 630.594 540.996 630.612 540.18 630.119C539.839 629.917 539.493 629.628 538.971 628.876L537.134 626.225L536.062 626.969L535.105 625.588L541.195 621.367Z" fill="#0E2517"/>
<path d="M545.904 621.44L548.002 624.31L548.741 623.771L549.732 625.127L547.371 626.853L544.281 622.627L545.904 621.44Z" fill="#0E2517"/>
<path d="M551.783 613.505L552.796 614.846L549.492 617.341L557.08 619.599L555.249 620.982L551.609 619.896C551.258 620.65 551.683 621.288 552.054 622.004C552.244 622.33 552.413 622.653 552.603 622.98L550.915 624.254L550.35 623.083C549.716 621.795 549.344 620.704 550.15 619.457L547.384 618.632L546.516 617.483L551.783 613.505Z" fill="#0E2517"/>
<path d="M554.768 611.186L558.69 616.212L559.411 615.649L560.444 616.974L558.114 618.792L553.16 612.44L554.768 611.186Z" fill="#0E2517"/>
<path d="M562.612 604.821L563.676 606.121L562.759 606.871L561.854 607.612L567.853 610.94L566.159 612.327L560.42 609.058C560.23 609.465 560.284 609.886 560.605 610.515C560.942 611.305 561.889 612.604 562.63 613.51L563.466 614.531L561.864 615.842C561.588 615.506 561.303 615.158 560.926 614.672C560.386 613.989 559.737 613.125 559.307 612.411C557.948 610.111 558.224 608.412 560.685 606.398L562.612 604.821Z" fill="#0E2517"/>
<path d="M676.836 282.505L678.252 282.245L683.505 285.183C684.322 285.643 684.852 285.789 685.383 285.692C686.195 285.542 686.573 284.863 686.416 284.007C686.326 283.52 686.09 283.152 685.749 282.955C685.353 282.708 684.924 282.695 684.434 282.77L684.095 280.926C686.148 280.564 687.758 281.686 688.154 283.84C688.501 285.728 687.675 287.207 685.92 287.53C684.887 287.72 683.879 287.463 682.094 286.464L679.017 284.743L679.703 288.475L677.992 288.79L676.836 282.505Z" fill="#0E2517"/>
<path d="M675.971 279.251C675.838 278.605 676.243 277.97 676.904 277.834C677.535 277.704 678.174 278.123 678.307 278.77C678.441 279.416 678.021 280.054 677.389 280.184C676.728 280.321 676.105 279.898 675.971 279.251Z" fill="#0E2517"/>
<path d="M673.051 265.403L674.686 265.015L674.959 266.168L675.23 267.306L680.847 263.368L681.353 265.499L675.901 269.228C676.185 269.577 676.587 269.713 677.293 269.699C678.151 269.742 679.733 269.459 680.872 269.189L682.156 268.885L682.634 270.899C682.211 270.999 681.773 271.103 681.171 271.23C680.321 271.417 679.26 271.622 678.43 271.696C675.767 271.911 674.36 270.919 673.626 267.825L673.051 265.403Z" fill="#0E2517"/>
<path d="M674.875 261.135L678.316 260.242L678.086 259.357L679.713 258.935L680.447 261.766L675.38 263.08L674.875 261.135Z" fill="#0E2517"/>
<path d="M669.645 252.756L671.263 252.305L672.374 256.293L677.257 250.06L677.87 252.271L675.528 255.26C676.101 255.863 676.849 255.701 677.651 255.618C678.024 255.561 678.387 255.522 678.76 255.465L679.328 257.502L678.031 257.599C676.6 257.717 675.449 257.664 674.583 256.457L672.802 258.727L671.416 259.114L669.645 252.756Z" fill="#0E2517"/>
<path d="M668.586 249.121L674.698 247.31L674.438 246.432L676.049 245.955L676.888 248.788L669.165 251.077L668.586 249.121Z" fill="#0E2517"/>
<path d="M665.844 240.471L667.444 239.958L668.696 243.856L671.823 242.852C672.695 242.572 673.037 242.021 672.771 241.192L671.937 238.593L673.536 238.079L674.522 241.15C674.912 242.364 674.631 243.352 673.922 243.99C673.63 244.257 673.252 244.504 672.381 244.784L669.311 245.77L669.71 247.013L668.11 247.526L665.844 240.471Z" fill="#0E2517"/>
<path d="M663.543 233.712L669.546 231.567L669.238 230.705L670.82 230.14L671.815 232.922L664.229 235.633L663.543 233.712Z" fill="#0E2517"/>
<path d="M659.797 223.967C659.691 223.686 659.577 223.297 659.555 222.856L661.043 222.296C661.07 222.495 661.11 222.688 661.205 222.94C661.438 223.558 661.798 223.919 662.907 223.502L666.094 222.304L665.461 220.619L667.033 220.027L669.214 225.826C669.657 227.005 669.42 227.992 668.818 228.651C668.545 228.946 668.137 229.228 667.267 229.555L662.662 231.287L661.954 229.406L666.602 227.658C667.458 227.336 667.773 226.768 667.472 225.968L666.802 224.185L663.362 225.479C661.228 226.281 660.288 225.273 659.797 223.967Z" fill="#0E2517"/>
<path d="M656.703 215.981L658.231 215.358L658.854 216.886C659.539 218.566 660.507 219.112 662.104 218.46C663.563 217.866 663.985 216.916 663.425 215.541L662.649 213.638L664.191 213.009L665.142 215.343C666.048 217.565 665.391 219.291 663.002 220.265C660.46 221.301 658.521 220.439 657.417 217.731L656.703 215.981Z" fill="#0E2517"/>
<path d="M654.441 210.766L655.971 210.108L656.386 211.073C656.646 211.679 657.107 211.84 657.728 211.573L661.131 210.11L660.403 208.415L661.946 207.752L663.469 211.293L658.604 213.384C657.805 213.728 657.311 213.794 656.911 213.737C656.148 213.673 655.472 213.164 655.063 212.213L654.441 210.766Z" fill="#0E2517"/>
<path d="M652.973 207.36L658.797 204.768L658.425 203.932L659.96 203.249L661.161 205.948L653.802 209.223L652.973 207.36Z" fill="#0E2517"/>
<path d="M649.234 203.883L656.757 200.353L656.343 199.471L657.864 198.757L659.145 201.486L650.101 205.73L649.234 203.883Z" fill="#0E2517"/>
<path d="M403.407 13.9424L404.735 6.4846L402.918 6.16137L403.165 4.77317C404.391 4.99129 405.235 4.44074 405.722 3.50647L407.302 3.78766L405.431 14.3024L403.407 13.9424Z" fill="#0E2517"/>
<path d="M398.402 13.3266C397.749 13.2266 397.295 12.6259 397.397 11.9586C397.495 11.3211 398.11 10.8691 398.763 10.9691C399.415 11.069 399.867 11.6846 399.77 12.3222C399.667 12.9894 399.054 13.4265 398.402 13.3266Z" fill="#0E2517"/>
<path d="M393.187 12.3629L393.86 7.44371C393.984 6.53715 393.62 5.98777 392.773 5.8719L388.805 5.32917L389.032 3.66467L393.491 4.27448C394.709 4.44116 395.483 5.09205 395.773 5.96432C395.9 6.36025 395.971 6.83926 395.843 7.77554L395.178 12.6352L393.187 12.3629ZM387.941 11.6453L388.504 7.52869L390.495 7.80107L389.932 11.9177L387.941 11.6453Z" fill="#0E2517"/>
<path d="M380.062 10.7464L380.243 9.10645L381.884 9.28815C383.688 9.48803 384.629 8.89804 384.819 7.18353C384.992 5.61811 384.359 4.79338 382.883 4.62984L380.841 4.40354L381.023 2.74866L383.529 3.02618C385.914 3.29048 387.117 4.69148 386.833 7.25579C386.531 9.9841 384.847 11.2767 381.94 10.9546L380.062 10.7464Z" fill="#0E2517"/>
<path d="M374.398 10.2394L374.552 8.58153L375.597 8.67841C376.254 8.73931 376.616 8.41129 376.679 7.73917L377.02 4.04997L375.183 3.87974L375.338 2.20691L379.177 2.5626L378.688 7.83501C378.608 8.7013 378.429 9.1668 378.188 9.49095C377.768 10.1299 376.997 10.4803 375.966 10.3848L374.398 10.2394Z" fill="#0E2517"/>
<path d="M370.703 9.91601L371.189 3.55956L370.277 3.48981L370.405 1.8147L373.351 2.03997L372.737 10.0716L370.703 9.91601Z" fill="#0E2517"/>
<path d="M360.274 9.41002C359.974 9.39349 359.572 9.3412 359.16 9.18326L359.247 7.59569C359.439 7.65136 359.632 7.69205 359.902 7.70693C360.561 7.74331 361.037 7.55925 361.102 6.37605L361.29 2.97623L359.493 2.87703L359.585 1.19958L365.771 1.54101C367.029 1.61045 367.836 2.22588 368.197 3.042C368.357 3.41137 368.45 3.89723 368.399 4.82582L368.128 9.73835L366.121 9.62757L366.394 4.67012C366.445 3.75651 366.053 3.23911 365.199 3.19199L363.297 3.087L363.094 6.75642C362.969 9.03295 361.667 9.4869 360.274 9.41002Z" fill="#0E2517"/>
<path d="M352.052 9.03983L352.216 2.66693L351.301 2.64344L351.345 0.963989L354.299 1.03986L354.092 9.0922L352.052 9.03983Z" fill="#0E2517"/>
<path d="M345.766 9.21339C343.456 9.21575 341.909 7.67233 341.906 5.19734L341.902 0.952337L343.912 0.950281L343.916 5.07528C343.918 6.56028 344.654 7.50453 345.839 7.50331C347.024 7.5021 347.788 6.52632 347.786 5.02632C347.785 3.46632 347.634 2.55147 346.449 2.55269C346.074 2.55307 345.669 2.62848 345.324 2.76384L345.322 1.17384C345.892 0.963255 346.537 0.857595 347.182 0.856935C348.052 0.856045 348.682 1.1704 349.088 1.73999C349.734 2.48933 349.795 3.71926 349.796 4.97926C349.799 7.49926 348.166 9.21093 345.766 9.21339Z" fill="#0E2517"/>
<path d="M338.101 9.07623L337.985 4.11259C337.964 3.19784 337.533 2.71279 336.663 2.73313L333.829 2.7994L333.789 1.11985L337.133 1.04166C338.348 1.01326 339.2 1.51849 339.64 2.34844C339.828 2.71913 339.974 3.18085 339.996 4.12559L340.111 9.02925L338.101 9.07623Z" fill="#0E2517"/>
<path d="M330.376 9.3042L330.128 2.93401L329.214 2.96956L329.148 1.29083L332.101 1.17603L332.414 9.22495L330.376 9.3042Z" fill="#0E2517"/>
<path d="M320.24 9.89323L319.742 1.85365L324.503 1.55869C325.731 1.48263 326.602 1.96965 327.058 2.76803C327.276 3.13026 327.439 3.58602 327.497 4.52921L327.801 9.42482L320.24 9.89323ZM322.143 8.09216L325.706 7.8714L325.503 4.59269C325.446 3.67944 324.981 3.21228 324.128 3.26515L321.852 3.40614L322.143 8.09216Z" fill="#0E2517"/>
<path d="M307.09 11.2578C306.791 11.2885 306.385 11.3 305.954 11.2087L305.791 9.627C305.99 9.65181 306.187 9.66171 306.455 9.6341C307.112 9.56659 307.553 9.31014 307.432 8.13135L307.084 4.74421L305.293 4.92831L305.121 3.25712L311.284 2.6235C312.537 2.49463 313.431 2.97573 313.915 3.72514C314.131 4.06484 314.3 4.53005 314.395 5.45517L314.898 10.3494L312.898 10.555L312.391 5.61599C312.297 4.70579 311.829 4.25634 310.978 4.34379L309.083 4.53863L309.459 8.19436C309.692 10.4624 308.477 11.1151 307.09 11.2578Z" fill="#0E2517"/>
<path d="M298.579 12.2101L298.366 10.5739L300.003 10.3615C301.803 10.128 302.577 9.33176 302.355 7.6211C302.152 6.0592 301.341 5.40809 299.869 5.59919L297.831 5.86364L297.617 4.21249L300.116 3.8882C302.496 3.57935 303.997 4.65514 304.329 7.21369C304.682 9.93586 303.354 11.5905 300.453 11.9669L298.579 12.2101Z" fill="#0E2517"/>
<path d="M292.961 13.0605L292.717 11.4135L293.755 11.2596C294.408 11.1629 294.682 10.7584 294.583 10.0907L294.04 6.42569L292.215 6.6961L291.969 5.03424L295.782 4.46924L296.558 9.70706C296.686 10.5677 296.622 11.0623 296.465 11.4343C296.208 12.1548 295.542 12.678 294.519 12.8297L292.961 13.0605Z" fill="#0E2517"/>
<path d="M289.291 13.6254L288.251 7.33574L287.348 7.48501L287.074 5.82751L289.99 5.34546L291.304 13.2926L289.291 13.6254Z" fill="#0E2517"/>
<path d="M284.978 16.3477L283.496 8.17079L282.537 8.34459L282.238 6.69149L285.204 6.15405L286.985 15.984L284.978 16.3477Z" fill="#0E2517"/>
<path d="M344.588 21V346" stroke="#D4D7D6"/>
<path d="M653 244L345 346.261" stroke="#D4D7D6"/>
<path d="M535.5 609L345.002 346" stroke="#D4D7D6"/>
<path d="M153 607.5L345.002 346" stroke="#D4D7D6"/>
<path d="M36 245.261L345 346.261" stroke="#D4D7D6"/>
</svg>