<svg xmlns="http://www.w3.org/2000/svg" width="680" height="671" viewBox="0 0 680 671" fill="none">
<circle cx="336.656" cy="345.145" r="325" fill="#F4F4F4"/>
<circle cx="336.656" cy="345.145" r="324.5" stroke="#0E2517" stroke-opacity="0.2"/>
<circle cx="336.656" cy="345.145" r="195" fill="#F4F4F4"/>
<circle cx="336.656" cy="345.145" r="194.5" stroke="#0E2517" stroke-opacity="0.5"/>
<circle cx="336.656" cy="345.145" r="65" fill="#F4F4F4"/>
<circle cx="336.656" cy="345.145" r="64.5338" stroke="#0E2517" stroke-opacity="0.2" stroke-width="0.932432"/>
<circle cx="32.5" cy="32.5" r="32.5" transform="matrix(1 0 0 -1 304.656 378.145)" fill="#F4F4F4"/>
<circle cx="32.5" cy="32.5" r="32" transform="matrix(1 0 0 -1 304.656 378.145)" stroke="#0E2517" stroke-opacity="0.2"/>
<path d="M324.234 659.872C324.318 659.454 324.414 659.013 324.523 658.535C324.781 657.414 325.08 656.558 326.266 656.194L324.336 653.429L326.219 653.479L328.058 656.098C328.846 655.807 328.935 655.173 329.049 654.516C329.105 654.193 329.15 653.858 329.206 653.56L330.862 653.605C330.805 653.915 330.736 654.273 330.654 654.619C330.38 655.872 330.034 656.715 328.716 657.052L330.82 660.05L328.937 659.999L326.96 657.185C326.303 657.515 326.249 658.162 326.126 658.735C326.041 659.189 325.972 659.523 325.914 659.917L324.234 659.872Z" fill="#0E2517"/>
<path d="M333.035 660.089L333.04 658.757L334.72 658.764C336.448 658.771 337.194 658.258 337.201 656.686C337.206 655.414 336.633 654.812 335.553 654.808C334.665 654.804 334.111 655.234 334.108 655.882C334.106 656.422 334.489 656.675 334.969 656.761L334.963 658.069C334.159 658.066 332.577 657.615 332.584 655.935C332.59 654.447 333.83 653.456 335.678 653.464C337.706 653.473 338.782 654.569 338.773 656.597C338.764 658.877 337.451 660.108 334.979 660.097L333.035 660.089Z" fill="#0E2517"/>
<path d="M343.883 660.036L343.798 656.065C343.782 655.333 343.438 654.945 342.742 654.96L340.474 655.009L340.445 653.665L343.121 653.607C344.092 653.586 344.773 653.992 345.124 654.656C345.274 654.953 345.39 655.323 345.406 656.078L345.491 660.002L343.883 660.036Z" fill="#0E2517"/>
<path d="M351.711 659.904C351.435 659.916 351.206 659.902 350.976 659.853L350.915 658.51C351.109 658.55 351.373 658.549 351.517 658.543C352.656 658.491 353.151 657.76 353.092 656.477C353.036 655.23 352.498 654.498 351.587 654.54C350.843 654.573 350.471 655.095 350.251 655.814C350.004 656.45 349.926 657.378 349.829 658.668L349.754 659.921L348.159 659.993C348.202 658.826 348.368 656.921 348.563 655.674L347.251 653.512L349.061 653.429L349.656 654.351C350.127 653.621 350.819 653.241 351.742 653.199C353.408 653.123 354.585 654.175 354.682 656.297C354.777 658.394 353.749 659.811 351.711 659.904Z" fill="#0E2517"/>
<path d="M317.052 534.089L317.471 530.139C317.548 529.412 317.244 528.981 316.564 528.909L313.377 528.571L313.519 527.235L317.099 527.614C318.078 527.718 318.712 528.22 318.965 528.91C319.076 529.224 319.145 529.605 319.065 530.357L318.651 534.259L317.052 534.089ZM312.84 533.643L313.19 530.337L314.789 530.507L314.439 533.812L312.84 533.643Z" fill="#0E2517"/>
<path d="M324.847 534.857C324.571 534.841 324.345 534.803 324.121 534.729L324.203 533.388C324.392 533.447 324.654 533.475 324.798 533.484C325.936 533.553 326.506 532.879 326.584 531.597C326.66 530.351 326.203 529.566 325.292 529.511C324.55 529.465 324.124 529.944 323.829 530.636C323.516 531.242 323.34 532.157 323.106 533.429L322.899 534.667L321.306 534.57C321.472 533.414 321.839 531.537 322.166 530.318L321.091 528.029L322.899 528.139L323.393 529.119C323.939 528.442 324.667 528.138 325.589 528.194C327.254 528.296 328.313 529.466 328.184 531.586C328.056 533.682 326.883 534.981 324.847 534.857Z" fill="#0E2517"/>
<path d="M330.761 532.77L330.833 529.927L330.102 529.908L330.136 528.564L332.475 528.624L332.369 532.811L330.761 532.77Z" fill="#0E2517"/>
<path d="M335.424 532.859L335.433 530.015L334.701 530.013L334.706 528.669L337.046 528.676L337.032 532.864L335.424 532.859Z" fill="#0E2517"/>
<path d="M342.266 535.011L343.882 529.854L339.457 530.002L339.412 528.659L345.54 528.454L345.584 529.761L343.945 534.955L342.266 535.011ZM339.727 536.645L339.564 531.776L341.171 531.722L341.334 536.591L339.727 536.645Z" fill="#0E2517"/>
<path d="M354.641 534.262L354.28 530.306C354.213 529.577 353.843 529.214 353.15 529.277L350.891 529.483L350.769 528.144L353.434 527.901C354.402 527.813 355.109 528.17 355.505 528.809C355.676 529.095 355.817 529.455 355.886 530.208L356.242 534.116L354.641 534.262Z" fill="#0E2517"/>
<path d="M358.535 533.883L358.36 532.551L361.608 532.124L361.266 529.518C361.17 528.793 360.786 528.444 360.096 528.534L357.93 528.819L357.755 527.487L360.313 527.15C361.324 527.017 362.062 527.38 362.462 528.03C362.63 528.298 362.771 528.631 362.866 529.356L363.203 531.914L364.238 531.778L364.413 533.111L358.535 533.883Z" fill="#0E2517"/>
<path d="M310.975 399.256L312.692 395.674C313.008 395.014 312.876 394.512 312.248 394.211L310.203 393.231L310.784 392.019L313.197 393.176C314.074 393.596 314.498 394.265 314.511 395.016C314.511 395.349 314.448 395.731 314.121 396.413L312.425 399.951L310.975 399.256Z" fill="#0E2517"/>
<path d="M314.493 400.87L314.918 399.62L316.168 400.045C317.542 400.513 318.379 400.215 318.823 398.908C319.229 397.716 318.877 396.962 317.753 396.579L316.197 396.05L316.626 394.789L318.534 395.438C320.352 396.057 321.049 397.359 320.384 399.313C319.677 401.392 318.139 402.111 315.924 401.357L314.493 400.87Z" fill="#0E2517"/>
<path d="M322.404 401.062L323.058 398.294L322.345 398.126L322.654 396.818L324.932 397.356L323.969 401.432L322.404 401.062Z" fill="#0E2517"/>
<path d="M325.73 404.141L325.925 402.823L326.756 402.945C327.278 403.022 327.581 402.776 327.66 402.242L328.092 399.309L326.632 399.094L326.828 397.764L329.879 398.214L329.261 402.405C329.16 403.093 328.997 403.458 328.791 403.706C328.427 404.198 327.796 404.445 326.977 404.324L325.73 404.141Z" fill="#0E2517"/>
<path d="M338.092 405.008L338.01 401.036C337.995 400.305 337.651 399.916 336.955 399.93L334.688 399.977L334.66 398.633L337.336 398.578C338.307 398.558 338.988 398.964 339.338 399.629C339.488 399.926 339.603 400.296 339.619 401.051L339.7 404.975L338.092 405.008Z" fill="#0E2517"/>
<path d="M342.69 404.791L342.11 399.724L341.382 399.808L341.229 398.472L343.578 398.204L344.311 404.606L342.69 404.791Z" fill="#0E2517"/>
<path d="M347.054 404.181L346.755 402.883L348.392 402.505C350.076 402.117 350.685 401.447 350.332 399.916C350.046 398.676 349.35 398.221 348.298 398.463C347.432 398.663 346.991 399.208 347.137 399.839C347.258 400.365 347.689 400.525 348.176 400.499L348.469 401.773C347.686 401.954 346.043 401.877 345.665 400.24C345.331 398.79 346.312 397.542 348.113 397.127C350.089 396.671 351.387 397.493 351.842 399.469C352.354 401.691 351.357 403.189 348.948 403.744L347.054 404.181Z" fill="#0E2517"/>
<path d="M354.496 400.024L353.569 397.336L352.877 397.574L352.439 396.304L354.651 395.541L356.016 399.5L354.496 400.024Z" fill="#0E2517"/>
<path d="M362.566 399.251C360.567 400.215 358.584 399.612 357.578 397.526L356.323 394.921L357.695 394.259L358.857 396.67C358.967 396.897 359.077 397.097 359.214 397.271C360.082 396.639 360.253 395.944 359.747 394.895L359.111 393.577L360.452 392.93L361.119 394.314C361.833 395.795 361.5 396.901 360.04 398.018C360.636 398.37 361.334 398.38 362.026 398.046C363.312 397.426 363.697 396.042 362.978 394.55L361.868 392.248L363.241 391.586L364.413 394.018C365.424 396.115 364.685 398.23 362.566 399.251Z" fill="#0E2517"/>
<path d="M320.699 367.269L323.044 364.063C323.476 363.472 323.439 362.954 322.877 362.543L321.046 361.204L321.839 360.119L323.999 361.699C324.784 362.273 325.079 363.008 324.953 363.749C324.892 364.076 324.76 364.44 324.314 365.05L321.997 368.218L320.699 367.269Z" fill="#0E2517"/>
<path d="M325.414 370.33L325.813 369.059L327.416 369.562C329.065 370.079 329.929 369.81 330.4 368.31C330.781 367.097 330.411 366.352 329.381 366.028C328.533 365.762 327.877 366.009 327.683 366.627C327.522 367.143 327.812 367.498 328.245 367.722L327.854 368.97C327.086 368.729 325.708 367.831 326.211 366.228C326.657 364.808 328.134 364.228 329.898 364.782C331.833 365.389 332.536 366.754 331.929 368.689C331.246 370.865 329.628 371.652 327.269 370.912L325.414 370.33Z" fill="#0E2517"/>
<path d="M334.822 372.902L334.941 367.803L334.209 367.786L334.241 366.442L336.604 366.497L336.453 372.94L334.822 372.902Z" fill="#0E2517"/>
<path d="M343.972 371.853C341.851 372.509 339.981 371.618 339.296 369.405L338.442 366.643L339.898 366.192L340.688 368.749C340.763 368.99 340.842 369.204 340.951 369.396C341.903 368.901 342.176 368.238 341.832 367.126L341.399 365.728L342.821 365.288L343.275 366.756C343.761 368.326 343.267 369.371 341.658 370.258C342.195 370.695 342.883 370.808 343.617 370.581C344.981 370.159 345.567 368.848 345.078 367.266L344.323 364.824L345.779 364.373L346.577 366.953C347.264 369.177 346.219 371.158 343.972 371.853Z" fill="#0E2517"/>
<path d="M354.214 367.001C353.996 367.17 353.801 367.291 353.584 367.383L352.761 366.321C352.942 366.241 353.158 366.089 353.272 366.001C354.173 365.302 354.157 364.419 353.371 363.404C352.606 362.418 351.745 362.129 351.024 362.687C350.436 363.143 350.432 363.784 350.666 364.498C350.83 365.16 351.301 365.964 351.964 367.075L352.624 368.142L351.362 369.12C350.725 368.141 349.763 366.487 349.206 365.356L346.888 364.343L348.32 363.233L349.337 363.645C349.302 362.777 349.649 362.068 350.379 361.502C351.698 360.48 353.266 360.662 354.566 362.341C355.852 364.002 355.827 365.752 354.214 367.001Z" fill="#0E2517"/>
<path d="M336.652 20.6426L337.152 345.643" stroke="#0E2517" stroke-opacity="0.2"/>
<path d="M645.146 244.642L337.148 345.642" stroke="#0E2517" stroke-opacity="0.2"/>
<path d="M527.145 607.643L337.144 345.641" stroke="#0E2517" stroke-opacity="0.2"/>
<path d="M146.148 607.643L337.148 345.643" stroke="#0E2517" stroke-opacity="0.2"/>
<path d="M28.1523 244.643L337.149 345.642" stroke="#0E2517" stroke-opacity="0.2"/>
<path d="M8.19971 270.419C8.12933 270.711 8.00515 271.097 7.77538 271.474L6.22976 271.101C6.31925 270.922 6.39416 270.739 6.4575 270.477C6.61235 269.835 6.5173 269.334 5.36537 269.056L2.0554 268.257L1.63311 270.007L0 269.613L1.45339 263.591C1.749 262.366 2.50016 261.683 3.36799 261.476C3.76017 261.385 4.25493 261.381 5.15897 261.599L9.94166 262.754L9.47009 264.708L4.64367 263.543C3.7542 263.328 3.17448 263.62 2.97389 264.451L2.52697 266.303L6.0994 267.165C8.31576 267.7 8.52699 269.063 8.19971 270.419Z" fill="white"/>
<path d="M10.585 260.255L4.42456 258.615L4.18918 259.499L2.56572 259.067L3.32587 256.212L11.1098 258.284L10.585 260.255Z" fill="white"/>
<path d="M11.5779 256.679L9.97533 256.228L10.2602 255.217C10.4392 254.582 10.1822 254.166 9.53255 253.983L5.96648 252.978L5.46597 254.754L3.84897 254.298L4.89475 250.588L9.99119 252.024C10.8286 252.26 11.2539 252.52 11.529 252.816C12.0811 253.346 12.2859 254.167 12.0052 255.163L11.5779 256.679Z" fill="white"/>
<path d="M10.6535 249.517L7.24214 248.516L6.98467 249.394L5.37255 248.922L6.1956 246.115L11.2191 247.588L10.6535 249.517Z" fill="white"/>
<path d="M12.0115 245.013L8.62261 243.939L8.34619 244.811L6.74469 244.303L7.62834 241.515L12.6187 243.096L12.0115 245.013Z" fill="white"/>
<path d="M16.1271 241.383L10.0576 239.433L9.77775 240.304L8.17829 239.79L9.08221 236.977L16.7511 239.441L16.1271 241.383Z" fill="white"/>
<path d="M17.3046 237.784L15.72 237.226L17.0953 233.321L9.52266 235.632L10.285 233.468L13.9187 232.362C13.795 231.539 13.0884 231.242 12.3834 230.851C12.0446 230.684 11.725 230.508 11.3862 230.341L12.0888 228.346L13.2067 229.01C14.4469 229.733 15.3602 230.436 15.3778 231.921L18.1388 231.081L19.497 231.559L17.3046 237.784Z" fill="white"/>
<path d="M22.0469 225.269C21.9245 225.592 21.7953 225.848 21.6241 226.088L20.0534 225.492C20.1946 225.288 20.3257 224.985 20.3896 224.817C20.8952 223.485 20.3019 222.554 18.8013 221.984C17.3428 221.431 16.2358 221.684 15.8313 222.75C15.5013 223.62 15.9147 224.306 16.6304 224.915C17.2373 225.514 18.2639 226.064 19.6953 226.816L21.0953 227.523L20.3875 229.389C19.0697 228.76 16.9657 227.625 15.6329 226.782L12.5009 227.214L13.3045 225.096L14.6573 224.872C14.0533 223.969 13.9606 222.987 14.3704 221.907C15.1101 219.958 16.9006 219.129 19.3829 220.071C21.8371 221.002 22.9516 222.885 22.0469 225.269Z" fill="white"/>
<path d="M25.8343 215.738C25.5775 216.346 24.8837 216.639 24.2619 216.376C23.6678 216.125 23.3804 215.418 23.6372 214.81C23.894 214.202 24.6016 213.914 25.1957 214.165C25.8176 214.428 26.0911 215.13 25.8343 215.738Z" fill="white"/>
<path d="M27.8823 211.019C27.5631 211.747 27.1546 212.305 26.6604 212.76L25.0463 211.921C25.5697 211.512 25.9979 210.946 26.275 210.314C26.8954 208.899 26.5056 207.696 25.3517 207.19C24.4587 206.799 23.6039 207.03 23.2064 207.937C22.9956 208.418 22.9951 208.942 23.1863 209.402L22.1402 210.368L17.3651 207.849L19.4372 203.123L20.9895 203.804L19.5981 206.977L21.5435 207.994C21.5601 207.657 21.6497 207.303 21.8123 206.932C22.5532 205.243 24.1702 204.543 25.9836 205.338C28.1404 206.284 28.9364 208.615 27.8823 211.019Z" fill="white"/>
<path d="M178.884 643.714L176.57 648.107C176.144 648.917 176.298 649.558 177.055 649.956L180.599 651.822L179.816 653.309L175.834 651.212C174.746 650.639 174.241 649.763 174.267 648.844C174.282 648.428 174.38 647.954 174.82 647.118L177.105 642.778L178.884 643.714ZM183.569 646.181L181.633 649.858L179.855 648.921L181.791 645.245L183.569 646.181Z" fill="white"/>
<path d="M172.566 640.256L167.495 644.719L172.321 647.43L171.498 648.895L164.815 645.14L165.616 643.715L170.735 639.227L172.566 640.256ZM176.339 640.156L173.356 645.465L171.603 644.48L174.586 639.171L176.339 640.156Z" fill="white"/>
<path d="M166.734 636.947L163.524 642.455L164.314 642.915L163.468 644.367L160.915 642.879L164.971 635.92L166.734 636.947Z" fill="white"/>
<path d="M161.953 634.093C161.588 635.63 161.216 637.234 160.547 638.319C160.067 639.098 159.496 639.539 158.915 639.709L160.192 640.496L159.311 641.927L155.276 639.44L156.157 638.01L157.013 638.537C157.728 638.978 158.333 638.681 158.727 638.043C159.285 637.136 159.601 635.251 160.038 632.913L161.953 634.093Z" fill="white"/>
<path d="M158.173 631.741L153.825 638.521L149.822 635.955C148.787 635.291 148.371 634.383 148.463 633.462C148.514 633.049 148.651 632.584 149.161 631.789L151.809 627.66L153.501 628.745L150.821 632.924C150.327 633.695 150.426 634.346 151.146 634.808L153.04 636.022L156.481 630.656L158.173 631.741Z" fill="white"/>
<path d="M149.592 626.05C149.839 626.219 150.157 626.472 150.428 626.82L149.531 628.133C149.395 627.986 149.251 627.851 149.028 627.699C148.483 627.327 147.981 627.238 147.313 628.217L145.393 631.029L146.879 632.044L145.932 633.431L140.816 629.938C139.775 629.228 139.403 628.283 139.517 627.398C139.571 627 139.742 626.536 140.267 625.768L143.041 621.704L144.701 622.838L141.901 626.938C141.385 627.694 141.453 628.339 142.159 628.821L143.733 629.896L145.805 626.861C147.09 624.978 148.439 625.263 149.592 626.05Z" fill="white"/>
<path d="M140.938 620.21L137.193 625.369L137.933 625.906L136.946 627.266L134.555 625.53L139.287 619.011L140.938 620.21Z" fill="white"/>
<path d="M134.062 615.153L128.248 618.734L131.514 621.23L128.864 624.698L127.279 623.487L128.909 621.353L125.524 618.767L126.48 617.516L132.381 613.869L134.062 615.153Z" fill="white"/>
<path d="M128.569 610.923L124.624 615.931L125.342 616.497L124.302 617.817L121.981 615.988L126.967 609.661L128.569 610.923Z" fill="white"/>
<path d="M125.512 608.492L124.445 609.79L122.626 608.295L120.538 614.83L118.845 613.44L120.928 607.172C120.491 607.065 120.089 607.201 119.535 607.639C118.826 608.124 117.737 609.307 116.995 610.211L116.157 611.231L114.557 609.917C114.833 609.581 115.119 609.233 115.521 608.767C116.085 608.104 116.805 607.299 117.422 606.737C119.41 604.955 121.131 604.893 123.588 606.911L125.512 608.492Z" fill="white"/>
<path d="M118.091 602.353L117 603.61L115.413 602.234C113.782 600.819 112.657 600.696 111.369 602.181C110.327 603.382 110.379 604.42 111.399 605.305C112.237 606.032 113.113 606.076 113.643 605.464C114.086 604.955 113.93 604.402 113.545 603.93L114.617 602.695C115.376 603.353 116.508 605.07 115.131 606.656C113.913 608.061 111.93 607.989 110.185 606.475C108.27 604.814 108.145 602.898 109.806 600.983C111.674 598.831 113.921 598.735 116.255 600.76L118.091 602.353Z" fill="white"/>
<path d="M111.126 596.104C111.347 596.307 111.625 596.603 111.843 596.986L110.768 598.158C110.654 597.993 110.531 597.839 110.332 597.656C109.846 597.21 109.361 597.05 108.56 597.923L106.258 600.432L107.584 601.649L106.448 602.887L101.884 598.698C100.955 597.846 100.722 596.858 100.961 595.998C101.072 595.611 101.308 595.176 101.937 594.491L105.264 590.867L106.745 592.226L103.387 595.884C102.769 596.558 102.743 597.206 103.373 597.785L104.777 599.073L107.262 596.365C108.803 594.685 110.098 595.161 111.126 596.104Z" fill="white"/>
<path d="M100.63 586.109C101.102 586.569 101.123 587.322 100.652 587.805C100.202 588.268 99.4388 588.278 98.9659 587.817C98.493 587.357 98.4827 586.593 98.9327 586.131C99.4035 585.648 100.157 585.648 100.63 586.109Z" fill="white"/>
<path d="M94.8291 580.562L93.2518 582.103L96.6899 585.622L95.4989 586.786L87.9652 588.819L86.4453 587.263L93.9578 585.23L92.0501 583.277L90.784 584.514L89.4421 583.161L90.7189 581.914L90.0061 581.184L91.2078 580.01L91.9206 580.74L93.4979 579.199L94.8291 580.562Z" fill="white"/>
<path d="M554.272 603.965L555.336 605.265L553.514 606.757L559.514 610.084L557.819 611.471L552.08 608.202C551.89 608.609 551.944 609.03 552.265 609.659C552.602 610.45 553.549 611.749 554.29 612.654L555.126 613.675L553.524 614.987C553.249 614.65 552.964 614.302 552.586 613.816C552.046 613.134 551.397 612.269 550.967 611.555C549.608 609.256 549.885 607.556 552.345 605.542L554.272 603.965Z" fill="white"/>
<path d="M546.434 610.33L550.355 615.356L551.077 614.793L552.11 616.118L549.78 617.936L544.826 611.584L546.434 610.33Z" fill="white"/>
<path d="M543.442 612.649L544.454 613.99L541.15 616.485L548.738 618.743L546.907 620.126L543.267 619.04C542.916 619.794 543.341 620.432 543.712 621.148C543.902 621.474 544.071 621.797 544.261 622.124L542.574 623.398L542.009 622.227C541.375 620.939 541.002 619.848 541.808 618.601L539.042 617.776L538.175 616.627L543.442 612.649Z" fill="white"/>
<path d="M537.569 620.585L539.667 623.455L540.406 622.915L541.397 624.271L539.035 625.997L535.946 621.771L537.569 620.585Z" fill="white"/>
<path d="M532.861 620.511L533.818 621.892L530.452 624.225L532.323 626.925C532.844 627.677 533.471 627.844 534.186 627.349L536.43 625.794L537.387 627.175L534.737 629.012C533.689 629.738 532.661 629.756 531.845 629.263C531.504 629.061 531.158 628.772 530.637 628.02L528.8 625.37L527.727 626.113L526.77 624.732L532.861 620.511Z" fill="white"/>
<path d="M521.557 627.964C522.111 627.606 522.849 627.753 523.216 628.32C523.566 628.862 523.406 629.608 522.852 629.967C522.298 630.325 521.551 630.165 521.201 629.624C520.834 629.057 521.003 628.323 521.557 627.964Z" fill="white"/>
<path d="M517.481 630.582C518.052 630.223 518.662 629.982 519.26 629.89L520.241 631.452C519.633 631.498 518.994 631.722 518.422 632.081C517.076 632.927 516.723 634.141 517.393 635.208C517.928 636.059 518.791 636.278 519.63 635.751C519.998 635.52 520.282 635.182 520.434 634.803L521.565 636.041L521.162 639.093L523.868 637.393L524.777 638.841L520.014 641.834L519.272 640.652L519.718 637.556C518.338 638.263 516.811 637.947 515.829 636.385C514.577 634.391 515.207 632.011 517.481 630.582Z" fill="white"/>
<path d="M640.898 203.027L648.421 199.497L648.007 198.614L649.528 197.9L650.809 200.63L641.765 204.874L640.898 203.027Z" fill="white"/>
<path d="M644.63 206.503L650.454 203.911L650.082 203.075L651.617 202.392L652.819 205.092L645.459 208.367L644.63 206.503Z" fill="white"/>
<path d="M646.104 209.909L647.633 209.252L648.048 210.216C648.309 210.823 648.77 210.984 649.39 210.717L652.794 209.254L652.065 207.559L653.608 206.895L655.131 210.437L650.267 212.528C649.467 212.872 648.973 212.937 648.573 212.881C647.811 212.816 647.135 212.307 646.726 211.356L646.104 209.909Z" fill="white"/>
<path d="M648.364 215.124L649.892 214.501L650.515 216.029C651.2 217.71 652.168 218.255 653.765 217.604C655.224 217.009 655.646 216.06 655.086 214.684L654.31 212.781L655.852 212.153L656.803 214.486C657.709 216.709 657.052 218.435 654.663 219.409C652.121 220.445 650.182 219.583 649.078 216.874L648.364 215.124Z" fill="white"/>
<path d="M651.457 223.111C651.351 222.83 651.236 222.44 651.215 222L652.703 221.44C652.73 221.638 652.77 221.831 652.865 222.084C653.098 222.702 653.458 223.063 654.567 222.646L657.754 221.447L657.12 219.762L658.693 219.171L660.874 224.969C661.317 226.149 661.08 227.136 660.478 227.795C660.204 228.09 659.797 228.371 658.927 228.699L654.322 230.431L653.614 228.549L658.261 226.801C659.118 226.479 659.433 225.912 659.132 225.112L658.462 223.329L655.022 224.622C652.888 225.425 651.948 224.416 651.457 223.111Z" fill="white"/>
<path d="M655.201 232.856L661.204 230.71L660.896 229.849L662.478 229.283L663.473 232.066L655.888 234.777L655.201 232.856Z" fill="white"/>
<path d="M657.504 239.615L659.103 239.101L660.355 243L663.483 241.995C664.354 241.716 664.697 241.164 664.431 240.336L663.596 237.737L665.196 237.223L666.182 240.294C666.572 241.507 666.291 242.496 665.581 243.133C665.289 243.4 664.912 243.648 664.041 243.927L660.97 244.914L661.369 246.156L659.77 246.67L657.504 239.615Z" fill="white"/>
<path d="M660.247 248.264L666.359 246.453L666.099 245.576L667.71 245.099L668.549 247.932L660.826 250.22L660.247 248.264Z" fill="white"/>
<path d="M661.307 251.899L662.926 251.448L664.036 255.437L668.918 249.204L669.534 251.415L667.189 254.403C667.762 255.007 668.511 254.845 669.313 254.762C669.687 254.704 670.05 254.666 670.423 254.608L670.99 256.646L669.694 256.742C668.263 256.86 667.111 256.807 666.246 255.6L664.465 257.871L663.077 258.257L661.307 251.899Z" fill="white"/>
<path d="M666.536 260.278L669.977 259.386L669.747 258.5L671.373 258.078L672.108 260.91L667.04 262.224L666.536 260.278Z" fill="white"/>
<path d="M664.711 264.546L666.345 264.158L666.889 266.45L672.507 262.511L673.012 264.642L667.561 268.371C667.844 268.72 668.246 268.856 668.952 268.843C669.811 268.886 671.393 268.603 672.531 268.333L673.816 268.028L674.294 270.042C673.87 270.143 673.433 270.246 672.831 270.374C671.981 270.56 670.92 270.766 670.089 270.839C667.427 271.055 666.02 270.063 665.286 266.969L664.711 264.546Z" fill="white"/>
<path d="M667.63 278.395C667.497 277.748 667.902 277.113 668.563 276.977C669.195 276.847 669.832 277.267 669.966 277.913C670.099 278.56 669.679 279.198 669.047 279.328C668.386 279.464 667.763 279.041 667.63 278.395Z" fill="white"/>
<path d="M668.496 281.649L669.912 281.388L675.166 284.327C675.982 284.786 676.512 284.933 677.044 284.835C677.855 284.686 678.233 284.006 678.076 283.151C677.986 282.664 677.751 282.296 677.41 282.099C677.013 281.852 676.584 281.839 676.094 281.914L675.755 280.07C677.809 279.707 679.418 280.83 679.814 282.984C680.162 284.872 679.335 286.351 677.58 286.674C676.547 286.864 675.539 286.607 673.754 285.608L670.677 283.886L671.363 287.619L669.652 287.933L668.496 281.649Z" fill="white"/>
<path d="M276.639 15.4907L275.157 7.31374L274.198 7.48754L273.898 5.83445L276.865 5.29701L278.646 15.127L276.639 15.4907Z" fill="white"/>
<path d="M280.955 12.7684L279.915 6.47881L279.012 6.62807L278.738 4.97058L281.654 4.48853L282.968 12.4356L280.955 12.7684Z" fill="white"/>
<path d="M284.623 12.2036L284.379 10.5566L285.417 10.4027C286.07 10.3059 286.344 9.90146 286.245 9.23374L285.702 5.56875L283.877 5.83916L283.631 4.1773L287.444 3.6123L288.22 8.85012C288.348 9.71073 288.285 10.2053 288.127 10.5774C287.87 11.2979 287.205 11.821 286.181 11.9727L284.623 12.2036Z" fill="white"/>
<path d="M290.243 11.3532L290.03 9.71693L291.666 9.50459C293.466 9.27103 294.24 8.47481 294.018 6.76415C293.816 5.20224 293.005 4.55114 291.532 4.74224L289.495 5.00669L289.28 3.35553L291.779 3.03124C294.159 2.72239 295.66 3.79819 295.992 6.35673C296.346 9.07891 295.017 10.7336 292.117 11.11L290.243 11.3532Z" fill="white"/>
<path d="M298.753 10.4008C298.455 10.4315 298.049 10.443 297.617 10.3517L297.455 8.77005C297.653 8.79487 297.85 8.80477 298.119 8.77715C298.776 8.70965 299.217 8.45319 299.095 7.27441L298.747 3.88726L296.957 4.07137L296.785 2.40018L302.947 1.76656C304.201 1.63769 305.095 2.11879 305.579 2.8682C305.795 3.2079 305.963 3.67311 306.058 4.59823L306.562 9.49243L304.562 9.69801L304.054 4.75905C303.961 3.84884 303.492 3.3994 302.642 3.48684L300.747 3.68168L301.123 7.33741C301.356 9.60546 300.141 10.2581 298.753 10.4008Z" fill="white"/>
<path d="M311.906 9.03621L311.408 0.99663L316.169 0.701671C317.397 0.625613 318.268 1.11264 318.724 1.91101C318.941 2.27324 319.105 2.729 319.163 3.67219L319.467 8.56781L311.906 9.03621ZM313.808 7.23514L317.372 7.01438L317.169 3.73567C317.112 2.82242 316.647 2.35527 315.794 2.40814L313.518 2.54912L313.808 7.23514Z" fill="white"/>
<path d="M322.038 8.44722L321.791 2.07703L320.876 2.11258L320.811 0.433849L323.764 0.319046L324.077 8.36796L322.038 8.44722Z" fill="white"/>
<path d="M329.766 8.21928L329.65 3.25564C329.629 2.34089 329.197 1.85584 328.328 1.87617L325.493 1.94244L325.454 0.262898L328.798 0.184712C330.013 0.156313 330.865 0.661535 331.304 1.49149C331.493 1.86218 331.639 2.3239 331.661 3.26864L331.776 8.1723L329.766 8.21928Z" fill="white"/>
<path d="M337.428 8.35646C335.118 8.35882 333.571 6.8154 333.569 4.3404L333.565 0.0954044L335.575 0.093348L335.579 4.21835C335.58 5.70335 336.316 6.64759 337.501 6.64638C338.686 6.64517 339.45 5.66939 339.449 4.16939C339.447 2.60939 339.296 1.69454 338.111 1.69575C337.736 1.69614 337.331 1.77155 336.986 1.9069L336.985 0.316905C337.555 0.106322 338.199 0.000661785 338.844 1.88507e-06C339.714 -0.000888213 340.345 0.313468 340.75 0.883053C341.396 1.63239 341.457 2.86233 341.459 4.12233C341.461 6.64233 339.828 8.354 337.428 8.35646Z" fill="white"/>
<path d="M343.712 8.18292L343.876 1.81002L342.961 1.78653L343.004 0.107086L345.958 0.182954L345.751 8.2353L343.712 8.18292Z" fill="white"/>
<path d="M351.937 8.55309C351.638 8.53655 351.235 8.48428 350.823 8.32634L350.911 6.73875C351.103 6.79443 351.296 6.83513 351.566 6.85001C352.225 6.88639 352.7 6.70233 352.766 5.51913L352.953 2.11931L351.156 2.02011L351.249 0.342661L357.434 0.684074C358.692 0.753514 359.5 1.36894 359.86 2.18505C360.02 2.55443 360.113 3.04031 360.062 3.9689L359.791 8.88142L357.784 8.77065L358.058 3.81319C358.108 2.89958 357.716 2.38219 356.862 2.33507L354.96 2.23008L354.758 5.8995C354.632 8.17603 353.33 8.62997 351.937 8.55309Z" fill="white"/>
<path d="M362.365 9.0591L362.851 2.70266L361.939 2.6329L362.067 0.957789L365.013 1.18307L364.399 9.21462L362.365 9.0591Z" fill="white"/>
<path d="M366.062 9.3825L366.216 7.7246L367.261 7.82149C367.918 7.88238 368.28 7.55437 368.342 6.88225L368.684 3.19305L366.847 3.02282L367.002 1.34998L370.841 1.70568L370.352 6.97809C370.272 7.84438 370.093 8.30987 369.852 8.63403C369.431 9.27293 368.661 9.62332 367.63 9.52782L366.062 9.3825Z" fill="white"/>
<path d="M371.723 9.88941L371.905 8.24945L373.545 8.43116C375.349 8.63103 376.29 8.04104 376.48 6.32653C376.653 4.76111 376.02 3.93638 374.544 3.77285L372.502 3.54654L372.685 1.89167L375.19 2.16918C377.575 2.43348 378.778 3.83449 378.494 6.3988C378.192 9.1271 376.509 10.4197 373.602 10.0976L371.723 9.88941Z" fill="white"/>
<path d="M384.85 11.5059L385.522 6.58674C385.646 5.68018 385.283 5.1308 384.435 5.01494L380.467 4.4722L380.695 2.8077L385.154 3.41752C386.372 3.5842 387.146 4.23508 387.436 5.10735C387.563 5.50329 387.634 5.98229 387.506 6.91857L386.841 11.7783L384.85 11.5059ZM379.603 10.7884L380.167 6.67172L382.158 6.94411L381.595 11.0608L379.603 10.7884Z" fill="white"/>
<path d="M390.062 12.4695C389.409 12.3696 388.955 11.7688 389.057 11.1016C389.155 10.4641 389.77 10.0121 390.423 10.1121C391.075 10.212 391.527 10.8276 391.429 11.4651C391.327 12.1324 390.714 12.5695 390.062 12.4695Z" fill="white"/>
<path d="M395.068 13.0855L396.395 5.62765L394.578 5.30441L394.825 3.91621C396.051 4.13433 396.895 3.58378 397.382 2.64951L398.962 2.9307L397.091 13.4455L395.068 13.0855Z" fill="white"/>
</svg>