<svg xmlns="http://www.w3.org/2000/svg" width="699" height="699" viewBox="0 0 699 699" fill="none">
<circle cx="350.002" cy="350.002" r="325" transform="rotate(-45 350.002 350.002)" fill="#F4F4F4"/>
<circle cx="350.002" cy="350.002" r="324.5" transform="rotate(-45 350.002 350.002)" stroke="#0E2517" stroke-opacity="0.2"/>
<circle cx="350.002" cy="350.002" r="195" transform="rotate(-45 350.002 350.002)" fill="#F4F4F4"/>
<circle cx="350.002" cy="350.002" r="194.5" transform="rotate(-45 350.002 350.002)" stroke="#0E2517" stroke-opacity="0.5"/>
<circle cx="350.002" cy="350.002" r="65" transform="rotate(-45 350.002 350.002)" fill="#F4F4F4"/>
<circle cx="350.002" cy="350.002" r="64.5338" transform="rotate(-45 350.002 350.002)" stroke="#0E2517" stroke-opacity="0.2" stroke-width="0.932432"/>
<circle cx="32.5" cy="32.5" r="32.5" transform="matrix(0.707107 -0.707107 -0.707107 -0.707107 350.711 395.965)" fill="#F4F4F4"/>
<circle cx="32.5" cy="32.5" r="32" transform="matrix(0.707107 -0.707107 -0.707107 -0.707107 350.711 395.965)" stroke="#0E2517" stroke-opacity="0.2"/>
<path d="M24.7344 350.002H674.734" stroke="#0E2517" stroke-opacity="0.2"/>
<path d="M350.004 24.7324V674.732" stroke="#0E2517" stroke-opacity="0.2"/>
<path d="M15.5873 300.385L13.4048 300.071L12.7033 304.941L11.0553 304.703L4.85815 299.961L5.16828 297.808L11.3527 302.533L11.742 299.831L9.99007 299.579L10.2469 297.691L12.0136 297.946L12.1591 296.936L13.8219 297.176L13.6765 298.185L15.8589 298.5L15.5873 300.385Z" fill="#0E2517"/>
<path d="M14.7296 308.072C14.6463 308.727 14.0574 309.196 13.3878 309.111C12.748 309.03 12.2804 308.426 12.3636 307.771C12.4468 307.117 13.0506 306.649 13.6904 306.73C14.3601 306.815 14.8128 307.417 14.7296 308.072Z" fill="#0E2517"/>
<path d="M13.4604 317.705L12.0282 317.556L7.81614 313.256C7.16221 312.585 6.69475 312.295 6.15765 312.239C5.3371 312.154 4.78257 312.699 4.6924 313.564C4.64109 314.057 4.76322 314.477 5.03518 314.761C5.34567 315.11 5.75408 315.243 6.24486 315.31L6.05051 317.175C3.9783 316.943 2.75032 315.413 2.97732 313.235C3.17633 311.325 4.38577 310.139 6.16116 310.324C7.2055 310.433 8.10033 310.964 9.53158 312.425L11.9987 314.944L12.3921 311.169L14.1227 311.35L13.4604 317.705Z" fill="#0E2517"/>
<path d="M12.513 330.333L4.47651 329.787L4.79888 325.043C4.88227 323.816 5.47797 323.015 6.32954 322.651C6.71589 322.497 7.18897 322.394 8.13179 322.458L13.0255 322.791L12.8892 324.796L7.93566 324.459C7.02277 324.397 6.49942 324.798 6.44146 325.651L6.28892 327.896L12.6493 328.328L12.513 330.333Z" fill="#0E2517"/>
<path d="M12.1116 339.223L10.4331 339.153L10.6047 335.061L7.32263 334.924C6.40844 334.885 5.89627 335.284 5.8598 336.154L5.74536 338.881L4.06683 338.811L4.20202 335.589C4.25547 334.315 4.86081 333.484 5.74639 333.131C6.11299 332.981 6.55264 332.88 7.46684 332.918L10.689 333.053L10.7437 331.749L12.4222 331.82L12.1116 339.223Z" fill="#0E2517"/>
<path d="M12.0209 342.865L7.057 342.763C6.14219 342.744 5.63866 343.153 5.62075 344.023L5.5624 346.858L3.88275 346.823L3.9516 343.479C3.97661 342.264 4.51879 341.435 5.36725 341.032C5.74588 340.86 6.21356 340.735 7.15836 340.754L12.0623 340.855L12.0209 342.865Z" fill="#0E2517"/>
<path d="M11.9466 350.457L6.98172 350.494C6.06675 350.501 5.57504 350.94 5.58149 351.795L5.61168 355.8L3.93173 355.813L3.8978 351.313C3.88853 350.083 4.42207 349.224 5.24399 348.812C5.61762 348.63 6.08159 348.491 7.02657 348.484L11.9314 348.447L11.9466 350.457ZM11.9865 355.752L7.83162 355.783L7.81647 353.773L11.9714 353.742L11.9865 355.752Z" fill="#0E2517"/>
<path d="M12.1828 363.16L5.81268 363.41L5.84861 364.324L4.1699 364.39L4.05387 361.438L12.1027 361.121L12.1828 363.16Z" fill="#0E2517"/>
<path d="M12.5312 369.856L6.04027 367.984L6.35246 373.51L4.67513 373.605L4.24281 365.952L5.8752 365.86L12.4127 367.759L12.5312 369.856ZM14.6458 372.982L8.56554 373.325L8.45217 371.318L14.5325 370.975L14.6458 372.982Z" fill="#0E2517"/>
<path d="M13.016 377.042L8.06829 377.456C7.15647 377.533 6.69946 378.007 6.77073 378.859L7.1046 382.85L5.43044 382.99L5.05532 378.506C4.95278 377.28 5.41962 376.383 6.20799 375.911C6.56668 375.7 7.01881 375.527 7.96052 375.448L12.8484 375.039L13.016 377.042ZM13.4574 382.319L9.31687 382.665L9.14931 380.662L13.2898 380.316L13.4574 382.319Z" fill="#0E2517"/>
<path d="M11.0593 386.626L7.5244 387.003L7.62147 387.913L5.95095 388.091L5.64063 385.182L10.8461 384.627L11.0593 386.626Z" fill="#0E2517"/>
<path d="M14.6724 393.151L8.04772 391.498L8.54681 395.578L4.21411 396.108L3.97186 394.128L6.63698 393.801L6.11969 389.573L7.68303 389.382L14.4156 391.052L14.6724 393.151Z" fill="#0E2517"/>
<path d="M15.3588 398.147L10.4476 398.876C9.54252 399.01 9.11675 399.513 9.24228 400.359L9.8303 404.32L8.1685 404.567L7.50781 400.116C7.32722 398.899 7.73584 397.974 8.49243 397.452C8.83694 397.219 9.27708 397.017 10.2118 396.879L15.0637 396.158L15.3588 398.147ZM16.1362 403.384L12.0262 403.994L11.7311 402.006L15.8411 401.396L16.1362 403.384Z" fill="#0E2517"/>
<path d="M287.845 681.659C288.509 681.783 289.12 682.02 289.622 682.359L289.281 684.172C288.803 683.792 288.182 683.523 287.519 683.398C285.956 683.105 284.872 683.756 284.639 684.994C284.454 685.982 284.939 686.729 285.912 686.912C286.34 686.992 286.777 686.937 287.146 686.762L287.136 688.439L284.767 690.406L287.908 690.996L287.592 692.676L282.064 691.638L282.321 690.267L284.752 688.297C283.258 687.879 282.352 686.61 282.692 684.796C283.127 682.482 285.206 681.163 287.845 681.659Z" fill="#0E2517"/>
<path d="M292.905 682.539C293.556 682.648 294.001 683.255 293.889 683.921C293.783 684.557 293.161 685 292.51 684.891C291.859 684.782 291.416 684.16 291.523 683.523C291.634 682.858 292.254 682.429 292.905 682.539Z" fill="#0E2517"/>
<path d="M302.475 684.223L302.263 685.647L297.781 689.665C297.082 690.289 296.771 690.743 296.692 691.277C296.57 692.093 297.09 692.671 297.951 692.799C298.441 692.872 298.865 692.769 299.162 692.51C299.524 692.215 299.675 691.813 299.763 691.325L301.618 691.602C301.295 693.662 299.712 694.821 297.546 694.498C295.647 694.215 294.516 692.954 294.779 691.189C294.934 690.15 295.503 689.28 297.026 687.914L299.652 685.561L295.898 685.001L296.155 683.28L302.475 684.223Z" fill="#0E2517"/>
<path d="M311.149 685.115C311.492 685.154 311.771 685.215 312.046 685.322L311.858 686.991C311.626 686.905 311.3 686.853 311.121 686.833C309.705 686.673 308.95 687.479 308.771 689.074C308.596 690.624 309.116 691.633 310.249 691.761C311.173 691.865 311.736 691.295 312.148 690.45C312.578 689.714 312.856 688.583 313.23 687.01L313.568 685.478L315.551 685.701C315.269 687.134 314.69 689.454 314.204 690.954L315.399 693.881L313.149 693.627L312.596 692.373C311.87 693.181 310.942 693.515 309.795 693.385C307.723 693.152 306.476 691.623 306.773 688.985C307.067 686.376 308.615 684.83 311.149 685.115Z" fill="#0E2517"/>
<path d="M322.518 686.167C325.285 686.384 327.047 688.282 326.821 691.168L326.538 694.772L324.639 694.623L324.9 691.288C324.925 690.974 324.932 690.689 324.894 690.415C323.559 690.551 322.937 691.195 322.823 692.645L322.68 694.47L320.825 694.324L320.976 692.41C321.136 690.361 322.192 689.376 324.471 689.088C324.049 688.333 323.302 687.883 322.345 687.808C320.565 687.668 319.278 688.922 319.116 690.985L318.866 694.17L316.967 694.022L317.231 690.657C317.459 687.756 319.587 685.937 322.518 686.167Z" fill="#0E2517"/>
<path d="M336.784 687.235C336.669 687.755 336.537 688.304 336.388 688.897C336.035 690.292 335.638 691.354 334.146 691.777L336.484 695.284L334.132 695.171L331.905 691.849C330.912 692.191 330.784 692.981 330.624 693.799C330.545 694.201 330.479 694.618 330.401 694.99L328.334 694.89C328.413 694.503 328.509 694.057 328.62 693.627C328.996 692.068 329.452 691.024 331.108 690.639L328.559 686.836L330.911 686.95L333.306 690.52C334.136 690.125 334.22 689.318 334.39 688.605C334.507 688.04 334.603 687.624 334.687 687.133L336.784 687.235Z" fill="#0E2517"/>
<path d="M345.216 687.457L345.174 689.137L341.081 689.036L341 692.32C340.977 693.235 341.385 693.74 342.255 693.761L344.984 693.828L344.943 695.508L341.719 695.428C340.444 695.397 339.603 694.806 339.235 693.927C339.079 693.563 338.969 693.125 338.992 692.21L339.071 688.986L337.767 688.954L337.808 687.275L345.216 687.457Z" fill="#0E2517"/>
<path d="M348.972 690.298L348.969 693.853L349.884 693.854L349.883 695.534L346.958 695.532L346.962 690.297L348.972 690.298Z" fill="#0E2517"/>
<path d="M358.989 687.333L359.128 695.387L354.359 695.47C353.129 695.491 352.28 694.966 351.861 694.148C351.659 693.776 351.516 693.314 351.5 692.369L351.415 687.465L358.989 687.333ZM357.008 689.048L353.439 689.11L353.496 692.394C353.511 693.309 353.955 693.796 354.81 693.782L357.089 693.742L357.008 689.048Z" fill="#0E2517"/>
<path d="M366.499 687.052L366.808 693.42L367.722 693.375L367.804 695.053L364.852 695.197L364.461 687.151L366.499 687.052Z" fill="#0E2517"/>
<path d="M376.626 686.387L377.181 694.423L372.437 694.751C371.21 694.835 370.335 694.355 369.859 693.56C369.654 693.199 369.487 692.744 369.422 691.801L369.084 686.908L371.089 686.77L371.431 691.723C371.494 692.636 371.963 693.099 372.816 693.04L375.06 692.885L374.621 686.526L376.626 686.387Z" fill="#0E2517"/>
<path d="M380.682 686.062L381.217 692.415L382.129 692.338L382.27 694.012L379.325 694.26L378.649 686.233L380.682 686.062Z" fill="#0E2517"/>
<path d="M386.793 685.235C387.136 685.196 387.423 685.194 387.714 685.236L387.904 686.906C387.659 686.873 387.329 686.895 387.15 686.916C385.734 687.076 385.178 688.03 385.359 689.625C385.535 691.175 386.268 692.043 387.4 691.914C388.325 691.809 388.745 691.128 388.958 690.213C389.213 689.399 389.232 688.234 389.245 686.617L389.233 685.049L391.215 684.824C391.26 686.283 391.214 688.673 391.076 690.244L392.894 692.831L390.643 693.086L389.824 691.986C389.298 692.937 388.468 693.469 387.32 693.599C385.248 693.834 383.692 692.622 383.392 689.984C383.096 687.376 384.26 685.523 386.793 685.235Z" fill="#0E2517"/>
<path d="M395.283 684.383L395.96 689.302C396.085 690.208 396.568 690.641 397.43 690.523L400.239 690.136L400.468 691.8L397.154 692.256C395.951 692.422 395.047 692.017 394.516 691.242C394.287 690.895 394.09 690.453 393.961 689.516L393.292 684.657L395.283 684.383Z" fill="#0E2517"/>
<path d="M403.351 686.051L403.913 689.561L404.817 689.416L405.083 691.075L402.194 691.538L401.366 686.369L403.351 686.051Z" fill="#0E2517"/>
<path d="M412.771 681.538L414.182 689.468L409.486 690.304C408.275 690.519 407.353 690.135 406.81 689.394C406.552 689.059 406.338 688.624 406.172 687.694L405.313 682.865L412.771 681.538ZM411.086 683.544L407.571 684.169L408.147 687.404C408.307 688.304 408.822 688.716 409.664 688.566L411.909 688.166L411.086 683.544Z" fill="#0E2517"/>
<path d="M682.973 401.546L684.395 401.778L688.353 406.312C688.967 407.02 689.417 407.336 689.95 407.423C690.764 407.556 691.349 407.043 691.489 406.184C691.569 405.696 691.471 405.269 691.216 404.969C690.926 404.603 690.526 404.447 690.039 404.353L690.341 402.502C692.396 402.852 693.534 404.45 693.182 406.612C692.874 408.507 691.598 409.621 689.837 409.335C688.8 409.166 687.937 408.585 686.592 407.044L684.274 404.387L683.665 408.133L681.947 407.853L682.973 401.546Z" fill="#0E2517"/>
<path d="M683.25 398.191C683.342 397.537 683.937 397.075 684.605 397.169C685.244 397.258 685.704 397.868 685.612 398.521C685.521 399.175 684.911 399.635 684.272 399.545C683.604 399.452 683.159 398.844 683.25 398.191Z" fill="#0E2517"/>
<path d="M684.689 388.58L686.118 388.757L690.247 393.137C690.888 393.82 691.35 394.119 691.886 394.186C692.704 394.287 693.269 393.752 693.376 392.889C693.437 392.398 693.323 391.975 693.056 391.685C692.752 391.33 692.347 391.19 691.857 391.114L692.087 389.253C694.155 389.524 695.353 391.078 695.084 393.251C694.849 395.157 693.617 396.319 691.845 396.1C690.803 395.971 689.919 395.424 688.516 393.935L686.097 391.369L685.632 395.135L683.905 394.922L684.689 388.58Z" fill="#0E2517"/>
<path d="M685.593 379.463L691.747 382.25L692.233 376.737L693.907 376.884L693.233 384.52L691.604 384.376L685.408 381.555L685.593 379.463ZM683.95 376.066L690.016 376.601L689.84 378.603L683.773 378.068L683.95 376.066Z" fill="#0E2517"/>
<path d="M686.147 372.288L691.102 372.596C692.015 372.653 692.535 372.264 692.589 371.396L692.765 368.566L694.442 368.67L694.235 372.009C694.159 373.222 693.583 374.027 692.719 374.395C692.333 374.551 691.861 374.657 690.918 374.598L686.022 374.294L686.147 372.288Z" fill="#0E2517"/>
<path d="M686.636 362.492L692.922 364.968L693.132 359.437L694.811 359.501L694.52 367.16L692.886 367.098L686.557 364.591L686.636 362.492ZM684.826 359.181L690.911 359.412L690.835 361.421L684.749 361.19L684.826 359.181Z" fill="#0E2517"/>
<path d="M686.882 349.862L688.562 349.879L688.538 352.234L694.938 349.764L694.916 351.954L688.728 354.261C688.918 354.668 689.276 354.897 689.965 355.054C690.787 355.302 692.391 355.408 693.561 355.42L694.881 355.434L694.86 357.503C694.425 357.499 693.975 357.494 693.36 357.473C692.491 357.449 691.411 357.394 690.587 357.265C687.952 356.834 686.825 355.532 686.857 352.352L686.882 349.862Z" fill="#0E2517"/>
<path d="M686.81 342.602L693.184 342.479L693.166 341.564L694.846 341.532L694.903 344.486L686.849 344.642L686.81 342.602Z" fill="#0E2517"/>
<path d="M686.485 333.27L688.163 333.206L688.322 337.343L694.512 332.406L694.6 334.699L691.629 337.065C692.047 337.785 692.813 337.8 693.613 337.905C693.989 337.935 694.352 337.981 694.728 338.012L694.809 340.125L693.525 339.92C692.106 339.704 690.998 339.386 690.435 338.012L688.177 339.81L686.738 339.866L686.485 333.27Z" fill="#0E2517"/>
<path d="M685.997 328.324C685.975 327.98 685.986 327.694 686.042 327.404L687.718 327.294C687.674 327.538 687.681 327.868 687.693 328.048C687.786 329.47 688.712 330.07 690.314 329.965C691.871 329.863 692.772 329.172 692.698 328.035C692.637 327.107 691.976 326.654 691.072 326.398C690.271 326.105 689.109 326.031 687.494 325.941L685.927 325.879L685.796 323.888C687.256 323.912 689.641 324.071 691.204 324.284L693.873 322.591L694.022 324.851L692.885 325.617C693.809 326.188 694.301 327.042 694.377 328.195C694.513 330.275 693.229 331.773 690.579 331.947C687.96 332.119 686.164 330.869 685.997 328.324Z" fill="#0E2517"/>
<path d="M685.02 314.326L693.039 313.571L693.485 318.305C693.6 319.53 693.141 320.417 692.359 320.912C692.002 321.127 691.552 321.304 690.611 321.393L685.728 321.852L685.54 319.851L690.483 319.386C691.394 319.3 691.846 318.821 691.766 317.97L691.555 315.73L685.208 316.327L685.02 314.326Z" fill="#0E2517"/>
<path d="M687.385 309.918L690.918 309.525L690.817 308.615L692.487 308.429L692.81 311.336L687.608 311.916L687.385 309.918Z" fill="#0E2517"/>
<path d="M686.801 305.252L690.325 304.785L690.205 303.878L691.87 303.657L692.255 306.557L687.065 307.245L686.801 305.252Z" fill="#0E2517"/>
<path d="M683.361 301.136L688.271 300.401C689.176 300.266 689.601 299.762 689.475 298.916L688.881 294.956L690.543 294.707L691.209 299.157C691.392 300.374 690.984 301.299 690.228 301.822C689.884 302.055 689.444 302.258 688.51 302.398L683.659 303.124L683.361 301.136ZM682.577 295.9L686.686 295.284L686.984 297.272L682.874 297.888L682.577 295.9Z" fill="#0E2517"/>
<path d="M369.102 13.7727L369.509 6.20867L367.667 6.10947L367.743 4.70151C368.986 4.76845 369.757 4.11897 370.126 3.13236L371.728 3.21866L371.154 13.8832L369.102 13.7727Z" fill="#0E2517"/>
<path d="M365.256 13.7838C364.597 13.7522 364.083 13.202 364.115 12.5278C364.146 11.8835 364.711 11.37 365.37 11.4015C366.03 11.4331 366.543 11.9983 366.512 12.6425C366.48 13.3168 365.916 13.8153 365.256 13.7838Z" fill="#0E2517"/>
<path d="M355.553 13.267L355.591 11.8275L359.551 7.29515C360.17 6.59118 360.423 6.10267 360.437 5.56286C360.459 4.73814 359.872 4.22753 359.003 4.20464C358.508 4.19161 358.099 4.3459 357.836 4.63909C357.512 4.97568 357.411 5.39317 357.383 5.8876L355.508 5.83827C355.578 3.75439 357.009 2.41157 359.198 2.46919C361.118 2.5197 362.394 3.63366 362.347 5.41805C362.319 6.46768 361.859 7.40091 360.513 8.94103L358.193 11.5959L361.986 11.6957L361.941 13.4351L355.553 13.267Z" fill="#0E2517"/>
<path d="M346.835 13.4487C346.49 13.4522 346.204 13.4251 345.919 13.353L345.902 11.6731C346.142 11.7307 346.472 11.7423 346.652 11.7405C348.077 11.726 348.728 10.8343 348.712 9.22942C348.696 7.6695 348.056 6.73095 346.917 6.74253C345.987 6.75198 345.498 7.38697 345.192 8.27513C344.855 9.05859 344.717 10.2151 344.538 11.822L344.389 13.3835L342.394 13.4038C342.499 11.9477 342.79 9.57459 343.089 8.02647L341.546 5.26701L343.811 5.244L344.513 6.42193C345.134 5.53057 346.015 5.08661 347.17 5.07488C349.255 5.0537 350.678 6.4193 350.705 9.07417C350.732 11.699 349.385 13.4228 346.835 13.4487Z" fill="#0E2517"/>
<path d="M338.079 10.6232L337.944 7.07083L337.029 7.10573L336.965 5.42696L339.888 5.31538L340.088 10.5466L338.079 10.6232Z" fill="#0E2517"/>
<path d="M328.184 13.9475L327.758 5.90369L332.522 5.6518C333.75 5.58684 334.617 6.08173 335.065 6.88419C335.28 7.24837 335.439 7.70559 335.489 8.64927L335.748 13.5474L328.184 13.9475ZM330.102 12.1637L333.667 11.9751L333.494 8.69471C333.445 7.78098 332.985 7.30965 332.131 7.3548L329.854 7.4752L330.102 12.1637Z" fill="#0E2517"/>
<path d="M337.031 664.802C337.115 664.384 337.21 663.942 337.319 663.465C337.578 662.344 337.877 661.487 339.063 661.123L337.133 658.358L339.016 658.409L340.854 661.028C341.643 660.737 341.732 660.103 341.845 659.446C341.902 659.123 341.947 658.788 342.003 658.49L343.659 658.534C343.602 658.845 343.533 659.203 343.451 659.549C343.177 660.802 342.83 661.645 341.513 661.982L343.617 664.979L341.734 664.929L339.757 662.114C339.1 662.445 339.046 663.091 338.923 663.664C338.838 664.118 338.769 664.453 338.711 664.847L337.031 664.802Z" fill="#0E2517"/>
<path d="M345.832 665.019L345.837 663.687L347.517 663.694C349.245 663.701 349.991 663.188 349.998 661.616C350.003 660.344 349.43 659.742 348.35 659.737C347.462 659.734 346.908 660.163 346.905 660.811C346.903 661.351 347.286 661.605 347.765 661.691L347.76 662.999C346.956 662.996 345.374 662.545 345.381 660.865C345.387 659.377 346.627 658.386 348.475 658.394C350.503 658.402 351.579 659.499 351.57 661.527C351.561 663.807 350.248 665.037 347.776 665.027L345.832 665.019Z" fill="#0E2517"/>
<path d="M356.68 664.966L356.595 660.995C356.579 660.263 356.234 659.874 355.539 659.889L353.271 659.938L353.242 658.595L355.918 658.537C356.889 658.516 357.57 658.921 357.921 659.586C358.071 659.883 358.187 660.252 358.203 661.008L358.288 664.931L356.68 664.966Z" fill="#0E2517"/>
<path d="M364.508 664.833C364.232 664.846 364.003 664.832 363.773 664.783L363.712 663.44C363.905 663.479 364.17 663.479 364.314 663.473C365.452 663.421 365.948 662.689 365.889 661.407C365.832 660.16 365.295 659.428 364.383 659.469C363.64 659.503 363.268 660.025 363.048 660.743C362.801 661.379 362.723 662.308 362.626 663.598L362.55 664.85L360.956 664.923C360.999 663.756 361.164 661.85 361.36 660.604L360.048 658.442L361.858 658.359L362.453 659.281C362.924 658.551 363.616 658.171 364.539 658.129C366.205 658.053 367.382 659.104 367.479 661.226C367.574 663.324 366.546 664.74 364.508 664.833Z" fill="#0E2517"/>
<path d="M329.849 539.019L330.268 535.069C330.345 534.341 330.041 533.911 329.36 533.839L326.174 533.501L326.316 532.164L329.896 532.544C330.874 532.648 331.509 533.149 331.762 533.84C331.873 534.153 331.941 534.535 331.862 535.286L331.448 539.189L329.849 539.019ZM325.637 538.572L325.987 535.267L327.586 535.437L327.236 538.742L325.637 538.572Z" fill="#0E2517"/>
<path d="M337.644 539.787C337.368 539.77 337.142 539.733 336.918 539.659L337 538.317C337.189 538.377 337.451 538.405 337.595 538.414C338.733 538.483 339.303 537.808 339.381 536.527C339.457 535.281 339 534.496 338.089 534.44C337.347 534.395 336.921 534.874 336.626 535.566C336.313 536.172 336.137 537.087 335.903 538.359L335.696 539.596L334.103 539.5C334.269 538.344 334.636 536.466 334.963 535.248L333.888 532.958L335.696 533.068L336.19 534.048C336.736 533.372 337.464 533.068 338.386 533.124C340.051 533.225 341.11 534.396 340.981 536.516C340.853 538.612 339.68 539.911 337.644 539.787Z" fill="#0E2517"/>
<path d="M343.558 537.699L343.63 534.856L342.899 534.838L342.933 533.494L345.272 533.554L345.166 537.74L343.558 537.699Z" fill="#0E2517"/>
<path d="M348.221 537.789L348.23 534.945L347.498 534.943L347.503 533.599L349.842 533.606L349.829 537.794L348.221 537.789Z" fill="#0E2517"/>
<path d="M355.063 539.941L356.679 534.784L352.254 534.932L352.209 533.589L358.337 533.384L358.381 534.691L356.742 539.885L355.063 539.941ZM352.524 541.575L352.361 536.706L353.968 536.652L354.131 541.521L352.524 541.575Z" fill="#0E2517"/>
<path d="M367.437 539.192L367.077 535.236C367.01 534.507 366.64 534.143 365.947 534.206L363.688 534.412L363.566 533.074L366.231 532.831C367.199 532.743 367.906 533.1 368.302 533.739C368.472 534.024 368.614 534.385 368.682 535.138L369.039 539.046L367.437 539.192Z" fill="#0E2517"/>
<path d="M371.332 538.813L371.157 537.481L374.405 537.054L374.063 534.448C373.967 533.722 373.582 533.373 372.892 533.464L370.727 533.749L370.552 532.416L373.11 532.08C374.121 531.947 374.859 532.31 375.259 532.959C375.427 533.228 375.568 533.56 375.663 534.286L375.999 536.844L377.035 536.708L377.21 538.04L371.332 538.813Z" fill="#0E2517"/>
<path d="M323.772 404.184L325.488 400.602C325.805 399.942 325.673 399.44 325.045 399.139L323 398.159L323.581 396.947L325.994 398.103C326.871 398.523 327.295 399.193 327.308 399.944C327.308 400.277 327.244 400.659 326.918 401.34L325.222 404.879L323.772 404.184Z" fill="#0E2517"/>
<path d="M327.289 405.797L327.715 404.548L328.964 404.973C330.339 405.441 331.176 405.143 331.62 403.836C332.026 402.643 331.674 401.89 330.55 401.507L328.993 400.977L329.423 399.716L331.331 400.366C333.149 400.985 333.846 402.287 333.181 404.241C332.474 406.32 330.936 407.038 328.721 406.285L327.289 405.797Z" fill="#0E2517"/>
<path d="M335.201 405.99L335.855 403.222L335.142 403.054L335.451 401.746L337.729 402.283L336.766 406.359L335.201 405.99Z" fill="#0E2517"/>
<path d="M338.527 409.068L338.722 407.75L339.553 407.873C340.075 407.95 340.378 407.704 340.457 407.169L340.889 404.237L339.429 404.022L339.625 402.692L342.676 403.142L342.058 407.333C341.957 408.021 341.794 408.385 341.587 408.634C341.224 409.126 340.593 409.373 339.774 409.252L338.527 409.068Z" fill="#0E2517"/>
<path d="M350.889 409.935L350.807 405.964C350.792 405.232 350.448 404.843 349.752 404.858L347.485 404.904L347.457 403.561L350.133 403.506C351.104 403.486 351.785 403.892 352.135 404.557C352.285 404.854 352.4 405.223 352.416 405.979L352.497 409.902L350.889 409.935Z" fill="#0E2517"/>
<path d="M355.486 409.719L354.906 404.652L354.179 404.735L354.026 403.4L356.375 403.131L357.108 409.533L355.486 409.719Z" fill="#0E2517"/>
<path d="M359.851 409.108L359.552 407.81L361.189 407.433C362.873 407.045 363.482 406.375 363.129 404.843C362.843 403.604 362.147 403.148 361.095 403.391C360.229 403.59 359.788 404.135 359.934 404.767C360.055 405.293 360.486 405.452 360.973 405.426L361.266 406.701C360.483 406.882 358.84 406.805 358.462 405.168C358.128 403.718 359.109 402.469 360.91 402.054C362.886 401.599 364.183 402.42 364.639 404.397C365.151 406.618 364.154 408.117 361.745 408.672L359.851 409.108Z" fill="#0E2517"/>
<path d="M367.293 404.952L366.366 402.263L365.674 402.502L365.235 401.232L367.448 400.469L368.813 404.428L367.293 404.952Z" fill="#0E2517"/>
<path d="M375.363 404.179C373.363 405.143 371.381 404.54 370.375 402.454L369.119 399.849L370.492 399.187L371.654 401.597C371.764 401.824 371.874 402.025 372.011 402.198C372.878 401.567 373.049 400.872 372.544 399.823L371.908 398.504L373.249 397.858L373.916 399.242C374.63 400.723 374.297 401.829 372.837 402.946C373.433 403.298 374.131 403.308 374.822 402.974C376.109 402.354 376.494 400.97 375.775 399.478L374.665 397.175L376.038 396.514L377.21 398.946C378.221 401.043 377.482 403.158 375.363 404.179Z" fill="#0E2517"/>
<path d="M334.832 373.193L337.033 369.887C337.439 369.277 337.379 368.761 336.799 368.376L334.912 367.119L335.657 366L337.884 367.483C338.693 368.022 339.02 368.744 338.927 369.489C338.88 369.819 338.764 370.188 338.345 370.818L336.17 374.084L334.832 373.193Z" fill="#0E2517"/>
<path d="M338.973 375.608L339.354 374.332L340.964 374.812C342.62 375.306 343.48 375.025 343.93 373.519C344.294 372.3 343.914 371.56 342.879 371.251C342.028 370.997 341.375 371.253 341.19 371.874C341.035 372.391 341.331 372.743 341.767 372.961L341.393 374.214C340.623 373.984 339.232 373.105 339.712 371.496C340.138 370.07 341.607 369.469 343.378 369.998C345.321 370.578 346.044 371.933 345.464 373.876C344.811 376.061 343.205 376.871 340.836 376.164L338.973 375.608Z" fill="#0E2517"/>
<path d="M347.619 377.846L347.805 372.749L347.074 372.722L347.123 371.379L349.485 371.466L349.25 377.905L347.619 377.846Z" fill="#0E2517"/>
<path d="M355.98 377.026C353.831 377.585 352.003 376.61 351.419 374.368L350.691 371.57L352.166 371.186L352.84 373.776C352.903 374.02 352.972 374.237 353.073 374.434C354.047 373.982 354.349 373.333 354.056 372.207L353.687 370.79L355.127 370.415L355.514 371.902C355.928 373.493 355.388 374.514 353.74 375.327C354.256 375.788 354.939 375.933 355.682 375.739C357.064 375.38 357.709 374.096 357.292 372.493L356.649 370.019L358.124 369.636L358.804 372.249C359.39 374.501 358.256 376.433 355.98 377.026Z" fill="#0E2517"/>
<path d="M365.669 372.914C365.441 373.069 365.239 373.177 365.017 373.256L364.261 372.145C364.447 372.076 364.672 371.938 364.791 371.857C365.734 371.216 365.772 370.333 365.05 369.272C364.349 368.24 363.507 367.898 362.753 368.411C362.137 368.829 362.093 369.468 362.283 370.195C362.405 370.867 362.826 371.698 363.419 372.848L364.011 373.954L362.691 374.851C362.116 373.835 361.259 372.125 360.772 370.961L358.522 369.807L360.02 368.788L361.01 369.262C361.028 368.393 361.418 367.707 362.182 367.188C363.562 366.25 365.115 366.529 366.309 368.285C367.49 370.022 367.356 371.767 365.669 372.914Z" fill="#0E2517"/>
</svg>