<svg xmlns="http://www.w3.org/2000/svg" width="16" height="16" viewBox="0 0 16 16" fill="none">
  <mask id="mask0_1444_1414" style="mask-type:alpha" maskUnits="userSpaceOnUse" x="0" y="0" width="16" height="16">
    <rect width="16" height="16" fill="black"/>
  </mask>
  <g mask="url(#mask0_1444_1414)">
    <path d="M1.33594 16.0007V13.334H14.6693V16.0007H1.33594ZM4.0026 10.6673H4.93594L10.1359 5.48398L9.18594 4.53398L4.0026 9.73398V10.6673ZM2.66927 12.0007V9.16732L10.1359 1.71732C10.2582 1.5951 10.3998 1.50065 10.5609 1.43398C10.722 1.36732 10.8915 1.33398 11.0693 1.33398C11.247 1.33398 11.4193 1.36732 11.5859 1.43398C11.7526 1.50065 11.9026 1.60065 12.0359 1.73398L12.9526 2.66732C13.0859 2.78954 13.1832 2.93398 13.2443 3.10065C13.3054 3.26732 13.3359 3.43954 13.3359 3.61732C13.3359 3.78398 13.3054 3.94787 13.2443 4.10898C13.1832 4.2701 13.0859 4.41732 12.9526 4.55065L5.5026 12.0007H2.66927Z" fill="black"/>
  </g>
</svg>